<?xml version="1.0" encoding="utf-8" standalone="no"?>
<!DOCTYPE svg PUBLIC "-//W3C//DTD SVG 1.1//EN"
  "http://www.w3.org/Graphics/SVG/1.1/DTD/svg11.dtd">
<!-- Created with matplotlib (https://matplotlib.org/) -->
<svg height="420.218182pt" version="1.1" viewBox="0 0 1021.854756 420.218182" width="1021.854756pt" xmlns="http://www.w3.org/2000/svg" xmlns:xlink="http://www.w3.org/1999/xlink">
 <metadata>
  <rdf:RDF xmlns:cc="http://creativecommons.org/ns#" xmlns:dc="http://purl.org/dc/elements/1.1/" xmlns:rdf="http://www.w3.org/1999/02/22-rdf-syntax-ns#">
   <cc:Work>
    <dc:type rdf:resource="http://purl.org/dc/dcmitype/StillImage"/>
    <dc:date>2021-05-15T15:13:57.553662</dc:date>
    <dc:format>image/svg+xml</dc:format>
    <dc:creator>
     <cc:Agent>
      <dc:title>Matplotlib v3.3.4, https://matplotlib.org/</dc:title>
     </cc:Agent>
    </dc:creator>
   </cc:Work>
  </rdf:RDF>
 </metadata>
 <defs>
  <style type="text/css">*{stroke-linecap:butt;stroke-linejoin:round;}</style>
 </defs>
 <g id="figure_1">
  <g id="patch_1">
   <path d="M 0 420.218182 
L 1021.854756 420.218182 
L 1021.854756 0 
L 0 0 
z
" style="fill:none;"/>
  </g>
  <g id="axes_1">
   <g id="patch_2">
    <path d="M 372.436364 210.109091 
C 372.436364 186.72066 367.381587 163.606145 357.619102 142.352614 
C 347.856616 121.099084 333.61509 102.204362 315.872361 86.965784 
C 298.129633 71.727205 277.301293 60.501704 254.817441 54.060038 
C 232.333589 47.618372 208.720865 46.111423 185.600549 49.642662 
C 162.480232 53.173901 140.393872 61.660613 120.857945 74.520093 
C 101.322017 87.379573 84.794114 104.310609 72.409061 124.150699 
C 60.024008 143.990788 52.071901 166.275213 49.098742 189.473899 
C 46.125584 212.672584 48.201013 236.242145 55.182529 258.564266 
L 70.675186 253.718749 
C 64.391821 233.628839 62.523934 212.416235 65.199777 191.537418 
C 67.87562 170.658601 75.032516 150.602618 86.179064 132.746538 
C 97.325612 114.890458 112.200724 99.652524 129.783059 88.078993 
C 147.365394 76.505461 167.243118 68.86742 188.051403 65.689305 
C 208.859688 62.51119 230.111139 63.867444 250.346606 69.664943 
C 270.582073 75.462443 289.327579 85.565394 305.296034 99.280114 
C 321.26449 112.994835 334.081864 130.000084 342.868101 149.128262 
C 351.654338 168.256439 356.203636 189.059503 356.203636 210.109091 
L 372.436364 210.109091 
z
" style="fill:#1f77b4;stroke:#000000;stroke-linejoin:miter;stroke-width:0.7;"/>
   </g>
   <g id="patch_3">
    <path d="M 55.182529 258.564266 
C 60.796639 276.514355 69.487874 293.352954 80.867604 308.327121 
C 92.247333 323.301288 106.143375 336.184455 121.934365 346.400548 
L 130.751838 332.771402 
C 116.539947 323.576918 104.033509 311.982068 93.791752 298.505318 
C 83.549996 285.028568 75.727884 269.873829 70.675186 253.718749 
L 55.182529 258.564266 
z
" style="fill:#ff7f0e;stroke:#000000;stroke-linejoin:miter;stroke-width:0.7;"/>
   </g>
   <g id="patch_4">
    <path d="M 121.934365 346.400548 
C 136.588803 355.881341 152.676888 362.936849 169.577942 367.294871 
C 186.478997 371.652893 203.972842 373.256656 221.384566 372.044285 
L 220.257019 355.850766 
C 204.586467 356.941899 188.842006 355.498513 173.631057 351.576293 
C 158.420108 347.654073 143.940832 341.304116 130.751838 332.771402 
L 121.934365 346.400548 
z
" style="fill:#2ca02c;stroke:#000000;stroke-linejoin:miter;stroke-width:0.7;"/>
   </g>
   <g id="patch_5">
    <path d="M 221.384566 372.044285 
C 237.43867 370.926445 253.237663 367.42741 268.262491 361.662136 
C 283.287318 355.896862 297.37162 347.929185 310.052674 338.020872 
L 300.058316 325.229693 
C 288.645367 334.147176 275.969496 341.318085 262.447151 346.506832 
C 248.924806 351.695578 234.705712 354.84471 220.257019 355.850766 
L 221.384566 372.044285 
z
" style="fill:#d62728;stroke:#000000;stroke-linejoin:miter;stroke-width:0.7;"/>
   </g>
   <g id="patch_6">
    <path d="M 310.052674 338.020872 
C 316.355353 333.096287 322.285444 327.712597 327.794469 321.91381 
C 333.303495 316.115023 338.376403 309.916983 342.971726 303.370357 
L 329.685462 294.044231 
C 325.549672 299.936194 320.984055 305.514429 316.025932 310.733338 
C 311.067809 315.952246 305.730727 320.797568 300.058316 325.229693 
L 310.052674 338.020872 
z
" style="fill:#9467bd;stroke:#000000;stroke-linejoin:miter;stroke-width:0.7;"/>
   </g>
   <g id="patch_7">
    <path d="M 342.971726 303.370357 
C 346.243098 298.709868 349.266988 293.880478 352.030854 288.902217 
C 354.79472 283.923956 357.294735 278.803718 359.52053 273.562738 
L 344.579386 267.217373 
C 342.57617 271.934255 340.326157 276.54247 337.838677 281.022904 
C 335.351198 285.503339 332.629697 289.84979 329.685462 294.044231 
L 342.971726 303.370357 
z
" style="fill:#8c564b;stroke:#000000;stroke-linejoin:miter;stroke-width:0.7;"/>
   </g>
   <g id="patch_8">
    <path d="M 359.52053 273.562738 
C 360.960492 270.172124 362.284622 266.733476 363.490618 263.252769 
C 364.696615 259.772061 365.78378 256.25131 366.750225 252.696632 
L 351.086111 248.437878 
C 350.216311 251.637088 349.237863 254.805764 348.152466 257.938401 
C 347.067069 261.071038 345.875352 264.165821 344.579386 267.217373 
L 359.52053 273.562738 
z
" style="fill:#e377c2;stroke:#000000;stroke-linejoin:miter;stroke-width:0.7;"/>
   </g>
   <g id="patch_9">
    <path d="M 366.750225 252.696632 
C 367.553334 249.742717 368.272726 246.766675 368.907538 243.772077 
C 369.54235 240.77748 370.092327 237.765524 370.55681 234.739825 
L 354.512038 232.276752 
C 354.094003 234.999881 353.599024 237.710641 353.027693 240.405779 
C 352.456363 243.100916 351.80891 245.779354 351.086111 248.437878 
L 366.750225 252.696632 
z
" style="fill:#7f7f7f;stroke:#000000;stroke-linejoin:miter;stroke-width:0.7;"/>
   </g>
   <g id="patch_10">
    <path d="M 370.55681 234.739825 
C 370.905701 232.467105 371.206263 230.187228 371.458293 227.901739 
C 371.710324 225.616249 371.913765 223.325662 372.06848 221.03153 
L 355.872541 219.939286 
C 355.733298 222.004005 355.550201 224.065533 355.323373 226.122474 
C 355.096546 228.179414 354.82604 230.231303 354.512038 232.276752 
L 370.55681 234.739825 
z
" style="fill:#bcbd22;stroke:#000000;stroke-linejoin:miter;stroke-width:0.7;"/>
   </g>
   <g id="patch_11">
    <path d="M 372.06848 221.03153 
C 372.191065 219.213831 372.28304 217.394197 372.344367 215.573401 
C 372.405694 213.752606 372.436364 211.930907 372.436364 210.10908 
L 356.203636 210.109081 
C 356.203636 211.748726 356.176034 213.388255 356.120839 215.02697 
C 356.065645 216.665686 355.982867 218.303357 355.872541 219.939286 
L 372.06848 221.03153 
z
" style="fill:#17becf;stroke:#000000;stroke-linejoin:miter;stroke-width:0.7;"/>
   </g>
   <g id="matplotlib.axis_1"/>
   <g id="matplotlib.axis_2"/>
   <g id="text_1">
    <!-- white -->
    <g transform="translate(155.782507 36.355394)scale(0.1 -0.1)">
     <defs>
      <path d="M 4.203125 54.6875 
L 13.1875 54.6875 
L 24.421875 12.015625 
L 35.59375 54.6875 
L 46.1875 54.6875 
L 57.421875 12.015625 
L 68.609375 54.6875 
L 77.59375 54.6875 
L 63.28125 0 
L 52.6875 0 
L 40.921875 44.828125 
L 29.109375 0 
L 18.5 0 
z
" id="DejaVuSans-119"/>
      <path d="M 54.890625 33.015625 
L 54.890625 0 
L 45.90625 0 
L 45.90625 32.71875 
Q 45.90625 40.484375 42.875 44.328125 
Q 39.84375 48.1875 33.796875 48.1875 
Q 26.515625 48.1875 22.3125 43.546875 
Q 18.109375 38.921875 18.109375 30.90625 
L 18.109375 0 
L 9.078125 0 
L 9.078125 75.984375 
L 18.109375 75.984375 
L 18.109375 46.1875 
Q 21.34375 51.125 25.703125 53.5625 
Q 30.078125 56 35.796875 56 
Q 45.21875 56 50.046875 50.171875 
Q 54.890625 44.34375 54.890625 33.015625 
z
" id="DejaVuSans-104"/>
      <path d="M 9.421875 54.6875 
L 18.40625 54.6875 
L 18.40625 0 
L 9.421875 0 
z
M 9.421875 75.984375 
L 18.40625 75.984375 
L 18.40625 64.59375 
L 9.421875 64.59375 
z
" id="DejaVuSans-105"/>
      <path d="M 18.3125 70.21875 
L 18.3125 54.6875 
L 36.8125 54.6875 
L 36.8125 47.703125 
L 18.3125 47.703125 
L 18.3125 18.015625 
Q 18.3125 11.328125 20.140625 9.421875 
Q 21.96875 7.515625 27.59375 7.515625 
L 36.8125 7.515625 
L 36.8125 0 
L 27.59375 0 
Q 17.1875 0 13.234375 3.875 
Q 9.28125 7.765625 9.28125 18.015625 
L 9.28125 47.703125 
L 2.6875 47.703125 
L 2.6875 54.6875 
L 9.28125 54.6875 
L 9.28125 70.21875 
z
" id="DejaVuSans-116"/>
      <path d="M 56.203125 29.59375 
L 56.203125 25.203125 
L 14.890625 25.203125 
Q 15.484375 15.921875 20.484375 11.0625 
Q 25.484375 6.203125 34.421875 6.203125 
Q 39.59375 6.203125 44.453125 7.46875 
Q 49.3125 8.734375 54.109375 11.28125 
L 54.109375 2.78125 
Q 49.265625 0.734375 44.1875 -0.34375 
Q 39.109375 -1.421875 33.890625 -1.421875 
Q 20.796875 -1.421875 13.15625 6.1875 
Q 5.515625 13.8125 5.515625 26.8125 
Q 5.515625 40.234375 12.765625 48.109375 
Q 20.015625 56 32.328125 56 
Q 43.359375 56 49.78125 48.890625 
Q 56.203125 41.796875 56.203125 29.59375 
z
M 47.21875 32.234375 
Q 47.125 39.59375 43.09375 43.984375 
Q 39.0625 48.390625 32.421875 48.390625 
Q 24.90625 48.390625 20.390625 44.140625 
Q 15.875 39.890625 15.1875 32.171875 
z
" id="DejaVuSans-101"/>
     </defs>
     <use xlink:href="#DejaVuSans-119"/>
     <use x="81.787109" xlink:href="#DejaVuSans-104"/>
     <use x="145.166016" xlink:href="#DejaVuSans-105"/>
     <use x="172.949219" xlink:href="#DejaVuSans-116"/>
     <use x="212.158203" xlink:href="#DejaVuSans-101"/>
    </g>
   </g>
   <g id="text_2">
    <!-- 54.8% -->
    <g transform="translate(175.35392 89.309316)scale(0.1 -0.1)">
     <defs>
      <path d="M 10.796875 72.90625 
L 49.515625 72.90625 
L 49.515625 64.59375 
L 19.828125 64.59375 
L 19.828125 46.734375 
Q 21.96875 47.46875 24.109375 47.828125 
Q 26.265625 48.1875 28.421875 48.1875 
Q 40.625 48.1875 47.75 41.5 
Q 54.890625 34.8125 54.890625 23.390625 
Q 54.890625 11.625 47.5625 5.09375 
Q 40.234375 -1.421875 26.90625 -1.421875 
Q 22.3125 -1.421875 17.546875 -0.640625 
Q 12.796875 0.140625 7.71875 1.703125 
L 7.71875 11.625 
Q 12.109375 9.234375 16.796875 8.0625 
Q 21.484375 6.890625 26.703125 6.890625 
Q 35.15625 6.890625 40.078125 11.328125 
Q 45.015625 15.765625 45.015625 23.390625 
Q 45.015625 31 40.078125 35.4375 
Q 35.15625 39.890625 26.703125 39.890625 
Q 22.75 39.890625 18.8125 39.015625 
Q 14.890625 38.140625 10.796875 36.28125 
z
" id="DejaVuSans-53"/>
      <path d="M 37.796875 64.3125 
L 12.890625 25.390625 
L 37.796875 25.390625 
z
M 35.203125 72.90625 
L 47.609375 72.90625 
L 47.609375 25.390625 
L 58.015625 25.390625 
L 58.015625 17.1875 
L 47.609375 17.1875 
L 47.609375 0 
L 37.796875 0 
L 37.796875 17.1875 
L 4.890625 17.1875 
L 4.890625 26.703125 
z
" id="DejaVuSans-52"/>
      <path d="M 10.6875 12.40625 
L 21 12.40625 
L 21 0 
L 10.6875 0 
z
" id="DejaVuSans-46"/>
      <path d="M 31.78125 34.625 
Q 24.75 34.625 20.71875 30.859375 
Q 16.703125 27.09375 16.703125 20.515625 
Q 16.703125 13.921875 20.71875 10.15625 
Q 24.75 6.390625 31.78125 6.390625 
Q 38.8125 6.390625 42.859375 10.171875 
Q 46.921875 13.96875 46.921875 20.515625 
Q 46.921875 27.09375 42.890625 30.859375 
Q 38.875 34.625 31.78125 34.625 
z
M 21.921875 38.8125 
Q 15.578125 40.375 12.03125 44.71875 
Q 8.5 49.078125 8.5 55.328125 
Q 8.5 64.0625 14.71875 69.140625 
Q 20.953125 74.21875 31.78125 74.21875 
Q 42.671875 74.21875 48.875 69.140625 
Q 55.078125 64.0625 55.078125 55.328125 
Q 55.078125 49.078125 51.53125 44.71875 
Q 48 40.375 41.703125 38.8125 
Q 48.828125 37.15625 52.796875 32.3125 
Q 56.78125 27.484375 56.78125 20.515625 
Q 56.78125 9.90625 50.3125 4.234375 
Q 43.84375 -1.421875 31.78125 -1.421875 
Q 19.734375 -1.421875 13.25 4.234375 
Q 6.78125 9.90625 6.78125 20.515625 
Q 6.78125 27.484375 10.78125 32.3125 
Q 14.796875 37.15625 21.921875 38.8125 
z
M 18.3125 54.390625 
Q 18.3125 48.734375 21.84375 45.5625 
Q 25.390625 42.390625 31.78125 42.390625 
Q 38.140625 42.390625 41.71875 45.5625 
Q 45.3125 48.734375 45.3125 54.390625 
Q 45.3125 60.0625 41.71875 63.234375 
Q 38.140625 66.40625 31.78125 66.40625 
Q 25.390625 66.40625 21.84375 63.234375 
Q 18.3125 60.0625 18.3125 54.390625 
z
" id="DejaVuSans-56"/>
      <path d="M 72.703125 32.078125 
Q 68.453125 32.078125 66.03125 28.46875 
Q 63.625 24.859375 63.625 18.40625 
Q 63.625 12.0625 66.03125 8.421875 
Q 68.453125 4.78125 72.703125 4.78125 
Q 76.859375 4.78125 79.265625 8.421875 
Q 81.6875 12.0625 81.6875 18.40625 
Q 81.6875 24.8125 79.265625 28.4375 
Q 76.859375 32.078125 72.703125 32.078125 
z
M 72.703125 38.28125 
Q 80.421875 38.28125 84.953125 32.90625 
Q 89.5 27.546875 89.5 18.40625 
Q 89.5 9.28125 84.9375 3.921875 
Q 80.375 -1.421875 72.703125 -1.421875 
Q 64.890625 -1.421875 60.34375 3.921875 
Q 55.8125 9.28125 55.8125 18.40625 
Q 55.8125 27.59375 60.375 32.9375 
Q 64.9375 38.28125 72.703125 38.28125 
z
M 22.3125 68.015625 
Q 18.109375 68.015625 15.6875 64.375 
Q 13.28125 60.75 13.28125 54.390625 
Q 13.28125 47.953125 15.671875 44.328125 
Q 18.0625 40.71875 22.3125 40.71875 
Q 26.5625 40.71875 28.96875 44.328125 
Q 31.390625 47.953125 31.390625 54.390625 
Q 31.390625 60.6875 28.953125 64.34375 
Q 26.515625 68.015625 22.3125 68.015625 
z
M 66.40625 74.21875 
L 74.21875 74.21875 
L 28.609375 -1.421875 
L 20.796875 -1.421875 
z
M 22.3125 74.21875 
Q 30.03125 74.21875 34.609375 68.875 
Q 39.203125 63.53125 39.203125 54.390625 
Q 39.203125 45.171875 34.640625 39.84375 
Q 30.078125 34.515625 22.3125 34.515625 
Q 14.546875 34.515625 10.03125 39.859375 
Q 5.515625 45.21875 5.515625 54.390625 
Q 5.515625 63.484375 10.046875 68.84375 
Q 14.59375 74.21875 22.3125 74.21875 
z
" id="DejaVuSans-37"/>
     </defs>
     <use xlink:href="#DejaVuSans-53"/>
     <use x="63.623047" xlink:href="#DejaVuSans-52"/>
     <use x="127.246094" xlink:href="#DejaVuSans-46"/>
     <use x="159.033203" xlink:href="#DejaVuSans-56"/>
     <use x="222.65625" xlink:href="#DejaVuSans-37"/>
    </g>
   </g>
   <g id="text_3">
    <!-- other -->
    <g transform="translate(41.30283 320.908299)scale(0.1 -0.1)">
     <defs>
      <path d="M 30.609375 48.390625 
Q 23.390625 48.390625 19.1875 42.75 
Q 14.984375 37.109375 14.984375 27.296875 
Q 14.984375 17.484375 19.15625 11.84375 
Q 23.34375 6.203125 30.609375 6.203125 
Q 37.796875 6.203125 41.984375 11.859375 
Q 46.1875 17.53125 46.1875 27.296875 
Q 46.1875 37.015625 41.984375 42.703125 
Q 37.796875 48.390625 30.609375 48.390625 
z
M 30.609375 56 
Q 42.328125 56 49.015625 48.375 
Q 55.71875 40.765625 55.71875 27.296875 
Q 55.71875 13.875 49.015625 6.21875 
Q 42.328125 -1.421875 30.609375 -1.421875 
Q 18.84375 -1.421875 12.171875 6.21875 
Q 5.515625 13.875 5.515625 27.296875 
Q 5.515625 40.765625 12.171875 48.375 
Q 18.84375 56 30.609375 56 
z
" id="DejaVuSans-111"/>
      <path d="M 41.109375 46.296875 
Q 39.59375 47.171875 37.8125 47.578125 
Q 36.03125 48 33.890625 48 
Q 26.265625 48 22.1875 43.046875 
Q 18.109375 38.09375 18.109375 28.8125 
L 18.109375 0 
L 9.078125 0 
L 9.078125 54.6875 
L 18.109375 54.6875 
L 18.109375 46.1875 
Q 20.953125 51.171875 25.484375 53.578125 
Q 30.03125 56 36.53125 56 
Q 37.453125 56 38.578125 55.875 
Q 39.703125 55.765625 41.0625 55.515625 
z
" id="DejaVuSans-114"/>
     </defs>
     <use xlink:href="#DejaVuSans-111"/>
     <use x="61.181641" xlink:href="#DejaVuSans-116"/>
     <use x="100.390625" xlink:href="#DejaVuSans-104"/>
     <use x="163.769531" xlink:href="#DejaVuSans-101"/>
     <use x="225.292969" xlink:href="#DejaVuSans-114"/>
    </g>
   </g>
   <g id="text_4">
    <!-- 11.0% -->
    <g transform="translate(94.709552 288.496349)scale(0.1 -0.1)">
     <defs>
      <path d="M 12.40625 8.296875 
L 28.515625 8.296875 
L 28.515625 63.921875 
L 10.984375 60.40625 
L 10.984375 69.390625 
L 28.421875 72.90625 
L 38.28125 72.90625 
L 38.28125 8.296875 
L 54.390625 8.296875 
L 54.390625 0 
L 12.40625 0 
z
" id="DejaVuSans-49"/>
      <path d="M 31.78125 66.40625 
Q 24.171875 66.40625 20.328125 58.90625 
Q 16.5 51.421875 16.5 36.375 
Q 16.5 21.390625 20.328125 13.890625 
Q 24.171875 6.390625 31.78125 6.390625 
Q 39.453125 6.390625 43.28125 13.890625 
Q 47.125 21.390625 47.125 36.375 
Q 47.125 51.421875 43.28125 58.90625 
Q 39.453125 66.40625 31.78125 66.40625 
z
M 31.78125 74.21875 
Q 44.046875 74.21875 50.515625 64.515625 
Q 56.984375 54.828125 56.984375 36.375 
Q 56.984375 17.96875 50.515625 8.265625 
Q 44.046875 -1.421875 31.78125 -1.421875 
Q 19.53125 -1.421875 13.0625 8.265625 
Q 6.59375 17.96875 6.59375 36.375 
Q 6.59375 54.828125 13.0625 64.515625 
Q 19.53125 74.21875 31.78125 74.21875 
z
" id="DejaVuSans-48"/>
     </defs>
     <use xlink:href="#DejaVuSans-49"/>
     <use x="63.623047" xlink:href="#DejaVuSans-49"/>
     <use x="127.246094" xlink:href="#DejaVuSans-46"/>
     <use x="159.033203" xlink:href="#DejaVuSans-48"/>
     <use x="222.65625" xlink:href="#DejaVuSans-37"/>
    </g>
   </g>
   <g id="text_5">
    <!-- asian -->
    <g transform="translate(138.943578 385.772824)scale(0.1 -0.1)">
     <defs>
      <path d="M 34.28125 27.484375 
Q 23.390625 27.484375 19.1875 25 
Q 14.984375 22.515625 14.984375 16.5 
Q 14.984375 11.71875 18.140625 8.90625 
Q 21.296875 6.109375 26.703125 6.109375 
Q 34.1875 6.109375 38.703125 11.40625 
Q 43.21875 16.703125 43.21875 25.484375 
L 43.21875 27.484375 
z
M 52.203125 31.203125 
L 52.203125 0 
L 43.21875 0 
L 43.21875 8.296875 
Q 40.140625 3.328125 35.546875 0.953125 
Q 30.953125 -1.421875 24.3125 -1.421875 
Q 15.921875 -1.421875 10.953125 3.296875 
Q 6 8.015625 6 15.921875 
Q 6 25.140625 12.171875 29.828125 
Q 18.359375 34.515625 30.609375 34.515625 
L 43.21875 34.515625 
L 43.21875 35.40625 
Q 43.21875 41.609375 39.140625 45 
Q 35.0625 48.390625 27.6875 48.390625 
Q 23 48.390625 18.546875 47.265625 
Q 14.109375 46.140625 10.015625 43.890625 
L 10.015625 52.203125 
Q 14.9375 54.109375 19.578125 55.046875 
Q 24.21875 56 28.609375 56 
Q 40.484375 56 46.34375 49.84375 
Q 52.203125 43.703125 52.203125 31.203125 
z
" id="DejaVuSans-97"/>
      <path d="M 44.28125 53.078125 
L 44.28125 44.578125 
Q 40.484375 46.53125 36.375 47.5 
Q 32.28125 48.484375 27.875 48.484375 
Q 21.1875 48.484375 17.84375 46.4375 
Q 14.5 44.390625 14.5 40.28125 
Q 14.5 37.15625 16.890625 35.375 
Q 19.28125 33.59375 26.515625 31.984375 
L 29.59375 31.296875 
Q 39.15625 29.25 43.1875 25.515625 
Q 47.21875 21.78125 47.21875 15.09375 
Q 47.21875 7.46875 41.1875 3.015625 
Q 35.15625 -1.421875 24.609375 -1.421875 
Q 20.21875 -1.421875 15.453125 -0.5625 
Q 10.6875 0.296875 5.421875 2 
L 5.421875 11.28125 
Q 10.40625 8.6875 15.234375 7.390625 
Q 20.0625 6.109375 24.8125 6.109375 
Q 31.15625 6.109375 34.5625 8.28125 
Q 37.984375 10.453125 37.984375 14.40625 
Q 37.984375 18.0625 35.515625 20.015625 
Q 33.0625 21.96875 24.703125 23.78125 
L 21.578125 24.515625 
Q 13.234375 26.265625 9.515625 29.90625 
Q 5.8125 33.546875 5.8125 39.890625 
Q 5.8125 47.609375 11.28125 51.796875 
Q 16.75 56 26.8125 56 
Q 31.78125 56 36.171875 55.265625 
Q 40.578125 54.546875 44.28125 53.078125 
z
" id="DejaVuSans-115"/>
      <path d="M 54.890625 33.015625 
L 54.890625 0 
L 45.90625 0 
L 45.90625 32.71875 
Q 45.90625 40.484375 42.875 44.328125 
Q 39.84375 48.1875 33.796875 48.1875 
Q 26.515625 48.1875 22.3125 43.546875 
Q 18.109375 38.921875 18.109375 30.90625 
L 18.109375 0 
L 9.078125 0 
L 9.078125 54.6875 
L 18.109375 54.6875 
L 18.109375 46.1875 
Q 21.34375 51.125 25.703125 53.5625 
Q 30.078125 56 35.796875 56 
Q 45.21875 56 50.046875 50.171875 
Q 54.890625 44.34375 54.890625 33.015625 
z
" id="DejaVuSans-110"/>
     </defs>
     <use xlink:href="#DejaVuSans-97"/>
     <use x="61.279297" xlink:href="#DejaVuSans-115"/>
     <use x="113.378906" xlink:href="#DejaVuSans-105"/>
     <use x="141.162109" xlink:href="#DejaVuSans-97"/>
     <use x="202.441406" xlink:href="#DejaVuSans-110"/>
    </g>
   </g>
   <g id="text_6">
    <!-- 10.2% -->
    <g transform="translate(163.016513 333.901517)scale(0.1 -0.1)">
     <defs>
      <path d="M 19.1875 8.296875 
L 53.609375 8.296875 
L 53.609375 0 
L 7.328125 0 
L 7.328125 8.296875 
Q 12.9375 14.109375 22.625 23.890625 
Q 32.328125 33.6875 34.8125 36.53125 
Q 39.546875 41.84375 41.421875 45.53125 
Q 43.3125 49.21875 43.3125 52.78125 
Q 43.3125 58.59375 39.234375 62.25 
Q 35.15625 65.921875 28.609375 65.921875 
Q 23.96875 65.921875 18.8125 64.3125 
Q 13.671875 62.703125 7.8125 59.421875 
L 7.8125 69.390625 
Q 13.765625 71.78125 18.9375 73 
Q 24.125 74.21875 28.421875 74.21875 
Q 39.75 74.21875 46.484375 68.546875 
Q 53.21875 62.890625 53.21875 53.421875 
Q 53.21875 48.921875 51.53125 44.890625 
Q 49.859375 40.875 45.40625 35.40625 
Q 44.1875 33.984375 37.640625 27.21875 
Q 31.109375 20.453125 19.1875 8.296875 
z
" id="DejaVuSans-50"/>
     </defs>
     <use xlink:href="#DejaVuSans-49"/>
     <use x="63.623047" xlink:href="#DejaVuSans-48"/>
     <use x="127.246094" xlink:href="#DejaVuSans-46"/>
     <use x="159.033203" xlink:href="#DejaVuSans-50"/>
     <use x="222.65625" xlink:href="#DejaVuSans-37"/>
    </g>
   </g>
   <g id="text_7">
    <!-- nan -->
    <g transform="translate(274.077831 379.576816)scale(0.1 -0.1)">
     <use xlink:href="#DejaVuSans-110"/>
     <use x="63.378906" xlink:href="#DejaVuSans-97"/>
     <use x="124.658203" xlink:href="#DejaVuSans-110"/>
    </g>
   </g>
   <g id="text_8">
    <!-- 9.4% -->
    <g transform="translate(242.184865 329.564311)scale(0.1 -0.1)">
     <defs>
      <path d="M 10.984375 1.515625 
L 10.984375 10.5 
Q 14.703125 8.734375 18.5 7.8125 
Q 22.3125 6.890625 25.984375 6.890625 
Q 35.75 6.890625 40.890625 13.453125 
Q 46.046875 20.015625 46.78125 33.40625 
Q 43.953125 29.203125 39.59375 26.953125 
Q 35.25 24.703125 29.984375 24.703125 
Q 19.046875 24.703125 12.671875 31.3125 
Q 6.296875 37.9375 6.296875 49.421875 
Q 6.296875 60.640625 12.9375 67.421875 
Q 19.578125 74.21875 30.609375 74.21875 
Q 43.265625 74.21875 49.921875 64.515625 
Q 56.59375 54.828125 56.59375 36.375 
Q 56.59375 19.140625 48.40625 8.859375 
Q 40.234375 -1.421875 26.421875 -1.421875 
Q 22.703125 -1.421875 18.890625 -0.6875 
Q 15.09375 0.046875 10.984375 1.515625 
z
M 30.609375 32.421875 
Q 37.25 32.421875 41.125 36.953125 
Q 45.015625 41.5 45.015625 49.421875 
Q 45.015625 57.28125 41.125 61.84375 
Q 37.25 66.40625 30.609375 66.40625 
Q 23.96875 66.40625 20.09375 61.84375 
Q 16.21875 57.28125 16.21875 49.421875 
Q 16.21875 41.5 20.09375 36.953125 
Q 23.96875 32.421875 30.609375 32.421875 
z
" id="DejaVuSans-57"/>
     </defs>
     <use xlink:href="#DejaVuSans-57"/>
     <use x="63.623047" xlink:href="#DejaVuSans-46"/>
     <use x="95.410156" xlink:href="#DejaVuSans-52"/>
     <use x="159.033203" xlink:href="#DejaVuSans-37"/>
    </g>
   </g>
   <g id="text_9">
    <!-- hispanic / latin -->
    <g transform="translate(339.563007 335.853657)scale(0.1 -0.1)">
     <defs>
      <path d="M 18.109375 8.203125 
L 18.109375 -20.796875 
L 9.078125 -20.796875 
L 9.078125 54.6875 
L 18.109375 54.6875 
L 18.109375 46.390625 
Q 20.953125 51.265625 25.265625 53.625 
Q 29.59375 56 35.59375 56 
Q 45.5625 56 51.78125 48.09375 
Q 58.015625 40.1875 58.015625 27.296875 
Q 58.015625 14.40625 51.78125 6.484375 
Q 45.5625 -1.421875 35.59375 -1.421875 
Q 29.59375 -1.421875 25.265625 0.953125 
Q 20.953125 3.328125 18.109375 8.203125 
z
M 48.6875 27.296875 
Q 48.6875 37.203125 44.609375 42.84375 
Q 40.53125 48.484375 33.40625 48.484375 
Q 26.265625 48.484375 22.1875 42.84375 
Q 18.109375 37.203125 18.109375 27.296875 
Q 18.109375 17.390625 22.1875 11.75 
Q 26.265625 6.109375 33.40625 6.109375 
Q 40.53125 6.109375 44.609375 11.75 
Q 48.6875 17.390625 48.6875 27.296875 
z
" id="DejaVuSans-112"/>
      <path d="M 48.78125 52.59375 
L 48.78125 44.1875 
Q 44.96875 46.296875 41.140625 47.34375 
Q 37.3125 48.390625 33.40625 48.390625 
Q 24.65625 48.390625 19.8125 42.84375 
Q 14.984375 37.3125 14.984375 27.296875 
Q 14.984375 17.28125 19.8125 11.734375 
Q 24.65625 6.203125 33.40625 6.203125 
Q 37.3125 6.203125 41.140625 7.25 
Q 44.96875 8.296875 48.78125 10.40625 
L 48.78125 2.09375 
Q 45.015625 0.34375 40.984375 -0.53125 
Q 36.96875 -1.421875 32.421875 -1.421875 
Q 20.0625 -1.421875 12.78125 6.34375 
Q 5.515625 14.109375 5.515625 27.296875 
Q 5.515625 40.671875 12.859375 48.328125 
Q 20.21875 56 33.015625 56 
Q 37.15625 56 41.109375 55.140625 
Q 45.0625 54.296875 48.78125 52.59375 
z
" id="DejaVuSans-99"/>
      <path id="DejaVuSans-32"/>
      <path d="M 25.390625 72.90625 
L 33.6875 72.90625 
L 8.296875 -9.28125 
L 0 -9.28125 
z
" id="DejaVuSans-47"/>
      <path d="M 9.421875 75.984375 
L 18.40625 75.984375 
L 18.40625 0 
L 9.421875 0 
z
" id="DejaVuSans-108"/>
     </defs>
     <use xlink:href="#DejaVuSans-104"/>
     <use x="63.378906" xlink:href="#DejaVuSans-105"/>
     <use x="91.162109" xlink:href="#DejaVuSans-115"/>
     <use x="143.261719" xlink:href="#DejaVuSans-112"/>
     <use x="206.738281" xlink:href="#DejaVuSans-97"/>
     <use x="268.017578" xlink:href="#DejaVuSans-110"/>
     <use x="331.396484" xlink:href="#DejaVuSans-105"/>
     <use x="359.179688" xlink:href="#DejaVuSans-99"/>
     <use x="414.160156" xlink:href="#DejaVuSans-32"/>
     <use x="445.947266" xlink:href="#DejaVuSans-47"/>
     <use x="479.638672" xlink:href="#DejaVuSans-32"/>
     <use x="511.425781" xlink:href="#DejaVuSans-108"/>
     <use x="539.208984" xlink:href="#DejaVuSans-97"/>
     <use x="600.488281" xlink:href="#DejaVuSans-116"/>
     <use x="639.697266" xlink:href="#DejaVuSans-105"/>
     <use x="667.480469" xlink:href="#DejaVuSans-110"/>
    </g>
   </g>
   <g id="text_10">
    <!-- 4.7% -->
    <g transform="translate(288.024489 298.958099)scale(0.1 -0.1)">
     <defs>
      <path d="M 8.203125 72.90625 
L 55.078125 72.90625 
L 55.078125 68.703125 
L 28.609375 0 
L 18.3125 0 
L 43.21875 64.59375 
L 8.203125 64.59375 
z
" id="DejaVuSans-55"/>
     </defs>
     <use xlink:href="#DejaVuSans-52"/>
     <use x="63.623047" xlink:href="#DejaVuSans-46"/>
     <use x="95.410156" xlink:href="#DejaVuSans-55"/>
     <use x="159.033203" xlink:href="#DejaVuSans-37"/>
    </g>
   </g>
   <g id="text_11">
    <!-- black -->
    <g transform="translate(366.22303 299.540905)scale(0.1 -0.1)">
     <defs>
      <path d="M 48.6875 27.296875 
Q 48.6875 37.203125 44.609375 42.84375 
Q 40.53125 48.484375 33.40625 48.484375 
Q 26.265625 48.484375 22.1875 42.84375 
Q 18.109375 37.203125 18.109375 27.296875 
Q 18.109375 17.390625 22.1875 11.75 
Q 26.265625 6.109375 33.40625 6.109375 
Q 40.53125 6.109375 44.609375 11.75 
Q 48.6875 17.390625 48.6875 27.296875 
z
M 18.109375 46.390625 
Q 20.953125 51.265625 25.265625 53.625 
Q 29.59375 56 35.59375 56 
Q 45.5625 56 51.78125 48.09375 
Q 58.015625 40.1875 58.015625 27.296875 
Q 58.015625 14.40625 51.78125 6.484375 
Q 45.5625 -1.421875 35.59375 -1.421875 
Q 29.59375 -1.421875 25.265625 0.953125 
Q 20.953125 3.328125 18.109375 8.203125 
L 18.109375 0 
L 9.078125 0 
L 9.078125 75.984375 
L 18.109375 75.984375 
z
" id="DejaVuSans-98"/>
      <path d="M 9.078125 75.984375 
L 18.109375 75.984375 
L 18.109375 31.109375 
L 44.921875 54.6875 
L 56.390625 54.6875 
L 27.390625 29.109375 
L 57.625 0 
L 45.90625 0 
L 18.109375 26.703125 
L 18.109375 0 
L 9.078125 0 
z
" id="DejaVuSans-107"/>
     </defs>
     <use xlink:href="#DejaVuSans-98"/>
     <use x="63.476562" xlink:href="#DejaVuSans-108"/>
     <use x="91.259766" xlink:href="#DejaVuSans-97"/>
     <use x="152.539062" xlink:href="#DejaVuSans-99"/>
     <use x="207.519531" xlink:href="#DejaVuSans-107"/>
    </g>
   </g>
   <g id="text_12">
    <!-- 3.3% -->
    <g transform="translate(306.686504 273.539173)scale(0.1 -0.1)">
     <defs>
      <path d="M 40.578125 39.3125 
Q 47.65625 37.796875 51.625 33 
Q 55.609375 28.21875 55.609375 21.1875 
Q 55.609375 10.40625 48.1875 4.484375 
Q 40.765625 -1.421875 27.09375 -1.421875 
Q 22.515625 -1.421875 17.65625 -0.515625 
Q 12.796875 0.390625 7.625 2.203125 
L 7.625 11.71875 
Q 11.71875 9.328125 16.59375 8.109375 
Q 21.484375 6.890625 26.8125 6.890625 
Q 36.078125 6.890625 40.9375 10.546875 
Q 45.796875 14.203125 45.796875 21.1875 
Q 45.796875 27.640625 41.28125 31.265625 
Q 36.765625 34.90625 28.71875 34.90625 
L 20.21875 34.90625 
L 20.21875 43.015625 
L 29.109375 43.015625 
Q 36.375 43.015625 40.234375 45.921875 
Q 44.09375 48.828125 44.09375 54.296875 
Q 44.09375 59.90625 40.109375 62.90625 
Q 36.140625 65.921875 28.71875 65.921875 
Q 24.65625 65.921875 20.015625 65.03125 
Q 15.375 64.15625 9.8125 62.3125 
L 9.8125 71.09375 
Q 15.4375 72.65625 20.34375 73.4375 
Q 25.25 74.21875 29.59375 74.21875 
Q 40.828125 74.21875 47.359375 69.109375 
Q 53.90625 64.015625 53.90625 55.328125 
Q 53.90625 49.265625 50.4375 45.09375 
Q 46.96875 40.921875 40.578125 39.3125 
z
" id="DejaVuSans-51"/>
     </defs>
     <use xlink:href="#DejaVuSans-51"/>
     <use x="63.623047" xlink:href="#DejaVuSans-46"/>
     <use x="95.410156" xlink:href="#DejaVuSans-51"/>
     <use x="159.033203" xlink:href="#DejaVuSans-37"/>
    </g>
   </g>
   <g id="text_13">
    <!-- hispanic / latin, white -->
    <g transform="translate(378.828771 271.326512)scale(0.1 -0.1)">
     <defs>
      <path d="M 11.71875 12.40625 
L 22.015625 12.40625 
L 22.015625 4 
L 14.015625 -11.625 
L 7.71875 -11.625 
L 11.71875 4 
z
" id="DejaVuSans-44"/>
     </defs>
     <use xlink:href="#DejaVuSans-104"/>
     <use x="63.378906" xlink:href="#DejaVuSans-105"/>
     <use x="91.162109" xlink:href="#DejaVuSans-115"/>
     <use x="143.261719" xlink:href="#DejaVuSans-112"/>
     <use x="206.738281" xlink:href="#DejaVuSans-97"/>
     <use x="268.017578" xlink:href="#DejaVuSans-110"/>
     <use x="331.396484" xlink:href="#DejaVuSans-105"/>
     <use x="359.179688" xlink:href="#DejaVuSans-99"/>
     <use x="414.160156" xlink:href="#DejaVuSans-32"/>
     <use x="445.947266" xlink:href="#DejaVuSans-47"/>
     <use x="479.638672" xlink:href="#DejaVuSans-32"/>
     <use x="511.425781" xlink:href="#DejaVuSans-108"/>
     <use x="539.208984" xlink:href="#DejaVuSans-97"/>
     <use x="600.488281" xlink:href="#DejaVuSans-116"/>
     <use x="639.697266" xlink:href="#DejaVuSans-105"/>
     <use x="667.480469" xlink:href="#DejaVuSans-110"/>
     <use x="730.859375" xlink:href="#DejaVuSans-44"/>
     <use x="762.646484" xlink:href="#DejaVuSans-32"/>
     <use x="794.433594" xlink:href="#DejaVuSans-119"/>
     <use x="876.220703" xlink:href="#DejaVuSans-104"/>
     <use x="939.599609" xlink:href="#DejaVuSans-105"/>
     <use x="967.382812" xlink:href="#DejaVuSans-116"/>
     <use x="1006.591797" xlink:href="#DejaVuSans-101"/>
    </g>
   </g>
   <g id="text_14">
    <!-- 2.2% -->
    <g transform="translate(315.510523 253.789098)scale(0.1 -0.1)">
     <use xlink:href="#DejaVuSans-50"/>
     <use x="63.623047" xlink:href="#DejaVuSans-46"/>
     <use x="95.410156" xlink:href="#DejaVuSans-50"/>
     <use x="159.033203" xlink:href="#DejaVuSans-37"/>
    </g>
   </g>
   <g id="text_15">
    <!-- indian -->
    <g transform="translate(384.787383 249.897751)scale(0.1 -0.1)">
     <defs>
      <path d="M 45.40625 46.390625 
L 45.40625 75.984375 
L 54.390625 75.984375 
L 54.390625 0 
L 45.40625 0 
L 45.40625 8.203125 
Q 42.578125 3.328125 38.25 0.953125 
Q 33.9375 -1.421875 27.875 -1.421875 
Q 17.96875 -1.421875 11.734375 6.484375 
Q 5.515625 14.40625 5.515625 27.296875 
Q 5.515625 40.1875 11.734375 48.09375 
Q 17.96875 56 27.875 56 
Q 33.9375 56 38.25 53.625 
Q 42.578125 51.265625 45.40625 46.390625 
z
M 14.796875 27.296875 
Q 14.796875 17.390625 18.875 11.75 
Q 22.953125 6.109375 30.078125 6.109375 
Q 37.203125 6.109375 41.296875 11.75 
Q 45.40625 17.390625 45.40625 27.296875 
Q 45.40625 37.203125 41.296875 42.84375 
Q 37.203125 48.484375 30.078125 48.484375 
Q 22.953125 48.484375 18.875 42.84375 
Q 14.796875 37.203125 14.796875 27.296875 
z
" id="DejaVuSans-100"/>
     </defs>
     <use xlink:href="#DejaVuSans-105"/>
     <use x="27.783203" xlink:href="#DejaVuSans-110"/>
     <use x="91.162109" xlink:href="#DejaVuSans-100"/>
     <use x="154.638672" xlink:href="#DejaVuSans-105"/>
     <use x="182.421875" xlink:href="#DejaVuSans-97"/>
     <use x="243.701172" xlink:href="#DejaVuSans-110"/>
    </g>
   </g>
   <g id="text_16">
    <!-- 1.8% -->
    <g transform="translate(319.681551 238.788965)scale(0.1 -0.1)">
     <use xlink:href="#DejaVuSans-49"/>
     <use x="63.623047" xlink:href="#DejaVuSans-46"/>
     <use x="95.410156" xlink:href="#DejaVuSans-56"/>
     <use x="159.033203" xlink:href="#DejaVuSans-37"/>
    </g>
   </g>
   <g id="text_17">
    <!-- asian, white -->
    <g transform="translate(387.593214 232.440378)scale(0.1 -0.1)">
     <use xlink:href="#DejaVuSans-97"/>
     <use x="61.279297" xlink:href="#DejaVuSans-115"/>
     <use x="113.378906" xlink:href="#DejaVuSans-105"/>
     <use x="141.162109" xlink:href="#DejaVuSans-97"/>
     <use x="202.441406" xlink:href="#DejaVuSans-110"/>
     <use x="265.820312" xlink:href="#DejaVuSans-44"/>
     <use x="297.607422" xlink:href="#DejaVuSans-32"/>
     <use x="329.394531" xlink:href="#DejaVuSans-119"/>
     <use x="411.181641" xlink:href="#DejaVuSans-104"/>
     <use x="474.560547" xlink:href="#DejaVuSans-105"/>
     <use x="502.34375" xlink:href="#DejaVuSans-116"/>
     <use x="541.552734" xlink:href="#DejaVuSans-101"/>
    </g>
   </g>
   <g id="text_18">
    <!-- 1.4% -->
    <g transform="translate(321.645633 226.568805)scale(0.1 -0.1)">
     <use xlink:href="#DejaVuSans-49"/>
     <use x="63.623047" xlink:href="#DejaVuSans-46"/>
     <use x="95.410156" xlink:href="#DejaVuSans-52"/>
     <use x="159.033203" xlink:href="#DejaVuSans-37"/>
    </g>
   </g>
   <g id="text_19">
    <!-- white, other -->
    <g transform="translate(388.567895 218.879207)scale(0.1 -0.1)">
     <use xlink:href="#DejaVuSans-119"/>
     <use x="81.787109" xlink:href="#DejaVuSans-104"/>
     <use x="145.166016" xlink:href="#DejaVuSans-105"/>
     <use x="172.949219" xlink:href="#DejaVuSans-116"/>
     <use x="212.158203" xlink:href="#DejaVuSans-101"/>
     <use x="273.681641" xlink:href="#DejaVuSans-44"/>
     <use x="305.46875" xlink:href="#DejaVuSans-32"/>
     <use x="337.255859" xlink:href="#DejaVuSans-111"/>
     <use x="398.4375" xlink:href="#DejaVuSans-116"/>
     <use x="437.646484" xlink:href="#DejaVuSans-104"/>
     <use x="501.025391" xlink:href="#DejaVuSans-101"/>
     <use x="562.548828" xlink:href="#DejaVuSans-114"/>
    </g>
   </g>
   <g id="text_20">
    <!-- 1.1% -->
    <g transform="translate(322.32791 217.075985)scale(0.1 -0.1)">
     <use xlink:href="#DejaVuSans-49"/>
     <use x="63.623047" xlink:href="#DejaVuSans-46"/>
     <use x="95.410156" xlink:href="#DejaVuSans-49"/>
     <use x="159.033203" xlink:href="#DejaVuSans-37"/>
    </g>
   </g>
   <g id="text_21">
    <!-- ethnicity -->
    <g transform="translate(166.466903 215.627841)scale(0.2 -0.2)">
     <defs>
      <path d="M 32.171875 -5.078125 
Q 28.375 -14.84375 24.75 -17.8125 
Q 21.140625 -20.796875 15.09375 -20.796875 
L 7.90625 -20.796875 
L 7.90625 -13.28125 
L 13.1875 -13.28125 
Q 16.890625 -13.28125 18.9375 -11.515625 
Q 21 -9.765625 23.484375 -3.21875 
L 25.09375 0.875 
L 2.984375 54.6875 
L 12.5 54.6875 
L 29.59375 11.921875 
L 46.6875 54.6875 
L 56.203125 54.6875 
z
" id="DejaVuSans-121"/>
     </defs>
     <use xlink:href="#DejaVuSans-101"/>
     <use x="61.523438" xlink:href="#DejaVuSans-116"/>
     <use x="100.732422" xlink:href="#DejaVuSans-104"/>
     <use x="164.111328" xlink:href="#DejaVuSans-110"/>
     <use x="227.490234" xlink:href="#DejaVuSans-105"/>
     <use x="255.273438" xlink:href="#DejaVuSans-99"/>
     <use x="310.253906" xlink:href="#DejaVuSans-105"/>
     <use x="338.037109" xlink:href="#DejaVuSans-116"/>
     <use x="377.246094" xlink:href="#DejaVuSans-121"/>
    </g>
   </g>
  </g>
  <g id="axes_2">
   <g id="patch_12">
    <path d="M 859.418182 210.109091 
C 859.418182 184.149473 853.190931 158.56466 841.260743 135.508806 
C 829.330555 112.452953 812.041925 92.591819 790.850499 77.597647 
L 781.47454 90.848791 
C 800.546824 104.343547 816.10659 122.218567 826.84376 142.968835 
C 837.580929 163.719103 843.185455 186.745435 843.185455 210.109091 
L 859.418182 210.109091 
z
" style="fill:#1f77b4;stroke:#000000;stroke-linejoin:miter;stroke-width:0.7;"/>
   </g>
   <g id="patch_13">
    <path d="M 790.850499 77.597647 
C 771.823112 64.134659 750.117307 54.926495 727.213482 50.601179 
C 704.309658 46.275863 680.74063 46.934015 658.113873 52.530748 
L 662.011577 68.288582 
C 682.375658 63.251523 703.587783 62.659186 724.201225 66.55197 
C 744.814667 70.444754 764.349891 78.732102 781.47454 90.848791 
L 790.850499 77.597647 
z
" style="fill:#aec7e8;stroke:#000000;stroke-linejoin:miter;stroke-width:0.7;"/>
   </g>
   <g id="patch_14">
    <path d="M 658.113873 52.530748 
C 644.673341 55.855267 631.71321 60.885767 619.549436 67.499612 
C 607.385662 74.113457 596.117901 82.25646 586.020849 91.730101 
L 597.127855 103.568 
C 606.215201 95.041723 616.356186 87.713021 627.303583 81.76056 
C 638.25098 75.8081 649.915097 71.280649 662.011577 68.288582 
L 658.113873 52.530748 
z
" style="fill:#ff7f0e;stroke:#000000;stroke-linejoin:miter;stroke-width:0.7;"/>
   </g>
   <g id="patch_15">
    <path d="M 586.020849 91.730101 
C 575.971661 101.158835 567.163856 111.828922 559.810144 123.482681 
C 552.456431 135.136439 546.616488 147.679296 542.431349 160.80834 
L 557.897305 165.738415 
C 561.66393 153.922275 566.919879 142.633705 573.53822 132.145322 
C 580.156562 121.656939 588.083586 112.05386 597.127855 103.568 
L 586.020849 91.730101 
z
" style="fill:#ffbb78;stroke:#000000;stroke-linejoin:miter;stroke-width:0.7;"/>
   </g>
   <g id="patch_16">
    <path d="M 542.431349 160.80834 
C 538.368395 173.554082 535.896574 186.753337 535.072167 200.105561 
C 534.24776 213.457786 535.077073 226.860863 537.541222 240.009608 
L 553.496191 237.019556 
C 551.278456 225.185685 550.532075 213.122916 551.274041 201.105914 
C 552.016007 189.088912 554.240647 177.209583 557.897305 165.738415 
L 542.431349 160.80834 
z
" style="fill:#2ca02c;stroke:#000000;stroke-linejoin:miter;stroke-width:0.7;"/>
   </g>
   <g id="patch_17">
    <path d="M 537.541222 240.009608 
C 539.861415 252.390199 543.61479 264.458761 548.72552 275.971483 
C 553.836249 287.484205 560.269685 298.363033 567.895857 308.388193 
L 580.815362 298.560283 
C 573.951807 289.537639 568.161715 279.746693 563.562059 269.385244 
C 558.962402 259.023794 555.584365 248.162088 553.496191 237.019556 
L 537.541222 240.009608 
z
" style="fill:#98df8a;stroke:#000000;stroke-linejoin:miter;stroke-width:0.7;"/>
   </g>
   <g id="patch_18">
    <path d="M 567.895857 308.388193 
C 575.454697 318.32484 584.134735 327.356347 593.76368 335.303449 
C 603.392625 343.25055 613.906345 350.060314 625.096152 355.597573 
L 632.295628 341.048725 
C 622.224802 336.065192 612.762454 329.936404 604.096403 322.784013 
C 595.430352 315.631622 587.618318 307.503265 580.815362 298.560283 
L 567.895857 308.388193 
z
" style="fill:#d62728;stroke:#000000;stroke-linejoin:miter;stroke-width:0.7;"/>
   </g>
   <g id="patch_19">
    <path d="M 625.096152 355.597573 
C 634.467209 360.234826 644.264419 363.955853 654.351159 366.708763 
C 664.437899 369.461672 674.767062 371.233608 685.194607 371.999861 
L 686.384237 355.810784 
C 676.999447 355.121157 667.7032 353.526414 658.625134 351.048796 
C 649.547068 348.571177 640.729579 345.222253 632.295628 341.048725 
L 625.096152 355.597573 
z
" style="fill:#ff9896;stroke:#000000;stroke-linejoin:miter;stroke-width:0.7;"/>
   </g>
   <g id="patch_20">
    <path d="M 685.194607 371.999861 
C 695.142064 372.730835 705.135757 372.543416 715.048812 371.439984 
C 724.961867 370.336552 734.752157 368.321796 744.295391 365.421294 
L 739.574943 349.890074 
C 730.986032 352.500526 722.174771 354.313806 713.253022 355.306895 
C 704.331272 356.299984 695.336948 356.468661 686.384237 355.810784 
L 685.194607 371.999861 
z
" style="fill:#9467bd;stroke:#000000;stroke-linejoin:miter;stroke-width:0.7;"/>
   </g>
   <g id="patch_21">
    <path d="M 744.295391 365.421294 
C 750.73943 363.462738 757.055335 361.105027 763.206472 358.361834 
C 769.357609 355.618641 775.332061 352.495281 781.095177 349.00987 
L 772.69475 335.119792 
C 767.507946 338.256662 762.130939 341.067686 756.594916 343.53656 
C 751.058893 346.005433 745.374578 348.127374 739.574943 349.890074 
L 744.295391 365.421294 
z
" style="fill:#c5b0d5;stroke:#000000;stroke-linejoin:miter;stroke-width:0.7;"/>
   </g>
   <g id="patch_22">
    <path d="M 781.095177 349.00987 
C 786.602703 345.679034 791.907252 342.023578 796.98072 338.062868 
C 802.054189 334.102158 806.887602 329.8432 811.455353 325.308559 
L 800.018908 313.788612 
C 795.907933 317.869789 791.557861 321.702851 786.991739 325.26749 
C 782.425617 328.832129 777.651523 332.12204 772.69475 335.119792 
L 781.095177 349.00987 
z
" style="fill:#8c564b;stroke:#000000;stroke-linejoin:miter;stroke-width:0.7;"/>
   </g>
   <g id="patch_23">
    <path d="M 811.455353 325.308559 
C 815.980709 320.816005 820.237417 316.060698 824.20334 311.067366 
C 828.169263 306.074035 831.837515 300.851351 835.189019 295.426471 
L 821.379208 286.894733 
C 818.362854 291.777125 815.061428 296.477541 811.492097 300.971539 
C 807.922766 305.465537 804.091729 309.745313 800.018908 313.788612 
L 811.455353 325.308559 
z
" style="fill:#c49c94;stroke:#000000;stroke-linejoin:miter;stroke-width:0.7;"/>
   </g>
   <g id="patch_24">
    <path d="M 835.189019 295.426471 
C 837.247665 292.094265 839.185032 288.688639 840.997313 285.216283 
C 842.809595 281.743927 844.495605 278.207114 846.052032 274.612791 
L 831.15592 268.162421 
C 829.755135 271.397312 828.237726 274.580443 826.606673 277.705564 
C 824.975619 280.830684 823.23199 283.895747 821.379208 286.894733 
L 835.189019 295.426471 
z
" style="fill:#e377c2;stroke:#000000;stroke-linejoin:miter;stroke-width:0.7;"/>
   </g>
   <g id="patch_25">
    <path d="M 846.052032 274.612791 
C 847.590384 271.060211 849.001154 267.453735 850.281638 263.800282 
C 851.562122 260.14683 852.711498 256.448739 853.727563 252.713105 
L 838.063898 248.452704 
C 837.149439 251.814774 836.115 255.143056 834.962565 258.431163 
C 833.81013 261.71927 832.540436 264.965099 831.15592 268.162421 
L 846.052032 274.612791 
z
" style="fill:#f7b6d2;stroke:#000000;stroke-linejoin:miter;stroke-width:0.7;"/>
   </g>
   <g id="patch_26">
    <path d="M 853.727563 252.713105 
C 854.487711 249.918367 855.172927 247.103786 855.782474 244.272384 
C 856.392022 241.440982 856.925682 238.593774 857.382883 235.733817 
L 841.353686 233.171344 
C 840.942205 235.745305 840.46191 238.307793 839.913318 240.856055 
C 839.364725 243.404316 838.748031 245.93744 838.063898 248.452704 
L 853.727563 252.713105 
z
" style="fill:#7f7f7f;stroke:#000000;stroke-linejoin:miter;stroke-width:0.7;"/>
   </g>
   <g id="patch_27">
    <path d="M 857.382883 235.733817 
C 857.744059 233.47453 858.057428 231.20786 858.322781 228.935325 
C 858.588133 226.66279 858.805409 224.384899 858.974464 222.103179 
L 842.786108 220.90377 
C 842.633959 222.957318 842.438411 225.00742 842.199593 227.052701 
C 841.960776 229.097983 841.678744 231.137986 841.353686 233.171344 
L 857.382883 235.733817 
z
" style="fill:#c7c7c7;stroke:#000000;stroke-linejoin:miter;stroke-width:0.7;"/>
   </g>
   <g id="patch_28">
    <path d="M 858.974464 222.103179 
C 859.122307 220.107755 859.233242 218.109767 859.307214 216.110241 
C 859.381186 214.110715 859.418182 212.109992 859.418182 210.109098 
L 843.185455 210.109097 
C 843.185454 211.909902 843.152159 213.710552 843.085584 215.510126 
C 843.019009 217.309699 842.919167 219.107888 842.786108 220.90377 
L 858.974464 222.103179 
z
" style="fill:#bcbd22;stroke:#000000;stroke-linejoin:miter;stroke-width:0.7;"/>
   </g>
   <g id="matplotlib.axis_3"/>
   <g id="matplotlib.axis_4"/>
   <g id="text_22">
    <!-- other -->
    <g transform="translate(855.677726 130.808153)scale(0.1 -0.1)">
     <use xlink:href="#DejaVuSans-111"/>
     <use x="61.181641" xlink:href="#DejaVuSans-116"/>
     <use x="100.390625" xlink:href="#DejaVuSans-104"/>
     <use x="163.769531" xlink:href="#DejaVuSans-101"/>
     <use x="225.292969" xlink:href="#DejaVuSans-114"/>
    </g>
   </g>
   <g id="text_23">
    <!-- 15.2% -->
    <g transform="translate(792.218087 155.426247)scale(0.1 -0.1)">
     <use xlink:href="#DejaVuSans-49"/>
     <use x="63.623047" xlink:href="#DejaVuSans-53"/>
     <use x="127.246094" xlink:href="#DejaVuSans-46"/>
     <use x="159.033203" xlink:href="#DejaVuSans-50"/>
     <use x="222.65625" xlink:href="#DejaVuSans-37"/>
    </g>
   </g>
   <g id="text_24">
    <!-- nan -->
    <g transform="translate(730.22574 37.409762)scale(0.1 -0.1)">
     <use xlink:href="#DejaVuSans-110"/>
     <use x="63.378906" xlink:href="#DejaVuSans-97"/>
     <use x="124.658203" xlink:href="#DejaVuSans-110"/>
    </g>
   </g>
   <g id="text_25">
    <!-- 13.7% -->
    <g transform="translate(704.401697 90.047374)scale(0.1 -0.1)">
     <use xlink:href="#DejaVuSans-49"/>
     <use x="63.623047" xlink:href="#DejaVuSans-51"/>
     <use x="127.246094" xlink:href="#DejaVuSans-46"/>
     <use x="159.033203" xlink:href="#DejaVuSans-55"/>
     <use x="222.65625" xlink:href="#DejaVuSans-37"/>
    </g>
   </g>
   <g id="text_26">
    <!-- student -->
    <g transform="translate(573.568726 55.998039)scale(0.1 -0.1)">
     <defs>
      <path d="M 8.5 21.578125 
L 8.5 54.6875 
L 17.484375 54.6875 
L 17.484375 21.921875 
Q 17.484375 14.15625 20.5 10.265625 
Q 23.53125 6.390625 29.59375 6.390625 
Q 36.859375 6.390625 41.078125 11.03125 
Q 45.3125 15.671875 45.3125 23.6875 
L 45.3125 54.6875 
L 54.296875 54.6875 
L 54.296875 0 
L 45.3125 0 
L 45.3125 8.40625 
Q 42.046875 3.421875 37.71875 1 
Q 33.40625 -1.421875 27.6875 -1.421875 
Q 18.265625 -1.421875 13.375 4.4375 
Q 8.5 10.296875 8.5 21.578125 
z
M 31.109375 56 
z
" id="DejaVuSans-117"/>
     </defs>
     <use xlink:href="#DejaVuSans-115"/>
     <use x="52.099609" xlink:href="#DejaVuSans-116"/>
     <use x="91.308594" xlink:href="#DejaVuSans-117"/>
     <use x="154.6875" xlink:href="#DejaVuSans-100"/>
     <use x="218.164062" xlink:href="#DejaVuSans-101"/>
     <use x="279.6875" xlink:href="#DejaVuSans-110"/>
     <use x="343.066406" xlink:href="#DejaVuSans-116"/>
    </g>
   </g>
   <g id="text_27">
    <!-- 8.1% -->
    <g transform="translate(624.681631 103.059167)scale(0.1 -0.1)">
     <use xlink:href="#DejaVuSans-56"/>
     <use x="63.623047" xlink:href="#DejaVuSans-46"/>
     <use x="95.410156" xlink:href="#DejaVuSans-49"/>
     <use x="159.033203" xlink:href="#DejaVuSans-37"/>
    </g>
   </g>
   <g id="text_28">
    <!-- science / tech / engineering -->
    <g transform="translate(407.25863 117.579415)scale(0.1 -0.1)">
     <defs>
      <path d="M 45.40625 27.984375 
Q 45.40625 37.75 41.375 43.109375 
Q 37.359375 48.484375 30.078125 48.484375 
Q 22.859375 48.484375 18.828125 43.109375 
Q 14.796875 37.75 14.796875 27.984375 
Q 14.796875 18.265625 18.828125 12.890625 
Q 22.859375 7.515625 30.078125 7.515625 
Q 37.359375 7.515625 41.375 12.890625 
Q 45.40625 18.265625 45.40625 27.984375 
z
M 54.390625 6.78125 
Q 54.390625 -7.171875 48.1875 -13.984375 
Q 42 -20.796875 29.203125 -20.796875 
Q 24.46875 -20.796875 20.265625 -20.09375 
Q 16.0625 -19.390625 12.109375 -17.921875 
L 12.109375 -9.1875 
Q 16.0625 -11.328125 19.921875 -12.34375 
Q 23.78125 -13.375 27.78125 -13.375 
Q 36.625 -13.375 41.015625 -8.765625 
Q 45.40625 -4.15625 45.40625 5.171875 
L 45.40625 9.625 
Q 42.625 4.78125 38.28125 2.390625 
Q 33.9375 0 27.875 0 
Q 17.828125 0 11.671875 7.65625 
Q 5.515625 15.328125 5.515625 27.984375 
Q 5.515625 40.671875 11.671875 48.328125 
Q 17.828125 56 27.875 56 
Q 33.9375 56 38.28125 53.609375 
Q 42.625 51.21875 45.40625 46.390625 
L 45.40625 54.6875 
L 54.390625 54.6875 
z
" id="DejaVuSans-103"/>
     </defs>
     <use xlink:href="#DejaVuSans-115"/>
     <use x="52.099609" xlink:href="#DejaVuSans-99"/>
     <use x="107.080078" xlink:href="#DejaVuSans-105"/>
     <use x="134.863281" xlink:href="#DejaVuSans-101"/>
     <use x="196.386719" xlink:href="#DejaVuSans-110"/>
     <use x="259.765625" xlink:href="#DejaVuSans-99"/>
     <use x="314.746094" xlink:href="#DejaVuSans-101"/>
     <use x="376.269531" xlink:href="#DejaVuSans-32"/>
     <use x="408.056641" xlink:href="#DejaVuSans-47"/>
     <use x="441.748047" xlink:href="#DejaVuSans-32"/>
     <use x="473.535156" xlink:href="#DejaVuSans-116"/>
     <use x="512.744141" xlink:href="#DejaVuSans-101"/>
     <use x="574.267578" xlink:href="#DejaVuSans-99"/>
     <use x="629.248047" xlink:href="#DejaVuSans-104"/>
     <use x="692.626953" xlink:href="#DejaVuSans-32"/>
     <use x="724.414062" xlink:href="#DejaVuSans-47"/>
     <use x="758.105469" xlink:href="#DejaVuSans-32"/>
     <use x="789.892578" xlink:href="#DejaVuSans-101"/>
     <use x="851.416016" xlink:href="#DejaVuSans-110"/>
     <use x="914.794922" xlink:href="#DejaVuSans-103"/>
     <use x="978.271484" xlink:href="#DejaVuSans-105"/>
     <use x="1006.054688" xlink:href="#DejaVuSans-110"/>
     <use x="1069.433594" xlink:href="#DejaVuSans-101"/>
     <use x="1130.957031" xlink:href="#DejaVuSans-101"/>
     <use x="1192.480469" xlink:href="#DejaVuSans-114"/>
     <use x="1233.59375" xlink:href="#DejaVuSans-105"/>
     <use x="1261.376953" xlink:href="#DejaVuSans-110"/>
     <use x="1324.755859" xlink:href="#DejaVuSans-103"/>
    </g>
   </g>
   <g id="text_29">
    <!-- 8.1% -->
    <g transform="translate(578.682376 146.16613)scale(0.1 -0.1)">
     <use xlink:href="#DejaVuSans-56"/>
     <use x="63.623047" xlink:href="#DejaVuSans-46"/>
     <use x="95.410156" xlink:href="#DejaVuSans-49"/>
     <use x="159.033203" xlink:href="#DejaVuSans-37"/>
    </g>
   </g>
   <g id="text_30">
    <!-- computer / hardware / software -->
    <g transform="translate(361.157793 201.864583)scale(0.1 -0.1)">
     <defs>
      <path d="M 52 44.1875 
Q 55.375 50.25 60.0625 53.125 
Q 64.75 56 71.09375 56 
Q 79.640625 56 84.28125 50.015625 
Q 88.921875 44.046875 88.921875 33.015625 
L 88.921875 0 
L 79.890625 0 
L 79.890625 32.71875 
Q 79.890625 40.578125 77.09375 44.375 
Q 74.3125 48.1875 68.609375 48.1875 
Q 61.625 48.1875 57.5625 43.546875 
Q 53.515625 38.921875 53.515625 30.90625 
L 53.515625 0 
L 44.484375 0 
L 44.484375 32.71875 
Q 44.484375 40.625 41.703125 44.40625 
Q 38.921875 48.1875 33.109375 48.1875 
Q 26.21875 48.1875 22.15625 43.53125 
Q 18.109375 38.875 18.109375 30.90625 
L 18.109375 0 
L 9.078125 0 
L 9.078125 54.6875 
L 18.109375 54.6875 
L 18.109375 46.1875 
Q 21.1875 51.21875 25.484375 53.609375 
Q 29.78125 56 35.6875 56 
Q 41.65625 56 45.828125 52.96875 
Q 50 49.953125 52 44.1875 
z
" id="DejaVuSans-109"/>
      <path d="M 37.109375 75.984375 
L 37.109375 68.5 
L 28.515625 68.5 
Q 23.6875 68.5 21.796875 66.546875 
Q 19.921875 64.59375 19.921875 59.515625 
L 19.921875 54.6875 
L 34.71875 54.6875 
L 34.71875 47.703125 
L 19.921875 47.703125 
L 19.921875 0 
L 10.890625 0 
L 10.890625 47.703125 
L 2.296875 47.703125 
L 2.296875 54.6875 
L 10.890625 54.6875 
L 10.890625 58.5 
Q 10.890625 67.625 15.140625 71.796875 
Q 19.390625 75.984375 28.609375 75.984375 
z
" id="DejaVuSans-102"/>
     </defs>
     <use xlink:href="#DejaVuSans-99"/>
     <use x="54.980469" xlink:href="#DejaVuSans-111"/>
     <use x="116.162109" xlink:href="#DejaVuSans-109"/>
     <use x="213.574219" xlink:href="#DejaVuSans-112"/>
     <use x="277.050781" xlink:href="#DejaVuSans-117"/>
     <use x="340.429688" xlink:href="#DejaVuSans-116"/>
     <use x="379.638672" xlink:href="#DejaVuSans-101"/>
     <use x="441.162109" xlink:href="#DejaVuSans-114"/>
     <use x="482.275391" xlink:href="#DejaVuSans-32"/>
     <use x="514.0625" xlink:href="#DejaVuSans-47"/>
     <use x="547.753906" xlink:href="#DejaVuSans-32"/>
     <use x="579.541016" xlink:href="#DejaVuSans-104"/>
     <use x="642.919922" xlink:href="#DejaVuSans-97"/>
     <use x="704.199219" xlink:href="#DejaVuSans-114"/>
     <use x="743.5625" xlink:href="#DejaVuSans-100"/>
     <use x="807.039062" xlink:href="#DejaVuSans-119"/>
     <use x="888.826172" xlink:href="#DejaVuSans-97"/>
     <use x="950.105469" xlink:href="#DejaVuSans-114"/>
     <use x="988.96875" xlink:href="#DejaVuSans-101"/>
     <use x="1050.492188" xlink:href="#DejaVuSans-32"/>
     <use x="1082.279297" xlink:href="#DejaVuSans-47"/>
     <use x="1115.970703" xlink:href="#DejaVuSans-32"/>
     <use x="1147.757812" xlink:href="#DejaVuSans-115"/>
     <use x="1199.857422" xlink:href="#DejaVuSans-111"/>
     <use x="1261.039062" xlink:href="#DejaVuSans-102"/>
     <use x="1294.494141" xlink:href="#DejaVuSans-116"/>
     <use x="1333.703125" xlink:href="#DejaVuSans-119"/>
     <use x="1415.490234" xlink:href="#DejaVuSans-97"/>
     <use x="1476.769531" xlink:href="#DejaVuSans-114"/>
     <use x="1515.632812" xlink:href="#DejaVuSans-101"/>
    </g>
   </g>
   <g id="text_31">
    <!-- 7.9% -->
    <g transform="translate(559.634134 205.165748)scale(0.1 -0.1)">
     <use xlink:href="#DejaVuSans-55"/>
     <use x="63.623047" xlink:href="#DejaVuSans-46"/>
     <use x="95.410156" xlink:href="#DejaVuSans-57"/>
     <use x="159.033203" xlink:href="#DejaVuSans-37"/>
    </g>
   </g>
   <g id="text_32">
    <!-- artistic / musical / writer -->
    <g transform="translate(412.373356 285.317097)scale(0.1 -0.1)">
     <use xlink:href="#DejaVuSans-97"/>
     <use x="61.279297" xlink:href="#DejaVuSans-114"/>
     <use x="102.392578" xlink:href="#DejaVuSans-116"/>
     <use x="141.601562" xlink:href="#DejaVuSans-105"/>
     <use x="169.384766" xlink:href="#DejaVuSans-115"/>
     <use x="221.484375" xlink:href="#DejaVuSans-116"/>
     <use x="260.693359" xlink:href="#DejaVuSans-105"/>
     <use x="288.476562" xlink:href="#DejaVuSans-99"/>
     <use x="343.457031" xlink:href="#DejaVuSans-32"/>
     <use x="375.244141" xlink:href="#DejaVuSans-47"/>
     <use x="408.935547" xlink:href="#DejaVuSans-32"/>
     <use x="440.722656" xlink:href="#DejaVuSans-109"/>
     <use x="538.134766" xlink:href="#DejaVuSans-117"/>
     <use x="601.513672" xlink:href="#DejaVuSans-115"/>
     <use x="653.613281" xlink:href="#DejaVuSans-105"/>
     <use x="681.396484" xlink:href="#DejaVuSans-99"/>
     <use x="736.376953" xlink:href="#DejaVuSans-97"/>
     <use x="797.65625" xlink:href="#DejaVuSans-108"/>
     <use x="825.439453" xlink:href="#DejaVuSans-32"/>
     <use x="857.226562" xlink:href="#DejaVuSans-47"/>
     <use x="890.917969" xlink:href="#DejaVuSans-32"/>
     <use x="922.705078" xlink:href="#DejaVuSans-119"/>
     <use x="1004.492188" xlink:href="#DejaVuSans-114"/>
     <use x="1045.605469" xlink:href="#DejaVuSans-105"/>
     <use x="1073.388672" xlink:href="#DejaVuSans-116"/>
     <use x="1112.597656" xlink:href="#DejaVuSans-101"/>
     <use x="1174.121094" xlink:href="#DejaVuSans-114"/>
    </g>
   </g>
   <g id="text_33">
    <!-- 7.4% -->
    <g transform="translate(570.147215 263.582508)scale(0.1 -0.1)">
     <use xlink:href="#DejaVuSans-55"/>
     <use x="63.623047" xlink:href="#DejaVuSans-46"/>
     <use x="95.410156" xlink:href="#DejaVuSans-52"/>
     <use x="159.033203" xlink:href="#DejaVuSans-37"/>
    </g>
   </g>
   <g id="text_34">
    <!-- sales / marketing / biz dev -->
    <g transform="translate(451.584082 350.582259)scale(0.1 -0.1)">
     <defs>
      <path d="M 5.515625 54.6875 
L 48.1875 54.6875 
L 48.1875 46.484375 
L 14.40625 7.171875 
L 48.1875 7.171875 
L 48.1875 0 
L 4.296875 0 
L 4.296875 8.203125 
L 38.09375 47.515625 
L 5.515625 47.515625 
z
" id="DejaVuSans-122"/>
      <path d="M 2.984375 54.6875 
L 12.5 54.6875 
L 29.59375 8.796875 
L 46.6875 54.6875 
L 56.203125 54.6875 
L 35.6875 0 
L 23.484375 0 
z
" id="DejaVuSans-118"/>
     </defs>
     <use xlink:href="#DejaVuSans-115"/>
     <use x="52.099609" xlink:href="#DejaVuSans-97"/>
     <use x="113.378906" xlink:href="#DejaVuSans-108"/>
     <use x="141.162109" xlink:href="#DejaVuSans-101"/>
     <use x="202.685547" xlink:href="#DejaVuSans-115"/>
     <use x="254.785156" xlink:href="#DejaVuSans-32"/>
     <use x="286.572266" xlink:href="#DejaVuSans-47"/>
     <use x="320.263672" xlink:href="#DejaVuSans-32"/>
     <use x="352.050781" xlink:href="#DejaVuSans-109"/>
     <use x="449.462891" xlink:href="#DejaVuSans-97"/>
     <use x="510.742188" xlink:href="#DejaVuSans-114"/>
     <use x="551.855469" xlink:href="#DejaVuSans-107"/>
     <use x="606.140625" xlink:href="#DejaVuSans-101"/>
     <use x="667.664062" xlink:href="#DejaVuSans-116"/>
     <use x="706.873047" xlink:href="#DejaVuSans-105"/>
     <use x="734.65625" xlink:href="#DejaVuSans-110"/>
     <use x="798.035156" xlink:href="#DejaVuSans-103"/>
     <use x="861.511719" xlink:href="#DejaVuSans-32"/>
     <use x="893.298828" xlink:href="#DejaVuSans-47"/>
     <use x="926.990234" xlink:href="#DejaVuSans-32"/>
     <use x="958.777344" xlink:href="#DejaVuSans-98"/>
     <use x="1022.253906" xlink:href="#DejaVuSans-105"/>
     <use x="1050.037109" xlink:href="#DejaVuSans-122"/>
     <use x="1102.527344" xlink:href="#DejaVuSans-32"/>
     <use x="1134.314453" xlink:href="#DejaVuSans-100"/>
     <use x="1197.791016" xlink:href="#DejaVuSans-101"/>
     <use x="1259.314453" xlink:href="#DejaVuSans-118"/>
    </g>
   </g>
   <g id="text_35">
    <!-- 7.3% -->
    <g transform="translate(604.826599 309.268121)scale(0.1 -0.1)">
     <use xlink:href="#DejaVuSans-55"/>
     <use x="63.623047" xlink:href="#DejaVuSans-46"/>
     <use x="95.410156" xlink:href="#DejaVuSans-51"/>
     <use x="159.033203" xlink:href="#DejaVuSans-37"/>
    </g>
   </g>
   <g id="text_36">
    <!-- medicine / health -->
    <g transform="translate(562.909997 385.128105)scale(0.1 -0.1)">
     <use xlink:href="#DejaVuSans-109"/>
     <use x="97.412109" xlink:href="#DejaVuSans-101"/>
     <use x="158.935547" xlink:href="#DejaVuSans-100"/>
     <use x="222.412109" xlink:href="#DejaVuSans-105"/>
     <use x="250.195312" xlink:href="#DejaVuSans-99"/>
     <use x="305.175781" xlink:href="#DejaVuSans-105"/>
     <use x="332.958984" xlink:href="#DejaVuSans-110"/>
     <use x="396.337891" xlink:href="#DejaVuSans-101"/>
     <use x="457.861328" xlink:href="#DejaVuSans-32"/>
     <use x="489.648438" xlink:href="#DejaVuSans-47"/>
     <use x="523.339844" xlink:href="#DejaVuSans-32"/>
     <use x="555.126953" xlink:href="#DejaVuSans-104"/>
     <use x="618.505859" xlink:href="#DejaVuSans-101"/>
     <use x="680.029297" xlink:href="#DejaVuSans-97"/>
     <use x="741.308594" xlink:href="#DejaVuSans-108"/>
     <use x="769.091797" xlink:href="#DejaVuSans-116"/>
     <use x="808.300781" xlink:href="#DejaVuSans-104"/>
    </g>
   </g>
   <g id="text_37">
    <!-- 6.1% -->
    <g transform="translate(651.478958 333.450213)scale(0.1 -0.1)">
     <defs>
      <path d="M 33.015625 40.375 
Q 26.375 40.375 22.484375 35.828125 
Q 18.609375 31.296875 18.609375 23.390625 
Q 18.609375 15.53125 22.484375 10.953125 
Q 26.375 6.390625 33.015625 6.390625 
Q 39.65625 6.390625 43.53125 10.953125 
Q 47.40625 15.53125 47.40625 23.390625 
Q 47.40625 31.296875 43.53125 35.828125 
Q 39.65625 40.375 33.015625 40.375 
z
M 52.59375 71.296875 
L 52.59375 62.3125 
Q 48.875 64.0625 45.09375 64.984375 
Q 41.3125 65.921875 37.59375 65.921875 
Q 27.828125 65.921875 22.671875 59.328125 
Q 17.53125 52.734375 16.796875 39.40625 
Q 19.671875 43.65625 24.015625 45.921875 
Q 28.375 48.1875 33.59375 48.1875 
Q 44.578125 48.1875 50.953125 41.515625 
Q 57.328125 34.859375 57.328125 23.390625 
Q 57.328125 12.15625 50.6875 5.359375 
Q 44.046875 -1.421875 33.015625 -1.421875 
Q 20.359375 -1.421875 13.671875 8.265625 
Q 6.984375 17.96875 6.984375 36.375 
Q 6.984375 53.65625 15.1875 63.9375 
Q 23.390625 74.21875 37.203125 74.21875 
Q 40.921875 74.21875 44.703125 73.484375 
Q 48.484375 72.75 52.59375 71.296875 
z
" id="DejaVuSans-54"/>
     </defs>
     <use xlink:href="#DejaVuSans-54"/>
     <use x="63.623047" xlink:href="#DejaVuSans-46"/>
     <use x="95.410156" xlink:href="#DejaVuSans-49"/>
     <use x="159.033203" xlink:href="#DejaVuSans-37"/>
    </g>
   </g>
   <g id="text_38">
    <!-- education / academia -->
    <g transform="translate(716.844602 390.332449)scale(0.1 -0.1)">
     <use xlink:href="#DejaVuSans-101"/>
     <use x="61.523438" xlink:href="#DejaVuSans-100"/>
     <use x="125" xlink:href="#DejaVuSans-117"/>
     <use x="188.378906" xlink:href="#DejaVuSans-99"/>
     <use x="243.359375" xlink:href="#DejaVuSans-97"/>
     <use x="304.638672" xlink:href="#DejaVuSans-116"/>
     <use x="343.847656" xlink:href="#DejaVuSans-105"/>
     <use x="371.630859" xlink:href="#DejaVuSans-111"/>
     <use x="432.8125" xlink:href="#DejaVuSans-110"/>
     <use x="496.191406" xlink:href="#DejaVuSans-32"/>
     <use x="527.978516" xlink:href="#DejaVuSans-47"/>
     <use x="561.669922" xlink:href="#DejaVuSans-32"/>
     <use x="593.457031" xlink:href="#DejaVuSans-97"/>
     <use x="654.736328" xlink:href="#DejaVuSans-99"/>
     <use x="709.716797" xlink:href="#DejaVuSans-97"/>
     <use x="770.996094" xlink:href="#DejaVuSans-100"/>
     <use x="834.472656" xlink:href="#DejaVuSans-101"/>
     <use x="895.996094" xlink:href="#DejaVuSans-109"/>
     <use x="993.408203" xlink:href="#DejaVuSans-105"/>
     <use x="1021.191406" xlink:href="#DejaVuSans-97"/>
    </g>
   </g>
   <g id="text_39">
    <!-- 5.9% -->
    <g transform="translate(698.21615 337.093254)scale(0.1 -0.1)">
     <use xlink:href="#DejaVuSans-53"/>
     <use x="63.623047" xlink:href="#DejaVuSans-46"/>
     <use x="95.410156" xlink:href="#DejaVuSans-57"/>
     <use x="159.033203" xlink:href="#DejaVuSans-37"/>
    </g>
   </g>
   <g id="text_40">
    <!-- executive / management -->
    <g transform="translate(769.818028 375.946483)scale(0.1 -0.1)">
     <defs>
      <path d="M 54.890625 54.6875 
L 35.109375 28.078125 
L 55.90625 0 
L 45.3125 0 
L 29.390625 21.484375 
L 13.484375 0 
L 2.875 0 
L 24.125 28.609375 
L 4.6875 54.6875 
L 15.28125 54.6875 
L 29.78125 35.203125 
L 44.28125 54.6875 
z
" id="DejaVuSans-120"/>
     </defs>
     <use xlink:href="#DejaVuSans-101"/>
     <use x="59.773438" xlink:href="#DejaVuSans-120"/>
     <use x="115.828125" xlink:href="#DejaVuSans-101"/>
     <use x="177.351562" xlink:href="#DejaVuSans-99"/>
     <use x="232.332031" xlink:href="#DejaVuSans-117"/>
     <use x="295.710938" xlink:href="#DejaVuSans-116"/>
     <use x="334.919922" xlink:href="#DejaVuSans-105"/>
     <use x="362.703125" xlink:href="#DejaVuSans-118"/>
     <use x="421.882812" xlink:href="#DejaVuSans-101"/>
     <use x="483.40625" xlink:href="#DejaVuSans-32"/>
     <use x="515.193359" xlink:href="#DejaVuSans-47"/>
     <use x="548.884766" xlink:href="#DejaVuSans-32"/>
     <use x="580.671875" xlink:href="#DejaVuSans-109"/>
     <use x="678.083984" xlink:href="#DejaVuSans-97"/>
     <use x="739.363281" xlink:href="#DejaVuSans-110"/>
     <use x="802.742188" xlink:href="#DejaVuSans-97"/>
     <use x="864.021484" xlink:href="#DejaVuSans-103"/>
     <use x="927.498047" xlink:href="#DejaVuSans-101"/>
     <use x="989.021484" xlink:href="#DejaVuSans-109"/>
     <use x="1086.433594" xlink:href="#DejaVuSans-101"/>
     <use x="1147.957031" xlink:href="#DejaVuSans-110"/>
     <use x="1211.335938" xlink:href="#DejaVuSans-116"/>
    </g>
   </g>
   <g id="text_41">
    <!-- 4.0% -->
    <g transform="translate(735.297549 327.023078)scale(0.1 -0.1)">
     <use xlink:href="#DejaVuSans-52"/>
     <use x="63.623047" xlink:href="#DejaVuSans-46"/>
     <use x="95.410156" xlink:href="#DejaVuSans-48"/>
     <use x="159.033203" xlink:href="#DejaVuSans-37"/>
    </g>
   </g>
   <g id="text_42">
    <!-- banking / financial / real estate -->
    <g transform="translate(806.969702 353.617621)scale(0.1 -0.1)">
     <use xlink:href="#DejaVuSans-98"/>
     <use x="63.476562" xlink:href="#DejaVuSans-97"/>
     <use x="124.755859" xlink:href="#DejaVuSans-110"/>
     <use x="188.134766" xlink:href="#DejaVuSans-107"/>
     <use x="246.044922" xlink:href="#DejaVuSans-105"/>
     <use x="273.828125" xlink:href="#DejaVuSans-110"/>
     <use x="337.207031" xlink:href="#DejaVuSans-103"/>
     <use x="400.683594" xlink:href="#DejaVuSans-32"/>
     <use x="432.470703" xlink:href="#DejaVuSans-47"/>
     <use x="466.162109" xlink:href="#DejaVuSans-32"/>
     <use x="497.949219" xlink:href="#DejaVuSans-102"/>
     <use x="533.154297" xlink:href="#DejaVuSans-105"/>
     <use x="560.9375" xlink:href="#DejaVuSans-110"/>
     <use x="624.316406" xlink:href="#DejaVuSans-97"/>
     <use x="685.595703" xlink:href="#DejaVuSans-110"/>
     <use x="748.974609" xlink:href="#DejaVuSans-99"/>
     <use x="803.955078" xlink:href="#DejaVuSans-105"/>
     <use x="831.738281" xlink:href="#DejaVuSans-97"/>
     <use x="893.017578" xlink:href="#DejaVuSans-108"/>
     <use x="920.800781" xlink:href="#DejaVuSans-32"/>
     <use x="952.587891" xlink:href="#DejaVuSans-47"/>
     <use x="986.279297" xlink:href="#DejaVuSans-32"/>
     <use x="1018.066406" xlink:href="#DejaVuSans-114"/>
     <use x="1056.929688" xlink:href="#DejaVuSans-101"/>
     <use x="1118.453125" xlink:href="#DejaVuSans-97"/>
     <use x="1179.732422" xlink:href="#DejaVuSans-108"/>
     <use x="1207.515625" xlink:href="#DejaVuSans-32"/>
     <use x="1239.302734" xlink:href="#DejaVuSans-101"/>
     <use x="1300.826172" xlink:href="#DejaVuSans-115"/>
     <use x="1352.925781" xlink:href="#DejaVuSans-116"/>
     <use x="1392.134766" xlink:href="#DejaVuSans-97"/>
     <use x="1453.414062" xlink:href="#DejaVuSans-116"/>
     <use x="1492.623047" xlink:href="#DejaVuSans-101"/>
    </g>
   </g>
   <g id="text_43">
    <!-- 3.8% -->
    <g transform="translate(761.30372 311.392874)scale(0.1 -0.1)">
     <use xlink:href="#DejaVuSans-51"/>
     <use x="63.623047" xlink:href="#DejaVuSans-46"/>
     <use x="95.410156" xlink:href="#DejaVuSans-56"/>
     <use x="159.033203" xlink:href="#DejaVuSans-37"/>
    </g>
   </g>
   <g id="text_44">
    <!-- entertainment / media -->
    <g transform="translate(836.914583 323.922569)scale(0.1 -0.1)">
     <use xlink:href="#DejaVuSans-101"/>
     <use x="61.523438" xlink:href="#DejaVuSans-110"/>
     <use x="124.902344" xlink:href="#DejaVuSans-116"/>
     <use x="164.111328" xlink:href="#DejaVuSans-101"/>
     <use x="225.634766" xlink:href="#DejaVuSans-114"/>
     <use x="266.748047" xlink:href="#DejaVuSans-116"/>
     <use x="305.957031" xlink:href="#DejaVuSans-97"/>
     <use x="367.236328" xlink:href="#DejaVuSans-105"/>
     <use x="395.019531" xlink:href="#DejaVuSans-110"/>
     <use x="458.398438" xlink:href="#DejaVuSans-109"/>
     <use x="555.810547" xlink:href="#DejaVuSans-101"/>
     <use x="617.333984" xlink:href="#DejaVuSans-110"/>
     <use x="680.712891" xlink:href="#DejaVuSans-116"/>
     <use x="719.921875" xlink:href="#DejaVuSans-32"/>
     <use x="751.708984" xlink:href="#DejaVuSans-47"/>
     <use x="785.400391" xlink:href="#DejaVuSans-32"/>
     <use x="817.1875" xlink:href="#DejaVuSans-109"/>
     <use x="914.599609" xlink:href="#DejaVuSans-101"/>
     <use x="976.123047" xlink:href="#DejaVuSans-100"/>
     <use x="1039.599609" xlink:href="#DejaVuSans-105"/>
     <use x="1067.382812" xlink:href="#DejaVuSans-97"/>
    </g>
   </g>
   <g id="text_45">
    <!-- 3.8% -->
    <g transform="translate(782.265137 290.606338)scale(0.1 -0.1)">
     <use xlink:href="#DejaVuSans-51"/>
     <use x="63.623047" xlink:href="#DejaVuSans-46"/>
     <use x="95.410156" xlink:href="#DejaVuSans-56"/>
     <use x="159.033203" xlink:href="#DejaVuSans-37"/>
    </g>
   </g>
   <g id="text_46">
    <!-- law / legal services -->
    <g transform="translate(855.387954 295.486377)scale(0.1 -0.1)">
     <use xlink:href="#DejaVuSans-108"/>
     <use x="27.783203" xlink:href="#DejaVuSans-97"/>
     <use x="89.0625" xlink:href="#DejaVuSans-119"/>
     <use x="170.849609" xlink:href="#DejaVuSans-32"/>
     <use x="202.636719" xlink:href="#DejaVuSans-47"/>
     <use x="236.328125" xlink:href="#DejaVuSans-32"/>
     <use x="268.115234" xlink:href="#DejaVuSans-108"/>
     <use x="295.898438" xlink:href="#DejaVuSans-101"/>
     <use x="357.421875" xlink:href="#DejaVuSans-103"/>
     <use x="420.898438" xlink:href="#DejaVuSans-97"/>
     <use x="482.177734" xlink:href="#DejaVuSans-108"/>
     <use x="509.960938" xlink:href="#DejaVuSans-32"/>
     <use x="541.748047" xlink:href="#DejaVuSans-115"/>
     <use x="593.847656" xlink:href="#DejaVuSans-101"/>
     <use x="655.371094" xlink:href="#DejaVuSans-114"/>
     <use x="696.484375" xlink:href="#DejaVuSans-118"/>
     <use x="755.664062" xlink:href="#DejaVuSans-105"/>
     <use x="783.447266" xlink:href="#DejaVuSans-99"/>
     <use x="838.427734" xlink:href="#DejaVuSans-101"/>
     <use x="899.951172" xlink:href="#DejaVuSans-115"/>
    </g>
   </g>
   <g id="text_47">
    <!-- 2.3% -->
    <g transform="translate(795.196497 270.701004)scale(0.1 -0.1)">
     <use xlink:href="#DejaVuSans-50"/>
     <use x="63.623047" xlink:href="#DejaVuSans-46"/>
     <use x="95.410156" xlink:href="#DejaVuSans-51"/>
     <use x="159.033203" xlink:href="#DejaVuSans-37"/>
    </g>
   </g>
   <g id="text_48">
    <!-- hospitality / travel -->
    <g transform="translate(865.600711 271.928777)scale(0.1 -0.1)">
     <use xlink:href="#DejaVuSans-104"/>
     <use x="63.378906" xlink:href="#DejaVuSans-111"/>
     <use x="124.560547" xlink:href="#DejaVuSans-115"/>
     <use x="176.660156" xlink:href="#DejaVuSans-112"/>
     <use x="240.136719" xlink:href="#DejaVuSans-105"/>
     <use x="267.919922" xlink:href="#DejaVuSans-116"/>
     <use x="307.128906" xlink:href="#DejaVuSans-97"/>
     <use x="368.408203" xlink:href="#DejaVuSans-108"/>
     <use x="396.191406" xlink:href="#DejaVuSans-105"/>
     <use x="423.974609" xlink:href="#DejaVuSans-116"/>
     <use x="463.183594" xlink:href="#DejaVuSans-121"/>
     <use x="522.363281" xlink:href="#DejaVuSans-32"/>
     <use x="554.150391" xlink:href="#DejaVuSans-47"/>
     <use x="587.841797" xlink:href="#DejaVuSans-32"/>
     <use x="619.628906" xlink:href="#DejaVuSans-116"/>
     <use x="658.837891" xlink:href="#DejaVuSans-114"/>
     <use x="699.951172" xlink:href="#DejaVuSans-97"/>
     <use x="761.230469" xlink:href="#DejaVuSans-118"/>
     <use x="820.410156" xlink:href="#DejaVuSans-101"/>
     <use x="881.933594" xlink:href="#DejaVuSans-108"/>
    </g>
   </g>
   <g id="text_49">
    <!-- 2.3% -->
    <g transform="translate(802.345427 254.210683)scale(0.1 -0.1)">
     <use xlink:href="#DejaVuSans-50"/>
     <use x="63.623047" xlink:href="#DejaVuSans-46"/>
     <use x="95.410156" xlink:href="#DejaVuSans-51"/>
     <use x="159.033203" xlink:href="#DejaVuSans-37"/>
    </g>
   </g>
   <g id="text_50">
    <!-- construction / craftsmanship -->
    <g transform="translate(871.651631 250.448088)scale(0.1 -0.1)">
     <use xlink:href="#DejaVuSans-99"/>
     <use x="54.980469" xlink:href="#DejaVuSans-111"/>
     <use x="116.162109" xlink:href="#DejaVuSans-110"/>
     <use x="179.541016" xlink:href="#DejaVuSans-115"/>
     <use x="231.640625" xlink:href="#DejaVuSans-116"/>
     <use x="270.849609" xlink:href="#DejaVuSans-114"/>
     <use x="311.962891" xlink:href="#DejaVuSans-117"/>
     <use x="375.341797" xlink:href="#DejaVuSans-99"/>
     <use x="430.322266" xlink:href="#DejaVuSans-116"/>
     <use x="469.53125" xlink:href="#DejaVuSans-105"/>
     <use x="497.314453" xlink:href="#DejaVuSans-111"/>
     <use x="558.496094" xlink:href="#DejaVuSans-110"/>
     <use x="621.875" xlink:href="#DejaVuSans-32"/>
     <use x="653.662109" xlink:href="#DejaVuSans-47"/>
     <use x="687.353516" xlink:href="#DejaVuSans-32"/>
     <use x="719.140625" xlink:href="#DejaVuSans-99"/>
     <use x="774.121094" xlink:href="#DejaVuSans-114"/>
     <use x="815.234375" xlink:href="#DejaVuSans-97"/>
     <use x="876.513672" xlink:href="#DejaVuSans-102"/>
     <use x="909.96875" xlink:href="#DejaVuSans-116"/>
     <use x="949.177734" xlink:href="#DejaVuSans-115"/>
     <use x="1001.277344" xlink:href="#DejaVuSans-109"/>
     <use x="1098.689453" xlink:href="#DejaVuSans-97"/>
     <use x="1159.96875" xlink:href="#DejaVuSans-110"/>
     <use x="1223.347656" xlink:href="#DejaVuSans-115"/>
     <use x="1275.447266" xlink:href="#DejaVuSans-104"/>
     <use x="1338.826172" xlink:href="#DejaVuSans-105"/>
     <use x="1366.609375" xlink:href="#DejaVuSans-112"/>
    </g>
   </g>
   <g id="text_51">
    <!-- 1.7% -->
    <g transform="translate(806.581071 239.174202)scale(0.1 -0.1)">
     <use xlink:href="#DejaVuSans-49"/>
     <use x="63.623047" xlink:href="#DejaVuSans-46"/>
     <use x="95.410156" xlink:href="#DejaVuSans-55"/>
     <use x="159.033203" xlink:href="#DejaVuSans-37"/>
    </g>
   </g>
   <g id="text_52">
    <!-- clerical / administrative -->
    <g transform="translate(874.445968 233.577323)scale(0.1 -0.1)">
     <use xlink:href="#DejaVuSans-99"/>
     <use x="54.980469" xlink:href="#DejaVuSans-108"/>
     <use x="82.763672" xlink:href="#DejaVuSans-101"/>
     <use x="144.287109" xlink:href="#DejaVuSans-114"/>
     <use x="185.400391" xlink:href="#DejaVuSans-105"/>
     <use x="213.183594" xlink:href="#DejaVuSans-99"/>
     <use x="268.164062" xlink:href="#DejaVuSans-97"/>
     <use x="329.443359" xlink:href="#DejaVuSans-108"/>
     <use x="357.226562" xlink:href="#DejaVuSans-32"/>
     <use x="389.013672" xlink:href="#DejaVuSans-47"/>
     <use x="422.705078" xlink:href="#DejaVuSans-32"/>
     <use x="454.492188" xlink:href="#DejaVuSans-97"/>
     <use x="515.771484" xlink:href="#DejaVuSans-100"/>
     <use x="579.248047" xlink:href="#DejaVuSans-109"/>
     <use x="676.660156" xlink:href="#DejaVuSans-105"/>
     <use x="704.443359" xlink:href="#DejaVuSans-110"/>
     <use x="767.822266" xlink:href="#DejaVuSans-105"/>
     <use x="795.605469" xlink:href="#DejaVuSans-115"/>
     <use x="847.705078" xlink:href="#DejaVuSans-116"/>
     <use x="886.914062" xlink:href="#DejaVuSans-114"/>
     <use x="928.027344" xlink:href="#DejaVuSans-97"/>
     <use x="989.306641" xlink:href="#DejaVuSans-116"/>
     <use x="1028.515625" xlink:href="#DejaVuSans-105"/>
     <use x="1056.298828" xlink:href="#DejaVuSans-118"/>
     <use x="1115.478516" xlink:href="#DejaVuSans-101"/>
    </g>
   </g>
   <g id="text_53">
    <!-- 1.3% -->
    <g transform="translate(808.537106 227.364666)scale(0.1 -0.1)">
     <use xlink:href="#DejaVuSans-49"/>
     <use x="63.623047" xlink:href="#DejaVuSans-46"/>
     <use x="95.410156" xlink:href="#DejaVuSans-51"/>
     <use x="159.033203" xlink:href="#DejaVuSans-37"/>
    </g>
   </g>
   <g id="text_54">
    <!-- political / government -->
    <g transform="translate(875.528845 219.469731)scale(0.1 -0.1)">
     <use xlink:href="#DejaVuSans-112"/>
     <use x="63.476562" xlink:href="#DejaVuSans-111"/>
     <use x="124.658203" xlink:href="#DejaVuSans-108"/>
     <use x="152.441406" xlink:href="#DejaVuSans-105"/>
     <use x="180.224609" xlink:href="#DejaVuSans-116"/>
     <use x="219.433594" xlink:href="#DejaVuSans-105"/>
     <use x="247.216797" xlink:href="#DejaVuSans-99"/>
     <use x="302.197266" xlink:href="#DejaVuSans-97"/>
     <use x="363.476562" xlink:href="#DejaVuSans-108"/>
     <use x="391.259766" xlink:href="#DejaVuSans-32"/>
     <use x="423.046875" xlink:href="#DejaVuSans-47"/>
     <use x="456.738281" xlink:href="#DejaVuSans-32"/>
     <use x="488.525391" xlink:href="#DejaVuSans-103"/>
     <use x="552.001953" xlink:href="#DejaVuSans-111"/>
     <use x="613.183594" xlink:href="#DejaVuSans-118"/>
     <use x="672.363281" xlink:href="#DejaVuSans-101"/>
     <use x="733.886719" xlink:href="#DejaVuSans-114"/>
     <use x="773.25" xlink:href="#DejaVuSans-110"/>
     <use x="836.628906" xlink:href="#DejaVuSans-109"/>
     <use x="934.041016" xlink:href="#DejaVuSans-101"/>
     <use x="995.564453" xlink:href="#DejaVuSans-110"/>
     <use x="1058.943359" xlink:href="#DejaVuSans-116"/>
    </g>
   </g>
   <g id="text_55">
    <!-- 1.2% -->
    <g transform="translate(809.29512 217.489351)scale(0.1 -0.1)">
     <use xlink:href="#DejaVuSans-49"/>
     <use x="63.623047" xlink:href="#DejaVuSans-46"/>
     <use x="95.410156" xlink:href="#DejaVuSans-50"/>
     <use x="159.033203" xlink:href="#DejaVuSans-37"/>
    </g>
   </g>
   <g id="text_56">
    <!-- job -->
    <g transform="translate(681.845597 215.627841)scale(0.2 -0.2)">
     <defs>
      <path d="M 9.421875 54.6875 
L 18.40625 54.6875 
L 18.40625 -0.984375 
Q 18.40625 -11.421875 14.421875 -16.109375 
Q 10.453125 -20.796875 1.609375 -20.796875 
L -1.8125 -20.796875 
L -1.8125 -13.1875 
L 0.59375 -13.1875 
Q 5.71875 -13.1875 7.5625 -10.8125 
Q 9.421875 -8.453125 9.421875 -0.984375 
z
M 9.421875 75.984375 
L 18.40625 75.984375 
L 18.40625 64.59375 
L 9.421875 64.59375 
z
" id="DejaVuSans-106"/>
     </defs>
     <use xlink:href="#DejaVuSans-106"/>
     <use x="27.783203" xlink:href="#DejaVuSans-111"/>
     <use x="88.964844" xlink:href="#DejaVuSans-98"/>
    </g>
   </g>
  </g>
 </g>
</svg>
