<?xml version="1.0" encoding="utf-8" standalone="no"?>
<!DOCTYPE svg PUBLIC "-//W3C//DTD SVG 1.1//EN"
  "http://www.w3.org/Graphics/SVG/1.1/DTD/svg11.dtd">
<!-- Created with matplotlib (https://matplotlib.org/) -->
<svg height="420.218182pt" version="1.1" viewBox="0 0 922.453064 420.218182" width="922.453064pt" xmlns="http://www.w3.org/2000/svg" xmlns:xlink="http://www.w3.org/1999/xlink">
 <metadata>
  <rdf:RDF xmlns:cc="http://creativecommons.org/ns#" xmlns:dc="http://purl.org/dc/elements/1.1/" xmlns:rdf="http://www.w3.org/1999/02/22-rdf-syntax-ns#">
   <cc:Work>
    <dc:type rdf:resource="http://purl.org/dc/dcmitype/StillImage"/>
    <dc:date>2021-05-15T15:13:59.266728</dc:date>
    <dc:format>image/svg+xml</dc:format>
    <dc:creator>
     <cc:Agent>
      <dc:title>Matplotlib v3.3.4, https://matplotlib.org/</dc:title>
     </cc:Agent>
    </dc:creator>
   </cc:Work>
  </rdf:RDF>
 </metadata>
 <defs>
  <style type="text/css">*{stroke-linecap:butt;stroke-linejoin:round;}</style>
 </defs>
 <g id="figure_1">
  <g id="patch_1">
   <path d="M 0 420.218182 
L 922.453064 420.218182 
L 922.453064 0 
L 0 0 
z
" style="fill:none;"/>
  </g>
  <g id="axes_1">
   <g id="patch_2">
    <path d="M 372.436364 210.109091 
C 372.436364 184.788399 366.511874 159.81545 355.138032 137.193046 
C 343.764191 114.570642 327.253404 94.920155 306.929816 79.817531 
C 286.606229 64.714907 263.028073 54.574972 238.086288 50.210936 
C 213.144503 45.8469 187.524169 47.378632 163.280005 54.683288 
C 139.035842 61.987944 116.833768 74.864886 98.454363 92.281398 
C 80.074957 109.697911 66.023051 131.175612 57.425589 154.992017 
C 48.828128 178.808421 45.921259 204.309359 48.938111 229.449686 
C 51.954962 254.590014 60.812669 278.679197 74.800855 299.785313 
L 88.331678 290.81769 
C 75.742311 271.822186 67.770375 250.141922 65.055209 227.515627 
C 62.340042 204.889332 64.956224 181.938488 72.69394 160.503724 
C 80.431655 139.06896 93.078371 119.739029 109.619835 104.064168 
C 126.1613 88.389306 146.143167 76.800059 167.962914 70.225868 
C 189.782661 63.651678 212.840961 62.27312 235.288568 66.200752 
C 257.736175 70.128384 278.956515 79.254325 297.247744 92.846687 
C 315.538972 106.439049 330.398681 124.124487 340.635138 144.484651 
C 350.871596 164.844815 356.203636 187.320468 356.203636 210.109091 
L 372.436364 210.109091 
z
" style="fill:#1f77b4;stroke:#000000;stroke-linejoin:miter;stroke-width:0.7;"/>
   </g>
   <g id="patch_3">
    <path d="M 74.800855 299.785313 
C 86.682647 317.71319 102.009889 333.102147 119.889877 345.055884 
C 137.769864 357.00962 157.848594 365.291466 178.956618 369.419062 
L 182.071866 353.488065 
C 163.074643 349.773229 145.003786 342.319567 128.911798 331.561204 
C 112.81981 320.802841 99.025291 306.95278 88.331678 290.81769 
L 74.800855 299.785313 
z
" style="fill:#ff7f0e;stroke:#000000;stroke-linejoin:miter;stroke-width:0.7;"/>
   </g>
   <g id="patch_4">
    <path d="M 178.956618 369.419062 
C 189.760376 371.531697 200.751072 372.539862 211.758882 372.42798 
C 222.766691 372.316098 233.734625 371.084747 244.49321 368.752956 
L 241.054798 352.888569 
C 231.372072 354.987182 221.500931 356.095397 211.593902 356.196091 
C 201.686874 356.296785 191.795247 355.389436 182.071866 353.488065 
L 178.956618 369.419062 
z
" style="fill:#2ca02c;stroke:#000000;stroke-linejoin:miter;stroke-width:0.7;"/>
   </g>
   <g id="patch_5">
    <path d="M 244.49321 368.752956 
C 254.385905 366.608835 264.056396 363.544075 273.378254 359.598744 
C 282.700112 355.653413 291.632536 350.844779 300.058746 345.235709 
L 291.06378 331.723048 
C 283.480192 336.771211 275.44101 341.098981 267.051338 344.649779 
C 258.661666 348.200577 249.958224 350.958861 241.054798 352.888569 
L 244.49321 368.752956 
z
" style="fill:#d62728;stroke:#000000;stroke-linejoin:miter;stroke-width:0.7;"/>
   </g>
   <g id="patch_6">
    <path d="M 300.058746 345.235709 
C 306.960954 340.64112 313.500995 335.524434 319.621425 329.930592 
C 325.741855 324.33675 331.424703 318.282177 336.620054 311.820052 
L 323.968958 301.648956 
C 319.293141 307.464868 314.178579 312.913984 308.670192 317.948442 
C 303.161805 322.9829 297.275768 327.587917 291.06378 331.723048 
L 300.058746 345.235709 
z
" style="fill:#9467bd;stroke:#000000;stroke-linejoin:miter;stroke-width:0.7;"/>
   </g>
   <g id="patch_7">
    <path d="M 336.620054 311.820052 
C 339.968639 307.654988 343.109496 303.327096 346.031146 298.852194 
C 348.952796 294.377292 351.651677 289.760837 354.117926 285.019697 
L 339.717042 277.528636 
C 337.497418 281.795662 335.068426 285.950472 332.43894 289.977884 
C 329.809455 294.005296 326.982684 297.900398 323.968958 301.648956 
L 336.620054 311.820052 
z
" style="fill:#8c564b;stroke:#000000;stroke-linejoin:miter;stroke-width:0.7;"/>
   </g>
   <g id="patch_8">
    <path d="M 354.117926 285.019697 
C 356.58155 280.283603 358.810038 275.428857 360.795263 270.473162 
C 362.780487 265.517468 364.520033 260.466854 366.007557 255.33974 
L 350.417711 250.816675 
C 349.078939 255.431078 347.513348 259.97663 345.726645 264.436755 
C 343.939943 268.896881 341.934304 273.266152 339.717042 277.528636 
L 354.117926 285.019697 
z
" style="fill:#e377c2;stroke:#000000;stroke-linejoin:miter;stroke-width:0.7;"/>
   </g>
   <g id="patch_9">
    <path d="M 366.007557 255.33974 
C 367.240746 251.089255 368.299588 246.790114 369.181429 242.453095 
C 370.063271 238.116076 370.767374 233.744806 371.291973 229.350244 
L 355.173685 227.426129 
C 354.701545 231.381234 354.067853 235.315377 353.274196 239.218694 
C 352.480538 243.122011 351.52758 246.991238 350.417711 250.816675 
L 366.007557 255.33974 
z
" style="fill:#7f7f7f;stroke:#000000;stroke-linejoin:miter;stroke-width:0.7;"/>
   </g>
   <g id="patch_10">
    <path d="M 371.291973 229.350244 
C 371.673015 226.158258 371.959155 222.955657 372.150013 219.746679 
C 372.340871 216.537701 372.436363 213.323761 372.436364 210.109112 
L 356.203636 210.10911 
C 356.203636 213.002294 356.117693 215.89484 355.945921 218.78292 
C 355.774148 221.671 355.516623 224.553341 355.173685 227.426129 
L 371.291973 229.350244 
z
" style="fill:#bcbd22;stroke:#000000;stroke-linejoin:miter;stroke-width:0.7;"/>
   </g>
   <g id="matplotlib.axis_1"/>
   <g id="matplotlib.axis_2"/>
   <g id="text_1">
    <!-- nan -->
    <g transform="translate(139.793972 41.900083)scale(0.1 -0.1)">
     <defs>
      <path d="M 54.890625 33.015625 
L 54.890625 0 
L 45.90625 0 
L 45.90625 32.71875 
Q 45.90625 40.484375 42.875 44.328125 
Q 39.84375 48.1875 33.796875 48.1875 
Q 26.515625 48.1875 22.3125 43.546875 
Q 18.109375 38.921875 18.109375 30.90625 
L 18.109375 0 
L 9.078125 0 
L 9.078125 54.6875 
L 18.109375 54.6875 
L 18.109375 46.1875 
Q 21.34375 51.125 25.703125 53.5625 
Q 30.078125 56 35.796875 56 
Q 45.21875 56 50.046875 50.171875 
Q 54.890625 44.34375 54.890625 33.015625 
z
" id="DejaVuSans-110"/>
      <path d="M 34.28125 27.484375 
Q 23.390625 27.484375 19.1875 25 
Q 14.984375 22.515625 14.984375 16.5 
Q 14.984375 11.71875 18.140625 8.90625 
Q 21.296875 6.109375 26.703125 6.109375 
Q 34.1875 6.109375 38.703125 11.40625 
Q 43.21875 16.703125 43.21875 25.484375 
L 43.21875 27.484375 
z
M 52.203125 31.203125 
L 52.203125 0 
L 43.21875 0 
L 43.21875 8.296875 
Q 40.140625 3.328125 35.546875 0.953125 
Q 30.953125 -1.421875 24.3125 -1.421875 
Q 15.921875 -1.421875 10.953125 3.296875 
Q 6 8.015625 6 15.921875 
Q 6 25.140625 12.171875 29.828125 
Q 18.359375 34.515625 30.609375 34.515625 
L 43.21875 34.515625 
L 43.21875 35.40625 
Q 43.21875 41.609375 39.140625 45 
Q 35.0625 48.390625 27.6875 48.390625 
Q 23 48.390625 18.546875 47.265625 
Q 14.109375 46.140625 10.015625 43.890625 
L 10.015625 52.203125 
Q 14.9375 54.109375 19.578125 55.046875 
Q 24.21875 56 28.609375 56 
Q 40.484375 56 46.34375 49.84375 
Q 52.203125 43.703125 52.203125 31.203125 
z
" id="DejaVuSans-97"/>
     </defs>
     <use xlink:href="#DejaVuSans-110"/>
     <use x="63.378906" xlink:href="#DejaVuSans-97"/>
     <use x="124.658203" xlink:href="#DejaVuSans-110"/>
    </g>
   </g>
   <g id="text_2">
    <!-- 59.3% -->
    <g transform="translate(158.167101 93.190598)scale(0.1 -0.1)">
     <defs>
      <path d="M 10.796875 72.90625 
L 49.515625 72.90625 
L 49.515625 64.59375 
L 19.828125 64.59375 
L 19.828125 46.734375 
Q 21.96875 47.46875 24.109375 47.828125 
Q 26.265625 48.1875 28.421875 48.1875 
Q 40.625 48.1875 47.75 41.5 
Q 54.890625 34.8125 54.890625 23.390625 
Q 54.890625 11.625 47.5625 5.09375 
Q 40.234375 -1.421875 26.90625 -1.421875 
Q 22.3125 -1.421875 17.546875 -0.640625 
Q 12.796875 0.140625 7.71875 1.703125 
L 7.71875 11.625 
Q 12.109375 9.234375 16.796875 8.0625 
Q 21.484375 6.890625 26.703125 6.890625 
Q 35.15625 6.890625 40.078125 11.328125 
Q 45.015625 15.765625 45.015625 23.390625 
Q 45.015625 31 40.078125 35.4375 
Q 35.15625 39.890625 26.703125 39.890625 
Q 22.75 39.890625 18.8125 39.015625 
Q 14.890625 38.140625 10.796875 36.28125 
z
" id="DejaVuSans-53"/>
      <path d="M 10.984375 1.515625 
L 10.984375 10.5 
Q 14.703125 8.734375 18.5 7.8125 
Q 22.3125 6.890625 25.984375 6.890625 
Q 35.75 6.890625 40.890625 13.453125 
Q 46.046875 20.015625 46.78125 33.40625 
Q 43.953125 29.203125 39.59375 26.953125 
Q 35.25 24.703125 29.984375 24.703125 
Q 19.046875 24.703125 12.671875 31.3125 
Q 6.296875 37.9375 6.296875 49.421875 
Q 6.296875 60.640625 12.9375 67.421875 
Q 19.578125 74.21875 30.609375 74.21875 
Q 43.265625 74.21875 49.921875 64.515625 
Q 56.59375 54.828125 56.59375 36.375 
Q 56.59375 19.140625 48.40625 8.859375 
Q 40.234375 -1.421875 26.421875 -1.421875 
Q 22.703125 -1.421875 18.890625 -0.6875 
Q 15.09375 0.046875 10.984375 1.515625 
z
M 30.609375 32.421875 
Q 37.25 32.421875 41.125 36.953125 
Q 45.015625 41.5 45.015625 49.421875 
Q 45.015625 57.28125 41.125 61.84375 
Q 37.25 66.40625 30.609375 66.40625 
Q 23.96875 66.40625 20.09375 61.84375 
Q 16.21875 57.28125 16.21875 49.421875 
Q 16.21875 41.5 20.09375 36.953125 
Q 23.96875 32.421875 30.609375 32.421875 
z
" id="DejaVuSans-57"/>
      <path d="M 10.6875 12.40625 
L 21 12.40625 
L 21 0 
L 10.6875 0 
z
" id="DejaVuSans-46"/>
      <path d="M 40.578125 39.3125 
Q 47.65625 37.796875 51.625 33 
Q 55.609375 28.21875 55.609375 21.1875 
Q 55.609375 10.40625 48.1875 4.484375 
Q 40.765625 -1.421875 27.09375 -1.421875 
Q 22.515625 -1.421875 17.65625 -0.515625 
Q 12.796875 0.390625 7.625 2.203125 
L 7.625 11.71875 
Q 11.71875 9.328125 16.59375 8.109375 
Q 21.484375 6.890625 26.8125 6.890625 
Q 36.078125 6.890625 40.9375 10.546875 
Q 45.796875 14.203125 45.796875 21.1875 
Q 45.796875 27.640625 41.28125 31.265625 
Q 36.765625 34.90625 28.71875 34.90625 
L 20.21875 34.90625 
L 20.21875 43.015625 
L 29.109375 43.015625 
Q 36.375 43.015625 40.234375 45.921875 
Q 44.09375 48.828125 44.09375 54.296875 
Q 44.09375 59.90625 40.109375 62.90625 
Q 36.140625 65.921875 28.71875 65.921875 
Q 24.65625 65.921875 20.015625 65.03125 
Q 15.375 64.15625 9.8125 62.3125 
L 9.8125 71.09375 
Q 15.4375 72.65625 20.34375 73.4375 
Q 25.25 74.21875 29.59375 74.21875 
Q 40.828125 74.21875 47.359375 69.109375 
Q 53.90625 64.015625 53.90625 55.328125 
Q 53.90625 49.265625 50.4375 45.09375 
Q 46.96875 40.921875 40.578125 39.3125 
z
" id="DejaVuSans-51"/>
      <path d="M 72.703125 32.078125 
Q 68.453125 32.078125 66.03125 28.46875 
Q 63.625 24.859375 63.625 18.40625 
Q 63.625 12.0625 66.03125 8.421875 
Q 68.453125 4.78125 72.703125 4.78125 
Q 76.859375 4.78125 79.265625 8.421875 
Q 81.6875 12.0625 81.6875 18.40625 
Q 81.6875 24.8125 79.265625 28.4375 
Q 76.859375 32.078125 72.703125 32.078125 
z
M 72.703125 38.28125 
Q 80.421875 38.28125 84.953125 32.90625 
Q 89.5 27.546875 89.5 18.40625 
Q 89.5 9.28125 84.9375 3.921875 
Q 80.375 -1.421875 72.703125 -1.421875 
Q 64.890625 -1.421875 60.34375 3.921875 
Q 55.8125 9.28125 55.8125 18.40625 
Q 55.8125 27.59375 60.375 32.9375 
Q 64.9375 38.28125 72.703125 38.28125 
z
M 22.3125 68.015625 
Q 18.109375 68.015625 15.6875 64.375 
Q 13.28125 60.75 13.28125 54.390625 
Q 13.28125 47.953125 15.671875 44.328125 
Q 18.0625 40.71875 22.3125 40.71875 
Q 26.5625 40.71875 28.96875 44.328125 
Q 31.390625 47.953125 31.390625 54.390625 
Q 31.390625 60.6875 28.953125 64.34375 
Q 26.515625 68.015625 22.3125 68.015625 
z
M 66.40625 74.21875 
L 74.21875 74.21875 
L 28.609375 -1.421875 
L 20.796875 -1.421875 
z
M 22.3125 74.21875 
Q 30.03125 74.21875 34.609375 68.875 
Q 39.203125 63.53125 39.203125 54.390625 
Q 39.203125 45.171875 34.640625 39.84375 
Q 30.078125 34.515625 22.3125 34.515625 
Q 14.546875 34.515625 10.03125 39.859375 
Q 5.515625 45.21875 5.515625 54.390625 
Q 5.515625 63.484375 10.046875 68.84375 
Q 14.59375 74.21875 22.3125 74.21875 
z
" id="DejaVuSans-37"/>
     </defs>
     <use xlink:href="#DejaVuSans-53"/>
     <use x="63.623047" xlink:href="#DejaVuSans-57"/>
     <use x="127.246094" xlink:href="#DejaVuSans-46"/>
     <use x="159.033203" xlink:href="#DejaVuSans-51"/>
     <use x="222.65625" xlink:href="#DejaVuSans-37"/>
    </g>
   </g>
   <g id="text_3">
    <!-- doesn’t have kids -->
    <g transform="translate(22.582018 361.309938)scale(0.1 -0.1)">
     <defs>
      <path d="M 45.40625 46.390625 
L 45.40625 75.984375 
L 54.390625 75.984375 
L 54.390625 0 
L 45.40625 0 
L 45.40625 8.203125 
Q 42.578125 3.328125 38.25 0.953125 
Q 33.9375 -1.421875 27.875 -1.421875 
Q 17.96875 -1.421875 11.734375 6.484375 
Q 5.515625 14.40625 5.515625 27.296875 
Q 5.515625 40.1875 11.734375 48.09375 
Q 17.96875 56 27.875 56 
Q 33.9375 56 38.25 53.625 
Q 42.578125 51.265625 45.40625 46.390625 
z
M 14.796875 27.296875 
Q 14.796875 17.390625 18.875 11.75 
Q 22.953125 6.109375 30.078125 6.109375 
Q 37.203125 6.109375 41.296875 11.75 
Q 45.40625 17.390625 45.40625 27.296875 
Q 45.40625 37.203125 41.296875 42.84375 
Q 37.203125 48.484375 30.078125 48.484375 
Q 22.953125 48.484375 18.875 42.84375 
Q 14.796875 37.203125 14.796875 27.296875 
z
" id="DejaVuSans-100"/>
      <path d="M 30.609375 48.390625 
Q 23.390625 48.390625 19.1875 42.75 
Q 14.984375 37.109375 14.984375 27.296875 
Q 14.984375 17.484375 19.15625 11.84375 
Q 23.34375 6.203125 30.609375 6.203125 
Q 37.796875 6.203125 41.984375 11.859375 
Q 46.1875 17.53125 46.1875 27.296875 
Q 46.1875 37.015625 41.984375 42.703125 
Q 37.796875 48.390625 30.609375 48.390625 
z
M 30.609375 56 
Q 42.328125 56 49.015625 48.375 
Q 55.71875 40.765625 55.71875 27.296875 
Q 55.71875 13.875 49.015625 6.21875 
Q 42.328125 -1.421875 30.609375 -1.421875 
Q 18.84375 -1.421875 12.171875 6.21875 
Q 5.515625 13.875 5.515625 27.296875 
Q 5.515625 40.765625 12.171875 48.375 
Q 18.84375 56 30.609375 56 
z
" id="DejaVuSans-111"/>
      <path d="M 56.203125 29.59375 
L 56.203125 25.203125 
L 14.890625 25.203125 
Q 15.484375 15.921875 20.484375 11.0625 
Q 25.484375 6.203125 34.421875 6.203125 
Q 39.59375 6.203125 44.453125 7.46875 
Q 49.3125 8.734375 54.109375 11.28125 
L 54.109375 2.78125 
Q 49.265625 0.734375 44.1875 -0.34375 
Q 39.109375 -1.421875 33.890625 -1.421875 
Q 20.796875 -1.421875 13.15625 6.1875 
Q 5.515625 13.8125 5.515625 26.8125 
Q 5.515625 40.234375 12.765625 48.109375 
Q 20.015625 56 32.328125 56 
Q 43.359375 56 49.78125 48.890625 
Q 56.203125 41.796875 56.203125 29.59375 
z
M 47.21875 32.234375 
Q 47.125 39.59375 43.09375 43.984375 
Q 39.0625 48.390625 32.421875 48.390625 
Q 24.90625 48.390625 20.390625 44.140625 
Q 15.875 39.890625 15.1875 32.171875 
z
" id="DejaVuSans-101"/>
      <path d="M 44.28125 53.078125 
L 44.28125 44.578125 
Q 40.484375 46.53125 36.375 47.5 
Q 32.28125 48.484375 27.875 48.484375 
Q 21.1875 48.484375 17.84375 46.4375 
Q 14.5 44.390625 14.5 40.28125 
Q 14.5 37.15625 16.890625 35.375 
Q 19.28125 33.59375 26.515625 31.984375 
L 29.59375 31.296875 
Q 39.15625 29.25 43.1875 25.515625 
Q 47.21875 21.78125 47.21875 15.09375 
Q 47.21875 7.46875 41.1875 3.015625 
Q 35.15625 -1.421875 24.609375 -1.421875 
Q 20.21875 -1.421875 15.453125 -0.5625 
Q 10.6875 0.296875 5.421875 2 
L 5.421875 11.28125 
Q 10.40625 8.6875 15.234375 7.390625 
Q 20.0625 6.109375 24.8125 6.109375 
Q 31.15625 6.109375 34.5625 8.28125 
Q 37.984375 10.453125 37.984375 14.40625 
Q 37.984375 18.0625 35.515625 20.015625 
Q 33.0625 21.96875 24.703125 23.78125 
L 21.578125 24.515625 
Q 13.234375 26.265625 9.515625 29.90625 
Q 5.8125 33.546875 5.8125 39.890625 
Q 5.8125 47.609375 11.28125 51.796875 
Q 16.75 56 26.8125 56 
Q 31.78125 56 36.171875 55.265625 
Q 40.578125 54.546875 44.28125 53.078125 
z
" id="DejaVuSans-115"/>
      <path d="M 12.703125 72.90625 
L 23 72.90625 
L 23 65.484375 
L 14.984375 49.90625 
L 8.6875 49.90625 
L 12.703125 65.484375 
z
" id="DejaVuSans-8217"/>
      <path d="M 18.3125 70.21875 
L 18.3125 54.6875 
L 36.8125 54.6875 
L 36.8125 47.703125 
L 18.3125 47.703125 
L 18.3125 18.015625 
Q 18.3125 11.328125 20.140625 9.421875 
Q 21.96875 7.515625 27.59375 7.515625 
L 36.8125 7.515625 
L 36.8125 0 
L 27.59375 0 
Q 17.1875 0 13.234375 3.875 
Q 9.28125 7.765625 9.28125 18.015625 
L 9.28125 47.703125 
L 2.6875 47.703125 
L 2.6875 54.6875 
L 9.28125 54.6875 
L 9.28125 70.21875 
z
" id="DejaVuSans-116"/>
      <path id="DejaVuSans-32"/>
      <path d="M 54.890625 33.015625 
L 54.890625 0 
L 45.90625 0 
L 45.90625 32.71875 
Q 45.90625 40.484375 42.875 44.328125 
Q 39.84375 48.1875 33.796875 48.1875 
Q 26.515625 48.1875 22.3125 43.546875 
Q 18.109375 38.921875 18.109375 30.90625 
L 18.109375 0 
L 9.078125 0 
L 9.078125 75.984375 
L 18.109375 75.984375 
L 18.109375 46.1875 
Q 21.34375 51.125 25.703125 53.5625 
Q 30.078125 56 35.796875 56 
Q 45.21875 56 50.046875 50.171875 
Q 54.890625 44.34375 54.890625 33.015625 
z
" id="DejaVuSans-104"/>
      <path d="M 2.984375 54.6875 
L 12.5 54.6875 
L 29.59375 8.796875 
L 46.6875 54.6875 
L 56.203125 54.6875 
L 35.6875 0 
L 23.484375 0 
z
" id="DejaVuSans-118"/>
      <path d="M 9.078125 75.984375 
L 18.109375 75.984375 
L 18.109375 31.109375 
L 44.921875 54.6875 
L 56.390625 54.6875 
L 27.390625 29.109375 
L 57.625 0 
L 45.90625 0 
L 18.109375 26.703125 
L 18.109375 0 
L 9.078125 0 
z
" id="DejaVuSans-107"/>
      <path d="M 9.421875 54.6875 
L 18.40625 54.6875 
L 18.40625 0 
L 9.421875 0 
z
M 9.421875 75.984375 
L 18.40625 75.984375 
L 18.40625 64.59375 
L 9.421875 64.59375 
z
" id="DejaVuSans-105"/>
     </defs>
     <use xlink:href="#DejaVuSans-100"/>
     <use x="63.476562" xlink:href="#DejaVuSans-111"/>
     <use x="124.658203" xlink:href="#DejaVuSans-101"/>
     <use x="186.181641" xlink:href="#DejaVuSans-115"/>
     <use x="238.28125" xlink:href="#DejaVuSans-110"/>
     <use x="301.660156" xlink:href="#DejaVuSans-8217"/>
     <use x="333.447266" xlink:href="#DejaVuSans-116"/>
     <use x="372.65625" xlink:href="#DejaVuSans-32"/>
     <use x="404.443359" xlink:href="#DejaVuSans-104"/>
     <use x="467.822266" xlink:href="#DejaVuSans-97"/>
     <use x="529.101562" xlink:href="#DejaVuSans-118"/>
     <use x="588.28125" xlink:href="#DejaVuSans-101"/>
     <use x="649.804688" xlink:href="#DejaVuSans-32"/>
     <use x="681.591797" xlink:href="#DejaVuSans-107"/>
     <use x="739.501953" xlink:href="#DejaVuSans-105"/>
     <use x="767.285156" xlink:href="#DejaVuSans-100"/>
     <use x="830.761719" xlink:href="#DejaVuSans-115"/>
    </g>
   </g>
   <g id="text_4">
    <!-- 12.6% -->
    <g transform="translate(124.756702 316.777496)scale(0.1 -0.1)">
     <defs>
      <path d="M 12.40625 8.296875 
L 28.515625 8.296875 
L 28.515625 63.921875 
L 10.984375 60.40625 
L 10.984375 69.390625 
L 28.421875 72.90625 
L 38.28125 72.90625 
L 38.28125 8.296875 
L 54.390625 8.296875 
L 54.390625 0 
L 12.40625 0 
z
" id="DejaVuSans-49"/>
      <path d="M 19.1875 8.296875 
L 53.609375 8.296875 
L 53.609375 0 
L 7.328125 0 
L 7.328125 8.296875 
Q 12.9375 14.109375 22.625 23.890625 
Q 32.328125 33.6875 34.8125 36.53125 
Q 39.546875 41.84375 41.421875 45.53125 
Q 43.3125 49.21875 43.3125 52.78125 
Q 43.3125 58.59375 39.234375 62.25 
Q 35.15625 65.921875 28.609375 65.921875 
Q 23.96875 65.921875 18.8125 64.3125 
Q 13.671875 62.703125 7.8125 59.421875 
L 7.8125 69.390625 
Q 13.765625 71.78125 18.9375 73 
Q 24.125 74.21875 28.421875 74.21875 
Q 39.75 74.21875 46.484375 68.546875 
Q 53.21875 62.890625 53.21875 53.421875 
Q 53.21875 48.921875 51.53125 44.890625 
Q 49.859375 40.875 45.40625 35.40625 
Q 44.1875 33.984375 37.640625 27.21875 
Q 31.109375 20.453125 19.1875 8.296875 
z
" id="DejaVuSans-50"/>
      <path d="M 33.015625 40.375 
Q 26.375 40.375 22.484375 35.828125 
Q 18.609375 31.296875 18.609375 23.390625 
Q 18.609375 15.53125 22.484375 10.953125 
Q 26.375 6.390625 33.015625 6.390625 
Q 39.65625 6.390625 43.53125 10.953125 
Q 47.40625 15.53125 47.40625 23.390625 
Q 47.40625 31.296875 43.53125 35.828125 
Q 39.65625 40.375 33.015625 40.375 
z
M 52.59375 71.296875 
L 52.59375 62.3125 
Q 48.875 64.0625 45.09375 64.984375 
Q 41.3125 65.921875 37.59375 65.921875 
Q 27.828125 65.921875 22.671875 59.328125 
Q 17.53125 52.734375 16.796875 39.40625 
Q 19.671875 43.65625 24.015625 45.921875 
Q 28.375 48.1875 33.59375 48.1875 
Q 44.578125 48.1875 50.953125 41.515625 
Q 57.328125 34.859375 57.328125 23.390625 
Q 57.328125 12.15625 50.6875 5.359375 
Q 44.046875 -1.421875 33.015625 -1.421875 
Q 20.359375 -1.421875 13.671875 8.265625 
Q 6.984375 17.96875 6.984375 36.375 
Q 6.984375 53.65625 15.1875 63.9375 
Q 23.390625 74.21875 37.203125 74.21875 
Q 40.921875 74.21875 44.703125 73.484375 
Q 48.484375 72.75 52.59375 71.296875 
z
" id="DejaVuSans-54"/>
     </defs>
     <use xlink:href="#DejaVuSans-49"/>
     <use x="63.623047" xlink:href="#DejaVuSans-50"/>
     <use x="127.246094" xlink:href="#DejaVuSans-46"/>
     <use x="159.033203" xlink:href="#DejaVuSans-54"/>
     <use x="222.65625" xlink:href="#DejaVuSans-37"/>
    </g>
   </g>
   <g id="text_5">
    <!-- doesn’t have kids, but might want them -->
    <g transform="translate(211.923861 391.419244)scale(0.1 -0.1)">
     <defs>
      <path d="M 11.71875 12.40625 
L 22.015625 12.40625 
L 22.015625 4 
L 14.015625 -11.625 
L 7.71875 -11.625 
L 11.71875 4 
z
" id="DejaVuSans-44"/>
      <path d="M 48.6875 27.296875 
Q 48.6875 37.203125 44.609375 42.84375 
Q 40.53125 48.484375 33.40625 48.484375 
Q 26.265625 48.484375 22.1875 42.84375 
Q 18.109375 37.203125 18.109375 27.296875 
Q 18.109375 17.390625 22.1875 11.75 
Q 26.265625 6.109375 33.40625 6.109375 
Q 40.53125 6.109375 44.609375 11.75 
Q 48.6875 17.390625 48.6875 27.296875 
z
M 18.109375 46.390625 
Q 20.953125 51.265625 25.265625 53.625 
Q 29.59375 56 35.59375 56 
Q 45.5625 56 51.78125 48.09375 
Q 58.015625 40.1875 58.015625 27.296875 
Q 58.015625 14.40625 51.78125 6.484375 
Q 45.5625 -1.421875 35.59375 -1.421875 
Q 29.59375 -1.421875 25.265625 0.953125 
Q 20.953125 3.328125 18.109375 8.203125 
L 18.109375 0 
L 9.078125 0 
L 9.078125 75.984375 
L 18.109375 75.984375 
z
" id="DejaVuSans-98"/>
      <path d="M 8.5 21.578125 
L 8.5 54.6875 
L 17.484375 54.6875 
L 17.484375 21.921875 
Q 17.484375 14.15625 20.5 10.265625 
Q 23.53125 6.390625 29.59375 6.390625 
Q 36.859375 6.390625 41.078125 11.03125 
Q 45.3125 15.671875 45.3125 23.6875 
L 45.3125 54.6875 
L 54.296875 54.6875 
L 54.296875 0 
L 45.3125 0 
L 45.3125 8.40625 
Q 42.046875 3.421875 37.71875 1 
Q 33.40625 -1.421875 27.6875 -1.421875 
Q 18.265625 -1.421875 13.375 4.4375 
Q 8.5 10.296875 8.5 21.578125 
z
M 31.109375 56 
z
" id="DejaVuSans-117"/>
      <path d="M 52 44.1875 
Q 55.375 50.25 60.0625 53.125 
Q 64.75 56 71.09375 56 
Q 79.640625 56 84.28125 50.015625 
Q 88.921875 44.046875 88.921875 33.015625 
L 88.921875 0 
L 79.890625 0 
L 79.890625 32.71875 
Q 79.890625 40.578125 77.09375 44.375 
Q 74.3125 48.1875 68.609375 48.1875 
Q 61.625 48.1875 57.5625 43.546875 
Q 53.515625 38.921875 53.515625 30.90625 
L 53.515625 0 
L 44.484375 0 
L 44.484375 32.71875 
Q 44.484375 40.625 41.703125 44.40625 
Q 38.921875 48.1875 33.109375 48.1875 
Q 26.21875 48.1875 22.15625 43.53125 
Q 18.109375 38.875 18.109375 30.90625 
L 18.109375 0 
L 9.078125 0 
L 9.078125 54.6875 
L 18.109375 54.6875 
L 18.109375 46.1875 
Q 21.1875 51.21875 25.484375 53.609375 
Q 29.78125 56 35.6875 56 
Q 41.65625 56 45.828125 52.96875 
Q 50 49.953125 52 44.1875 
z
" id="DejaVuSans-109"/>
      <path d="M 45.40625 27.984375 
Q 45.40625 37.75 41.375 43.109375 
Q 37.359375 48.484375 30.078125 48.484375 
Q 22.859375 48.484375 18.828125 43.109375 
Q 14.796875 37.75 14.796875 27.984375 
Q 14.796875 18.265625 18.828125 12.890625 
Q 22.859375 7.515625 30.078125 7.515625 
Q 37.359375 7.515625 41.375 12.890625 
Q 45.40625 18.265625 45.40625 27.984375 
z
M 54.390625 6.78125 
Q 54.390625 -7.171875 48.1875 -13.984375 
Q 42 -20.796875 29.203125 -20.796875 
Q 24.46875 -20.796875 20.265625 -20.09375 
Q 16.0625 -19.390625 12.109375 -17.921875 
L 12.109375 -9.1875 
Q 16.0625 -11.328125 19.921875 -12.34375 
Q 23.78125 -13.375 27.78125 -13.375 
Q 36.625 -13.375 41.015625 -8.765625 
Q 45.40625 -4.15625 45.40625 5.171875 
L 45.40625 9.625 
Q 42.625 4.78125 38.28125 2.390625 
Q 33.9375 0 27.875 0 
Q 17.828125 0 11.671875 7.65625 
Q 5.515625 15.328125 5.515625 27.984375 
Q 5.515625 40.671875 11.671875 48.328125 
Q 17.828125 56 27.875 56 
Q 33.9375 56 38.28125 53.609375 
Q 42.625 51.21875 45.40625 46.390625 
L 45.40625 54.6875 
L 54.390625 54.6875 
z
" id="DejaVuSans-103"/>
      <path d="M 4.203125 54.6875 
L 13.1875 54.6875 
L 24.421875 12.015625 
L 35.59375 54.6875 
L 46.1875 54.6875 
L 57.421875 12.015625 
L 68.609375 54.6875 
L 77.59375 54.6875 
L 63.28125 0 
L 52.6875 0 
L 40.921875 44.828125 
L 29.109375 0 
L 18.5 0 
z
" id="DejaVuSans-119"/>
     </defs>
     <use xlink:href="#DejaVuSans-100"/>
     <use x="63.476562" xlink:href="#DejaVuSans-111"/>
     <use x="124.658203" xlink:href="#DejaVuSans-101"/>
     <use x="186.181641" xlink:href="#DejaVuSans-115"/>
     <use x="238.28125" xlink:href="#DejaVuSans-110"/>
     <use x="301.660156" xlink:href="#DejaVuSans-8217"/>
     <use x="333.447266" xlink:href="#DejaVuSans-116"/>
     <use x="372.65625" xlink:href="#DejaVuSans-32"/>
     <use x="404.443359" xlink:href="#DejaVuSans-104"/>
     <use x="467.822266" xlink:href="#DejaVuSans-97"/>
     <use x="529.101562" xlink:href="#DejaVuSans-118"/>
     <use x="588.28125" xlink:href="#DejaVuSans-101"/>
     <use x="649.804688" xlink:href="#DejaVuSans-32"/>
     <use x="681.591797" xlink:href="#DejaVuSans-107"/>
     <use x="739.501953" xlink:href="#DejaVuSans-105"/>
     <use x="767.285156" xlink:href="#DejaVuSans-100"/>
     <use x="830.761719" xlink:href="#DejaVuSans-115"/>
     <use x="882.861328" xlink:href="#DejaVuSans-44"/>
     <use x="914.648438" xlink:href="#DejaVuSans-32"/>
     <use x="946.435547" xlink:href="#DejaVuSans-98"/>
     <use x="1009.912109" xlink:href="#DejaVuSans-117"/>
     <use x="1073.291016" xlink:href="#DejaVuSans-116"/>
     <use x="1112.5" xlink:href="#DejaVuSans-32"/>
     <use x="1144.287109" xlink:href="#DejaVuSans-109"/>
     <use x="1241.699219" xlink:href="#DejaVuSans-105"/>
     <use x="1269.482422" xlink:href="#DejaVuSans-103"/>
     <use x="1332.958984" xlink:href="#DejaVuSans-104"/>
     <use x="1396.337891" xlink:href="#DejaVuSans-116"/>
     <use x="1435.546875" xlink:href="#DejaVuSans-32"/>
     <use x="1467.333984" xlink:href="#DejaVuSans-119"/>
     <use x="1549.121094" xlink:href="#DejaVuSans-97"/>
     <use x="1610.400391" xlink:href="#DejaVuSans-110"/>
     <use x="1673.779297" xlink:href="#DejaVuSans-116"/>
     <use x="1712.988281" xlink:href="#DejaVuSans-32"/>
     <use x="1744.775391" xlink:href="#DejaVuSans-116"/>
     <use x="1783.984375" xlink:href="#DejaVuSans-104"/>
     <use x="1847.363281" xlink:href="#DejaVuSans-101"/>
     <use x="1908.886719" xlink:href="#DejaVuSans-109"/>
    </g>
   </g>
   <g id="text_6">
    <!-- 6.5% -->
    <g transform="translate(198.677086 337.85401)scale(0.1 -0.1)">
     <use xlink:href="#DejaVuSans-54"/>
     <use x="63.623047" xlink:href="#DejaVuSans-46"/>
     <use x="95.410156" xlink:href="#DejaVuSans-53"/>
     <use x="159.033203" xlink:href="#DejaVuSans-37"/>
    </g>
   </g>
   <g id="text_7">
    <!-- doesn’t have kids, but wants them -->
    <g transform="translate(279.705171 377.307084)scale(0.1 -0.1)">
     <use xlink:href="#DejaVuSans-100"/>
     <use x="63.476562" xlink:href="#DejaVuSans-111"/>
     <use x="124.658203" xlink:href="#DejaVuSans-101"/>
     <use x="186.181641" xlink:href="#DejaVuSans-115"/>
     <use x="238.28125" xlink:href="#DejaVuSans-110"/>
     <use x="301.660156" xlink:href="#DejaVuSans-8217"/>
     <use x="333.447266" xlink:href="#DejaVuSans-116"/>
     <use x="372.65625" xlink:href="#DejaVuSans-32"/>
     <use x="404.443359" xlink:href="#DejaVuSans-104"/>
     <use x="467.822266" xlink:href="#DejaVuSans-97"/>
     <use x="529.101562" xlink:href="#DejaVuSans-118"/>
     <use x="588.28125" xlink:href="#DejaVuSans-101"/>
     <use x="649.804688" xlink:href="#DejaVuSans-32"/>
     <use x="681.591797" xlink:href="#DejaVuSans-107"/>
     <use x="739.501953" xlink:href="#DejaVuSans-105"/>
     <use x="767.285156" xlink:href="#DejaVuSans-100"/>
     <use x="830.761719" xlink:href="#DejaVuSans-115"/>
     <use x="882.861328" xlink:href="#DejaVuSans-44"/>
     <use x="914.648438" xlink:href="#DejaVuSans-32"/>
     <use x="946.435547" xlink:href="#DejaVuSans-98"/>
     <use x="1009.912109" xlink:href="#DejaVuSans-117"/>
     <use x="1073.291016" xlink:href="#DejaVuSans-116"/>
     <use x="1112.5" xlink:href="#DejaVuSans-32"/>
     <use x="1144.287109" xlink:href="#DejaVuSans-119"/>
     <use x="1226.074219" xlink:href="#DejaVuSans-97"/>
     <use x="1287.353516" xlink:href="#DejaVuSans-110"/>
     <use x="1350.732422" xlink:href="#DejaVuSans-116"/>
     <use x="1389.941406" xlink:href="#DejaVuSans-115"/>
     <use x="1442.041016" xlink:href="#DejaVuSans-32"/>
     <use x="1473.828125" xlink:href="#DejaVuSans-116"/>
     <use x="1513.037109" xlink:href="#DejaVuSans-104"/>
     <use x="1576.416016" xlink:href="#DejaVuSans-101"/>
     <use x="1637.939453" xlink:href="#DejaVuSans-109"/>
    </g>
   </g>
   <g id="text_8">
    <!-- 6.0% -->
    <g transform="translate(246.124003 327.975499)scale(0.1 -0.1)">
     <defs>
      <path d="M 31.78125 66.40625 
Q 24.171875 66.40625 20.328125 58.90625 
Q 16.5 51.421875 16.5 36.375 
Q 16.5 21.390625 20.328125 13.890625 
Q 24.171875 6.390625 31.78125 6.390625 
Q 39.453125 6.390625 43.28125 13.890625 
Q 47.125 21.390625 47.125 36.375 
Q 47.125 51.421875 43.28125 58.90625 
Q 39.453125 66.40625 31.78125 66.40625 
z
M 31.78125 74.21875 
Q 44.046875 74.21875 50.515625 64.515625 
Q 56.984375 54.828125 56.984375 36.375 
Q 56.984375 17.96875 50.515625 8.265625 
Q 44.046875 -1.421875 31.78125 -1.421875 
Q 19.53125 -1.421875 13.0625 8.265625 
Q 6.59375 17.96875 6.59375 36.375 
Q 6.59375 54.828125 13.0625 64.515625 
Q 19.53125 74.21875 31.78125 74.21875 
z
" id="DejaVuSans-48"/>
     </defs>
     <use xlink:href="#DejaVuSans-54"/>
     <use x="63.623047" xlink:href="#DejaVuSans-46"/>
     <use x="95.410156" xlink:href="#DejaVuSans-48"/>
     <use x="159.033203" xlink:href="#DejaVuSans-37"/>
    </g>
   </g>
   <g id="text_9">
    <!-- doesn’t want kids -->
    <g transform="translate(330.572658 344.672117)scale(0.1 -0.1)">
     <use xlink:href="#DejaVuSans-100"/>
     <use x="63.476562" xlink:href="#DejaVuSans-111"/>
     <use x="124.658203" xlink:href="#DejaVuSans-101"/>
     <use x="186.181641" xlink:href="#DejaVuSans-115"/>
     <use x="238.28125" xlink:href="#DejaVuSans-110"/>
     <use x="301.660156" xlink:href="#DejaVuSans-8217"/>
     <use x="333.447266" xlink:href="#DejaVuSans-116"/>
     <use x="372.65625" xlink:href="#DejaVuSans-32"/>
     <use x="404.443359" xlink:href="#DejaVuSans-119"/>
     <use x="486.230469" xlink:href="#DejaVuSans-97"/>
     <use x="547.509766" xlink:href="#DejaVuSans-110"/>
     <use x="610.888672" xlink:href="#DejaVuSans-116"/>
     <use x="650.097656" xlink:href="#DejaVuSans-32"/>
     <use x="681.884766" xlink:href="#DejaVuSans-107"/>
     <use x="739.794922" xlink:href="#DejaVuSans-105"/>
     <use x="767.578125" xlink:href="#DejaVuSans-100"/>
     <use x="831.054688" xlink:href="#DejaVuSans-115"/>
    </g>
   </g>
   <g id="text_10">
    <!-- 4.9% -->
    <g transform="translate(281.731244 305.131022)scale(0.1 -0.1)">
     <defs>
      <path d="M 37.796875 64.3125 
L 12.890625 25.390625 
L 37.796875 25.390625 
z
M 35.203125 72.90625 
L 47.609375 72.90625 
L 47.609375 25.390625 
L 58.015625 25.390625 
L 58.015625 17.1875 
L 47.609375 17.1875 
L 47.609375 0 
L 37.796875 0 
L 37.796875 17.1875 
L 4.890625 17.1875 
L 4.890625 26.703125 
z
" id="DejaVuSans-52"/>
     </defs>
     <use xlink:href="#DejaVuSans-52"/>
     <use x="63.623047" xlink:href="#DejaVuSans-46"/>
     <use x="95.410156" xlink:href="#DejaVuSans-57"/>
     <use x="159.033203" xlink:href="#DejaVuSans-37"/>
    </g>
   </g>
   <g id="text_11">
    <!-- has kids -->
    <g transform="translate(359.623351 310.48588)scale(0.1 -0.1)">
     <use xlink:href="#DejaVuSans-104"/>
     <use x="63.378906" xlink:href="#DejaVuSans-97"/>
     <use x="124.658203" xlink:href="#DejaVuSans-115"/>
     <use x="176.757812" xlink:href="#DejaVuSans-32"/>
     <use x="208.544922" xlink:href="#DejaVuSans-107"/>
     <use x="266.455078" xlink:href="#DejaVuSans-105"/>
     <use x="294.238281" xlink:href="#DejaVuSans-100"/>
     <use x="357.714844" xlink:href="#DejaVuSans-115"/>
    </g>
   </g>
   <g id="text_12">
    <!-- 3.1% -->
    <g transform="translate(302.06673 281.200656)scale(0.1 -0.1)">
     <use xlink:href="#DejaVuSans-51"/>
     <use x="63.623047" xlink:href="#DejaVuSans-46"/>
     <use x="95.410156" xlink:href="#DejaVuSans-49"/>
     <use x="159.033203" xlink:href="#DejaVuSans-37"/>
    </g>
   </g>
   <g id="text_13">
    <!-- has a kid -->
    <g transform="translate(375.86388 279.268945)scale(0.1 -0.1)">
     <use xlink:href="#DejaVuSans-104"/>
     <use x="63.378906" xlink:href="#DejaVuSans-97"/>
     <use x="124.658203" xlink:href="#DejaVuSans-115"/>
     <use x="176.757812" xlink:href="#DejaVuSans-32"/>
     <use x="208.544922" xlink:href="#DejaVuSans-97"/>
     <use x="269.824219" xlink:href="#DejaVuSans-32"/>
     <use x="301.611328" xlink:href="#DejaVuSans-107"/>
     <use x="359.521484" xlink:href="#DejaVuSans-105"/>
     <use x="387.304688" xlink:href="#DejaVuSans-100"/>
    </g>
   </g>
   <g id="text_14">
    <!-- 3.1% -->
    <g transform="translate(313.435099 259.348801)scale(0.1 -0.1)">
     <use xlink:href="#DejaVuSans-51"/>
     <use x="63.623047" xlink:href="#DejaVuSans-46"/>
     <use x="95.410156" xlink:href="#DejaVuSans-49"/>
     <use x="159.033203" xlink:href="#DejaVuSans-37"/>
    </g>
   </g>
   <g id="text_15">
    <!-- other -->
    <g transform="translate(385.088663 248.44687)scale(0.1 -0.1)">
     <defs>
      <path d="M 41.109375 46.296875 
Q 39.59375 47.171875 37.8125 47.578125 
Q 36.03125 48 33.890625 48 
Q 26.265625 48 22.1875 43.046875 
Q 18.109375 38.09375 18.109375 28.8125 
L 18.109375 0 
L 9.078125 0 
L 9.078125 54.6875 
L 18.109375 54.6875 
L 18.109375 46.1875 
Q 20.953125 51.171875 25.484375 53.578125 
Q 30.03125 56 36.53125 56 
Q 37.453125 56 38.578125 55.875 
Q 39.703125 55.765625 41.0625 55.515625 
z
" id="DejaVuSans-114"/>
     </defs>
     <use xlink:href="#DejaVuSans-111"/>
     <use x="61.181641" xlink:href="#DejaVuSans-116"/>
     <use x="100.390625" xlink:href="#DejaVuSans-104"/>
     <use x="163.769531" xlink:href="#DejaVuSans-101"/>
     <use x="225.292969" xlink:href="#DejaVuSans-114"/>
    </g>
   </g>
   <g id="text_16">
    <!-- 2.6% -->
    <g transform="translate(319.892448 237.773349)scale(0.1 -0.1)">
     <use xlink:href="#DejaVuSans-50"/>
     <use x="63.623047" xlink:href="#DejaVuSans-46"/>
     <use x="95.410156" xlink:href="#DejaVuSans-54"/>
     <use x="159.033203" xlink:href="#DejaVuSans-37"/>
    </g>
   </g>
   <g id="text_17">
    <!-- doesn’t have kids, and doesn’t want any -->
    <g transform="translate(388.354105 223.469813)scale(0.1 -0.1)">
     <defs>
      <path d="M 32.171875 -5.078125 
Q 28.375 -14.84375 24.75 -17.8125 
Q 21.140625 -20.796875 15.09375 -20.796875 
L 7.90625 -20.796875 
L 7.90625 -13.28125 
L 13.1875 -13.28125 
Q 16.890625 -13.28125 18.9375 -11.515625 
Q 21 -9.765625 23.484375 -3.21875 
L 25.09375 0.875 
L 2.984375 54.6875 
L 12.5 54.6875 
L 29.59375 11.921875 
L 46.6875 54.6875 
L 56.203125 54.6875 
z
" id="DejaVuSans-121"/>
     </defs>
     <use xlink:href="#DejaVuSans-100"/>
     <use x="63.476562" xlink:href="#DejaVuSans-111"/>
     <use x="124.658203" xlink:href="#DejaVuSans-101"/>
     <use x="186.181641" xlink:href="#DejaVuSans-115"/>
     <use x="238.28125" xlink:href="#DejaVuSans-110"/>
     <use x="301.660156" xlink:href="#DejaVuSans-8217"/>
     <use x="333.447266" xlink:href="#DejaVuSans-116"/>
     <use x="372.65625" xlink:href="#DejaVuSans-32"/>
     <use x="404.443359" xlink:href="#DejaVuSans-104"/>
     <use x="467.822266" xlink:href="#DejaVuSans-97"/>
     <use x="529.101562" xlink:href="#DejaVuSans-118"/>
     <use x="588.28125" xlink:href="#DejaVuSans-101"/>
     <use x="649.804688" xlink:href="#DejaVuSans-32"/>
     <use x="681.591797" xlink:href="#DejaVuSans-107"/>
     <use x="739.501953" xlink:href="#DejaVuSans-105"/>
     <use x="767.285156" xlink:href="#DejaVuSans-100"/>
     <use x="830.761719" xlink:href="#DejaVuSans-115"/>
     <use x="882.861328" xlink:href="#DejaVuSans-44"/>
     <use x="914.648438" xlink:href="#DejaVuSans-32"/>
     <use x="946.435547" xlink:href="#DejaVuSans-97"/>
     <use x="1007.714844" xlink:href="#DejaVuSans-110"/>
     <use x="1071.09375" xlink:href="#DejaVuSans-100"/>
     <use x="1134.570312" xlink:href="#DejaVuSans-32"/>
     <use x="1166.357422" xlink:href="#DejaVuSans-100"/>
     <use x="1229.833984" xlink:href="#DejaVuSans-111"/>
     <use x="1291.015625" xlink:href="#DejaVuSans-101"/>
     <use x="1352.539062" xlink:href="#DejaVuSans-115"/>
     <use x="1404.638672" xlink:href="#DejaVuSans-110"/>
     <use x="1468.017578" xlink:href="#DejaVuSans-8217"/>
     <use x="1499.804688" xlink:href="#DejaVuSans-116"/>
     <use x="1539.013672" xlink:href="#DejaVuSans-32"/>
     <use x="1570.800781" xlink:href="#DejaVuSans-119"/>
     <use x="1652.587891" xlink:href="#DejaVuSans-97"/>
     <use x="1713.867188" xlink:href="#DejaVuSans-110"/>
     <use x="1777.246094" xlink:href="#DejaVuSans-116"/>
     <use x="1816.455078" xlink:href="#DejaVuSans-32"/>
     <use x="1848.242188" xlink:href="#DejaVuSans-97"/>
     <use x="1909.521484" xlink:href="#DejaVuSans-110"/>
     <use x="1972.900391" xlink:href="#DejaVuSans-121"/>
    </g>
   </g>
   <g id="text_18">
    <!-- 1.9% -->
    <g transform="translate(322.178257 220.289409)scale(0.1 -0.1)">
     <use xlink:href="#DejaVuSans-49"/>
     <use x="63.623047" xlink:href="#DejaVuSans-46"/>
     <use x="95.410156" xlink:href="#DejaVuSans-57"/>
     <use x="159.033203" xlink:href="#DejaVuSans-37"/>
    </g>
   </g>
   <g id="text_19">
    <!-- offspring -->
    <g transform="translate(165.816903 215.627841)scale(0.2 -0.2)">
     <defs>
      <path d="M 37.109375 75.984375 
L 37.109375 68.5 
L 28.515625 68.5 
Q 23.6875 68.5 21.796875 66.546875 
Q 19.921875 64.59375 19.921875 59.515625 
L 19.921875 54.6875 
L 34.71875 54.6875 
L 34.71875 47.703125 
L 19.921875 47.703125 
L 19.921875 0 
L 10.890625 0 
L 10.890625 47.703125 
L 2.296875 47.703125 
L 2.296875 54.6875 
L 10.890625 54.6875 
L 10.890625 58.5 
Q 10.890625 67.625 15.140625 71.796875 
Q 19.390625 75.984375 28.609375 75.984375 
z
" id="DejaVuSans-102"/>
      <path d="M 18.109375 8.203125 
L 18.109375 -20.796875 
L 9.078125 -20.796875 
L 9.078125 54.6875 
L 18.109375 54.6875 
L 18.109375 46.390625 
Q 20.953125 51.265625 25.265625 53.625 
Q 29.59375 56 35.59375 56 
Q 45.5625 56 51.78125 48.09375 
Q 58.015625 40.1875 58.015625 27.296875 
Q 58.015625 14.40625 51.78125 6.484375 
Q 45.5625 -1.421875 35.59375 -1.421875 
Q 29.59375 -1.421875 25.265625 0.953125 
Q 20.953125 3.328125 18.109375 8.203125 
z
M 48.6875 27.296875 
Q 48.6875 37.203125 44.609375 42.84375 
Q 40.53125 48.484375 33.40625 48.484375 
Q 26.265625 48.484375 22.1875 42.84375 
Q 18.109375 37.203125 18.109375 27.296875 
Q 18.109375 17.390625 22.1875 11.75 
Q 26.265625 6.109375 33.40625 6.109375 
Q 40.53125 6.109375 44.609375 11.75 
Q 48.6875 17.390625 48.6875 27.296875 
z
" id="DejaVuSans-112"/>
     </defs>
     <use xlink:href="#DejaVuSans-111"/>
     <use x="61.181641" xlink:href="#DejaVuSans-102"/>
     <use x="96.386719" xlink:href="#DejaVuSans-102"/>
     <use x="131.591797" xlink:href="#DejaVuSans-115"/>
     <use x="183.691406" xlink:href="#DejaVuSans-112"/>
     <use x="247.167969" xlink:href="#DejaVuSans-114"/>
     <use x="288.28125" xlink:href="#DejaVuSans-105"/>
     <use x="316.064453" xlink:href="#DejaVuSans-110"/>
     <use x="379.443359" xlink:href="#DejaVuSans-103"/>
    </g>
   </g>
  </g>
  <g id="axes_2">
   <g id="patch_11">
    <path d="M 859.418182 210.109091 
C 859.418182 191.776056 856.312418 173.574794 850.232931 156.27913 
C 844.153444 138.983466 835.187629 122.842032 823.716668 108.541081 
C 812.245707 94.24013 798.434499 81.985243 782.870227 72.297437 
C 767.305955 62.60963 750.212362 55.62817 732.316181 51.649873 
C 714.419999 47.671576 695.978495 46.753631 677.775706 48.935066 
C 659.572918 51.1165 641.870519 56.365954 625.421125 64.460248 
C 608.971731 72.554542 594.011809 83.377316 581.177379 96.468442 
C 568.34295 109.559568 557.818513 124.730855 550.051514 141.337296 
C 542.284516 157.943737 537.386609 175.746608 535.566029 193.989021 
C 533.745449 212.231435 535.028367 230.651148 539.36024 248.465048 
C 543.692113 266.278948 551.010668 283.230953 561.004757 298.600349 
C 570.998847 313.969745 583.524801 327.53559 598.050081 338.721135 
C 612.575361 349.906679 628.891159 358.551126 646.30381 364.286956 
C 663.71646 370.022786 681.97565 372.767545 700.30509 372.404539 
C 718.634531 372.041534 736.770729 368.575982 753.942624 362.155222 
C 771.11452 355.734462 787.07526 346.450795 801.146275 334.698915 
L 790.740739 322.239932 
C 778.076825 332.816624 763.712158 341.171925 748.257453 346.950609 
C 732.802747 352.729293 716.480169 355.848289 699.983672 356.174994 
C 683.487176 356.501699 667.053905 354.031416 651.382519 348.869169 
C 635.711134 343.706922 621.026916 335.92692 607.954164 325.85993 
C 594.881412 315.792941 583.608053 303.583679 574.613372 289.751223 
C 565.618692 275.918767 559.031992 260.661962 555.133307 244.629452 
C 551.234621 228.596942 550.079995 212.0192 551.718517 195.601028 
C 553.357039 179.182856 557.765155 163.160272 564.755454 148.214475 
C 571.745752 133.268678 581.217746 119.61452 592.768732 107.832507 
C 604.319719 96.050494 617.783649 86.309996 632.588103 79.025132 
C 647.392558 71.740268 663.324717 67.015759 679.707227 65.052468 
C 696.089736 63.089177 712.68709 63.915327 728.793654 67.495795 
C 744.900217 71.076262 760.284451 77.359576 774.292295 86.078602 
C 788.30014 94.797628 800.730227 105.827026 811.054092 118.697882 
C 821.377957 131.568738 829.44719 146.096029 834.918729 161.662126 
C 840.390267 177.228224 843.185455 193.60936 843.185455 210.109091 
L 859.418182 210.109091 
z
" style="fill:#1f77b4;stroke:#000000;stroke-linejoin:miter;stroke-width:0.7;"/>
   </g>
   <g id="patch_12">
    <path d="M 801.146275 334.698915 
C 813.313768 324.536825 823.927246 312.646904 832.648245 299.408319 
C 841.369244 286.169735 848.104065 271.724724 852.637934 256.533939 
L 837.083232 251.891454 
C 833.002749 265.563161 826.94141 278.56367 819.092511 290.478396 
C 811.243612 302.393123 801.691482 313.094052 790.740739 322.239932 
L 801.146275 334.698915 
z
" style="fill:#ff7f0e;stroke:#000000;stroke-linejoin:miter;stroke-width:0.7;"/>
   </g>
   <g id="patch_13">
    <path d="M 852.637934 256.533939 
C 854.883132 249.011376 856.579666 241.33584 857.714174 233.56778 
C 858.848683 225.79972 859.418181 217.959583 859.418182 210.109114 
L 843.185455 210.109111 
C 843.185454 217.174534 842.672906 224.230657 841.651848 231.221911 
C 840.63079 238.213165 839.10391 245.121147 837.083232 251.891454 
L 852.637934 256.533939 
z
" style="fill:#2ca02c;stroke:#000000;stroke-linejoin:miter;stroke-width:0.7;"/>
   </g>
   <g id="matplotlib.axis_3"/>
   <g id="matplotlib.axis_4"/>
   <g id="text_20">
    <!-- straight -->
    <g transform="translate(496.59445 137.219491)scale(0.1 -0.1)">
     <use xlink:href="#DejaVuSans-115"/>
     <use x="52.099609" xlink:href="#DejaVuSans-116"/>
     <use x="91.308594" xlink:href="#DejaVuSans-114"/>
     <use x="132.421875" xlink:href="#DejaVuSans-97"/>
     <use x="193.701172" xlink:href="#DejaVuSans-105"/>
     <use x="221.484375" xlink:href="#DejaVuSans-103"/>
     <use x="284.960938" xlink:href="#DejaVuSans-104"/>
     <use x="348.339844" xlink:href="#DejaVuSans-116"/>
    </g>
   </g>
   <g id="text_21">
    <!-- 86.1% -->
    <g transform="translate(567.986981 159.914184)scale(0.1 -0.1)">
     <defs>
      <path d="M 31.78125 34.625 
Q 24.75 34.625 20.71875 30.859375 
Q 16.703125 27.09375 16.703125 20.515625 
Q 16.703125 13.921875 20.71875 10.15625 
Q 24.75 6.390625 31.78125 6.390625 
Q 38.8125 6.390625 42.859375 10.171875 
Q 46.921875 13.96875 46.921875 20.515625 
Q 46.921875 27.09375 42.890625 30.859375 
Q 38.875 34.625 31.78125 34.625 
z
M 21.921875 38.8125 
Q 15.578125 40.375 12.03125 44.71875 
Q 8.5 49.078125 8.5 55.328125 
Q 8.5 64.0625 14.71875 69.140625 
Q 20.953125 74.21875 31.78125 74.21875 
Q 42.671875 74.21875 48.875 69.140625 
Q 55.078125 64.0625 55.078125 55.328125 
Q 55.078125 49.078125 51.53125 44.71875 
Q 48 40.375 41.703125 38.8125 
Q 48.828125 37.15625 52.796875 32.3125 
Q 56.78125 27.484375 56.78125 20.515625 
Q 56.78125 9.90625 50.3125 4.234375 
Q 43.84375 -1.421875 31.78125 -1.421875 
Q 19.734375 -1.421875 13.25 4.234375 
Q 6.78125 9.90625 6.78125 20.515625 
Q 6.78125 27.484375 10.78125 32.3125 
Q 14.796875 37.15625 21.921875 38.8125 
z
M 18.3125 54.390625 
Q 18.3125 48.734375 21.84375 45.5625 
Q 25.390625 42.390625 31.78125 42.390625 
Q 38.140625 42.390625 41.71875 45.5625 
Q 45.3125 48.734375 45.3125 54.390625 
Q 45.3125 60.0625 41.71875 63.234375 
Q 38.140625 66.40625 31.78125 66.40625 
Q 25.390625 66.40625 21.84375 63.234375 
Q 18.3125 60.0625 18.3125 54.390625 
z
" id="DejaVuSans-56"/>
     </defs>
     <use xlink:href="#DejaVuSans-56"/>
     <use x="63.623047" xlink:href="#DejaVuSans-54"/>
     <use x="127.246094" xlink:href="#DejaVuSans-46"/>
     <use x="159.033203" xlink:href="#DejaVuSans-49"/>
     <use x="222.65625" xlink:href="#DejaVuSans-37"/>
    </g>
   </g>
   <g id="text_22">
    <!-- gay -->
    <g transform="translate(846.203978 311.097617)scale(0.1 -0.1)">
     <use xlink:href="#DejaVuSans-103"/>
     <use x="63.476562" xlink:href="#DejaVuSans-97"/>
     <use x="124.755859" xlink:href="#DejaVuSans-121"/>
    </g>
   </g>
   <g id="text_23">
    <!-- 9.3% -->
    <g transform="translate(788.767714 281.628872)scale(0.1 -0.1)">
     <use xlink:href="#DejaVuSans-57"/>
     <use x="63.623047" xlink:href="#DejaVuSans-46"/>
     <use x="95.410156" xlink:href="#DejaVuSans-51"/>
     <use x="159.033203" xlink:href="#DejaVuSans-37"/>
    </g>
   </g>
   <g id="text_24">
    <!-- bisexual -->
    <g transform="translate(873.776501 238.673024)scale(0.1 -0.1)">
     <defs>
      <path d="M 54.890625 54.6875 
L 35.109375 28.078125 
L 55.90625 0 
L 45.3125 0 
L 29.390625 21.484375 
L 13.484375 0 
L 2.875 0 
L 24.125 28.609375 
L 4.6875 54.6875 
L 15.28125 54.6875 
L 29.78125 35.203125 
L 44.28125 54.6875 
z
" id="DejaVuSans-120"/>
      <path d="M 9.421875 75.984375 
L 18.40625 75.984375 
L 18.40625 0 
L 9.421875 0 
z
" id="DejaVuSans-108"/>
     </defs>
     <use xlink:href="#DejaVuSans-98"/>
     <use x="63.476562" xlink:href="#DejaVuSans-105"/>
     <use x="91.259766" xlink:href="#DejaVuSans-115"/>
     <use x="143.359375" xlink:href="#DejaVuSans-101"/>
     <use x="203.132812" xlink:href="#DejaVuSans-120"/>
     <use x="262.3125" xlink:href="#DejaVuSans-117"/>
     <use x="325.691406" xlink:href="#DejaVuSans-97"/>
     <use x="386.970703" xlink:href="#DejaVuSans-108"/>
    </g>
   </g>
   <g id="text_25">
    <!-- 4.6% -->
    <g transform="translate(808.06848 230.931656)scale(0.1 -0.1)">
     <use xlink:href="#DejaVuSans-52"/>
     <use x="63.623047" xlink:href="#DejaVuSans-46"/>
     <use x="95.410156" xlink:href="#DejaVuSans-54"/>
     <use x="159.033203" xlink:href="#DejaVuSans-37"/>
    </g>
   </g>
   <g id="text_26">
    <!-- orientation -->
    <g transform="translate(642.389347 215.627841)scale(0.2 -0.2)">
     <use xlink:href="#DejaVuSans-111"/>
     <use x="61.181641" xlink:href="#DejaVuSans-114"/>
     <use x="102.294922" xlink:href="#DejaVuSans-105"/>
     <use x="130.078125" xlink:href="#DejaVuSans-101"/>
     <use x="191.601562" xlink:href="#DejaVuSans-110"/>
     <use x="254.980469" xlink:href="#DejaVuSans-116"/>
     <use x="294.189453" xlink:href="#DejaVuSans-97"/>
     <use x="355.46875" xlink:href="#DejaVuSans-116"/>
     <use x="394.677734" xlink:href="#DejaVuSans-105"/>
     <use x="422.460938" xlink:href="#DejaVuSans-111"/>
     <use x="483.642578" xlink:href="#DejaVuSans-110"/>
    </g>
   </g>
  </g>
 </g>
</svg>
