<?xml version="1.0" encoding="utf-8" standalone="no"?>
<!DOCTYPE svg PUBLIC "-//W3C//DTD SVG 1.1//EN"
  "http://www.w3.org/Graphics/SVG/1.1/DTD/svg11.dtd">
<!-- Created with matplotlib (https://matplotlib.org/) -->
<svg height="503.64pt" version="1.1" viewBox="0 0 765.714091 503.64" width="765.714091pt" xmlns="http://www.w3.org/2000/svg" xmlns:xlink="http://www.w3.org/1999/xlink">
 <metadata>
  <rdf:RDF xmlns:cc="http://creativecommons.org/ns#" xmlns:dc="http://purl.org/dc/elements/1.1/" xmlns:rdf="http://www.w3.org/1999/02/22-rdf-syntax-ns#">
   <cc:Work>
    <dc:type rdf:resource="http://purl.org/dc/dcmitype/StillImage"/>
    <dc:date>2021-05-16T14:54:00.704101</dc:date>
    <dc:format>image/svg+xml</dc:format>
    <dc:creator>
     <cc:Agent>
      <dc:title>Matplotlib v3.3.4, https://matplotlib.org/</dc:title>
     </cc:Agent>
    </dc:creator>
   </cc:Work>
  </rdf:RDF>
 </metadata>
 <defs>
  <style type="text/css">*{stroke-linecap:butt;stroke-linejoin:round;}</style>
 </defs>
 <g id="figure_1">
  <g id="patch_1">
   <path d="M 0 503.64 
L 765.714091 503.64 
L 765.714091 0 
L 0 0 
z
" style="fill:none;"/>
  </g>
  <g id="axes_1">
   <g id="patch_2">
    <path d="M 583.276462 251.82 
C 583.276462 210.486149 570.180993 170.196121 545.878892 136.761183 
C 521.576791 103.326244 487.295481 78.435091 447.979558 65.677921 
C 408.663635 52.92075 366.298824 52.941888 326.99565 65.738284 
C 287.692476 78.534681 253.436022 103.46003 229.167297 136.919202 
L 245.008613 148.409282 
C 266.850466 118.296027 297.681275 95.863213 333.054131 84.346456 
C 368.426987 72.829699 406.555317 72.810675 441.939648 84.292129 
C 477.323979 95.773582 508.177158 118.17562 530.049049 148.267064 
C 551.92094 178.358509 563.706862 214.619534 563.706862 251.82 
L 583.276462 251.82 
z
" style="fill:#1f77b4;stroke:#000000;stroke-linejoin:miter;stroke-width:0.7;"/>
   </g>
   <g id="patch_3">
    <path d="M 229.167297 136.919202 
C 211.079791 161.856357 199.133646 190.715652 194.30419 221.140903 
C 189.474734 251.566154 191.897076 282.706186 201.373447 312.018606 
L 219.994149 305.998745 
C 211.465415 279.617567 209.285307 251.591539 213.631817 224.208813 
C 217.978327 196.826087 228.729858 170.852721 245.008613 148.409282 
L 229.167297 136.919202 
z
" style="fill:#aec7e8;stroke:#000000;stroke-linejoin:miter;stroke-width:0.7;"/>
   </g>
   <g id="patch_4">
    <path d="M 201.373447 312.018606 
C 208.347111 333.589622 219.016351 353.785708 232.904233 371.704064 
C 246.792116 389.622419 263.688572 404.99201 282.838301 417.12579 
L 293.312517 400.595211 
C 276.077761 389.674809 260.87095 375.842177 248.371856 359.715657 
C 235.872762 343.589137 226.270446 325.41266 219.994149 305.998745 
L 201.373447 312.018606 
z
" style="fill:#ff7f0e;stroke:#000000;stroke-linejoin:miter;stroke-width:0.7;"/>
   </g>
   <g id="patch_5">
    <path d="M 282.838301 417.12579 
C 299.360436 427.594656 317.359126 435.527557 336.233444 440.659636 
C 355.107761 445.791715 374.645288 448.065213 394.19372 447.404225 
L 393.532394 427.845803 
C 375.938805 428.440692 358.355031 426.394543 341.368145 421.775672 
C 324.38126 417.156801 308.182439 410.01719 293.312517 400.595211 
L 282.838301 417.12579 
z
" style="fill:#ffbb78;stroke:#000000;stroke-linejoin:miter;stroke-width:0.7;"/>
   </g>
   <g id="patch_6">
    <path d="M 394.19372 447.404225 
C 404.887175 447.042649 415.532989 445.804694 426.024072 443.702811 
C 436.515155 441.600929 446.816211 438.642191 456.823619 434.856361 
L 449.899304 416.552725 
C 440.892636 419.959972 431.621686 422.622836 422.179711 424.51453 
C 412.737736 426.406224 403.156504 427.520384 393.532394 427.845803 
L 394.19372 447.404225 
z
" style="fill:#2ca02c;stroke:#000000;stroke-linejoin:miter;stroke-width:0.7;"/>
   </g>
   <g id="patch_7">
    <path d="M 456.823619 434.856361 
C 462.21477 432.816874 467.513184 430.540196 472.70336 428.032987 
C 477.893535 425.525778 482.970407 422.790485 487.919122 419.835112 
L 477.885256 403.0336 
C 473.431412 405.693437 468.862228 408.1552 464.19107 410.411688 
C 459.519912 412.668176 454.75134 414.717187 449.899304 416.552725 
L 456.823619 434.856361 
z
" style="fill:#98df8a;stroke:#000000;stroke-linejoin:miter;stroke-width:0.7;"/>
   </g>
   <g id="patch_8">
    <path d="M 487.919122 419.835112 
C 492.41756 417.148643 496.806293 414.282597 501.07471 411.243901 
C 505.343127 408.205205 509.487785 404.99631 513.498665 401.624975 
L 500.906845 386.644478 
C 497.297053 389.678679 493.56686 392.566684 489.725285 395.301511 
C 485.88371 398.036337 481.93385 400.615779 477.885256 403.0336 
L 487.919122 419.835112 
z
" style="fill:#d62728;stroke:#000000;stroke-linejoin:miter;stroke-width:0.7;"/>
   </g>
   <g id="patch_9">
    <path d="M 513.498665 401.624975 
C 517.218299 398.498446 520.820196 395.234464 524.296866 391.839818 
C 527.773536 388.445171 531.122568 384.922213 534.336996 381.278272 
L 519.661343 368.332445 
C 516.768357 371.611992 513.754229 374.782654 510.625226 377.837836 
C 507.496223 380.893018 504.254515 383.830602 500.906845 386.644478 
L 513.498665 401.624975 
z
" style="fill:#ff9896;stroke:#000000;stroke-linejoin:miter;stroke-width:0.7;"/>
   </g>
   <g id="patch_10">
    <path d="M 534.336996 381.278272 
C 537.211327 378.019872 539.976342 374.666649 542.627444 371.224178 
C 545.278546 367.781707 547.814265 364.251899 550.230383 360.640622 
L 533.96539 349.75856 
C 531.790884 353.008709 529.508738 356.185537 527.122746 359.28376 
C 524.736754 362.381984 522.24824 365.399885 519.661343 368.332445 
L 534.336996 381.278272 
z
" style="fill:#9467bd;stroke:#000000;stroke-linejoin:miter;stroke-width:0.7;"/>
   </g>
   <g id="patch_11">
    <path d="M 550.230383 360.640622 
C 552.36445 357.450915 554.404226 354.199123 556.347064 350.889462 
C 558.289903 347.579802 560.134963 344.213707 561.879851 340.795544 
L 544.449912 331.89799 
C 542.879513 334.974337 541.218959 338.003822 539.470404 340.982516 
C 537.721849 343.96121 535.886051 346.887824 533.96539 349.75856 
L 550.230383 360.640622 
z
" style="fill:#c5b0d5;stroke:#000000;stroke-linejoin:miter;stroke-width:0.7;"/>
   </g>
   <g id="patch_12">
    <path d="M 561.879851 340.795544 
C 563.545273 337.533051 565.118768 334.224441 566.598474 330.873625 
C 568.078181 327.52281 569.463516 324.13111 570.752843 320.702534 
L 552.435604 313.81428 
C 551.275211 316.899999 550.028409 319.952529 548.696673 322.968263 
C 547.364937 325.983997 545.948792 328.961746 544.449912 331.89799 
L 561.879851 340.795544 
z
" style="fill:#8c564b;stroke:#000000;stroke-linejoin:miter;stroke-width:0.7;"/>
   </g>
   <g id="patch_13">
    <path d="M 570.752843 320.702534 
C 571.952907 317.511324 573.069371 314.289298 574.101091 311.039755 
C 575.132811 307.790213 576.079436 304.514263 576.939995 301.215262 
L 558.004041 296.275735 
C 557.229538 299.244837 556.377576 302.193191 555.449028 305.11778 
C 554.52048 308.042368 553.515662 310.942191 552.435604 313.81428 
L 570.752843 320.702534 
z
" style="fill:#c49c94;stroke:#000000;stroke-linejoin:miter;stroke-width:0.7;"/>
   </g>
   <g id="patch_14">
    <path d="M 576.939995 301.215262 
C 577.788444 297.962683 578.552949 294.688784 579.23275 291.396824 
C 579.91255 288.104864 580.50742 284.795935 581.016768 281.473331 
L 561.673137 278.507998 
C 561.214725 281.498341 560.679342 284.476377 560.067521 287.439142 
C 559.4557 290.401906 558.767646 293.348415 558.004041 296.275735 
L 576.939995 301.215262 
z
" style="fill:#e377c2;stroke:#000000;stroke-linejoin:miter;stroke-width:0.7;"/>
   </g>
   <g id="patch_15">
    <path d="M 581.016768 281.473331 
C 581.430053 278.777365 581.786932 276.073053 582.08717 273.362169 
C 582.387408 270.651284 582.63094 267.934419 582.817606 265.213355 
L 563.293892 263.874019 
C 563.125892 266.322977 562.906713 268.768156 562.636499 271.207952 
C 562.366285 273.647748 562.045094 276.081628 561.673137 278.507998 
L 581.016768 281.473331 
z
" style="fill:#f7b6d2;stroke:#000000;stroke-linejoin:miter;stroke-width:0.7;"/>
   </g>
   <g id="patch_16">
    <path d="M 582.817606 265.213355 
C 582.970502 262.984569 583.085221 260.753329 583.161714 258.520616 
C 583.238207 256.287902 583.276462 254.054043 583.276462 251.820019 
L 563.706862 251.820018 
C 563.706862 253.830639 563.672432 255.841112 563.603589 257.850554 
C 563.534745 259.859996 563.431498 261.868112 563.293892 263.874019 
L 582.817606 265.213355 
z
" style="fill:#7f7f7f;stroke:#000000;stroke-linejoin:miter;stroke-width:0.7;"/>
   </g>
   <g id="matplotlib.axis_1"/>
   <g id="matplotlib.axis_2"/>
   <g id="text_1">
    <!-- graduated from college/university -->
    <g transform="translate(454.019468 49.823088)scale(0.1 -0.1)">
     <defs>
      <path d="M 45.40625 27.984375 
Q 45.40625 37.75 41.375 43.109375 
Q 37.359375 48.484375 30.078125 48.484375 
Q 22.859375 48.484375 18.828125 43.109375 
Q 14.796875 37.75 14.796875 27.984375 
Q 14.796875 18.265625 18.828125 12.890625 
Q 22.859375 7.515625 30.078125 7.515625 
Q 37.359375 7.515625 41.375 12.890625 
Q 45.40625 18.265625 45.40625 27.984375 
z
M 54.390625 6.78125 
Q 54.390625 -7.171875 48.1875 -13.984375 
Q 42 -20.796875 29.203125 -20.796875 
Q 24.46875 -20.796875 20.265625 -20.09375 
Q 16.0625 -19.390625 12.109375 -17.921875 
L 12.109375 -9.1875 
Q 16.0625 -11.328125 19.921875 -12.34375 
Q 23.78125 -13.375 27.78125 -13.375 
Q 36.625 -13.375 41.015625 -8.765625 
Q 45.40625 -4.15625 45.40625 5.171875 
L 45.40625 9.625 
Q 42.625 4.78125 38.28125 2.390625 
Q 33.9375 0 27.875 0 
Q 17.828125 0 11.671875 7.65625 
Q 5.515625 15.328125 5.515625 27.984375 
Q 5.515625 40.671875 11.671875 48.328125 
Q 17.828125 56 27.875 56 
Q 33.9375 56 38.28125 53.609375 
Q 42.625 51.21875 45.40625 46.390625 
L 45.40625 54.6875 
L 54.390625 54.6875 
z
" id="DejaVuSans-103"/>
      <path d="M 41.109375 46.296875 
Q 39.59375 47.171875 37.8125 47.578125 
Q 36.03125 48 33.890625 48 
Q 26.265625 48 22.1875 43.046875 
Q 18.109375 38.09375 18.109375 28.8125 
L 18.109375 0 
L 9.078125 0 
L 9.078125 54.6875 
L 18.109375 54.6875 
L 18.109375 46.1875 
Q 20.953125 51.171875 25.484375 53.578125 
Q 30.03125 56 36.53125 56 
Q 37.453125 56 38.578125 55.875 
Q 39.703125 55.765625 41.0625 55.515625 
z
" id="DejaVuSans-114"/>
      <path d="M 34.28125 27.484375 
Q 23.390625 27.484375 19.1875 25 
Q 14.984375 22.515625 14.984375 16.5 
Q 14.984375 11.71875 18.140625 8.90625 
Q 21.296875 6.109375 26.703125 6.109375 
Q 34.1875 6.109375 38.703125 11.40625 
Q 43.21875 16.703125 43.21875 25.484375 
L 43.21875 27.484375 
z
M 52.203125 31.203125 
L 52.203125 0 
L 43.21875 0 
L 43.21875 8.296875 
Q 40.140625 3.328125 35.546875 0.953125 
Q 30.953125 -1.421875 24.3125 -1.421875 
Q 15.921875 -1.421875 10.953125 3.296875 
Q 6 8.015625 6 15.921875 
Q 6 25.140625 12.171875 29.828125 
Q 18.359375 34.515625 30.609375 34.515625 
L 43.21875 34.515625 
L 43.21875 35.40625 
Q 43.21875 41.609375 39.140625 45 
Q 35.0625 48.390625 27.6875 48.390625 
Q 23 48.390625 18.546875 47.265625 
Q 14.109375 46.140625 10.015625 43.890625 
L 10.015625 52.203125 
Q 14.9375 54.109375 19.578125 55.046875 
Q 24.21875 56 28.609375 56 
Q 40.484375 56 46.34375 49.84375 
Q 52.203125 43.703125 52.203125 31.203125 
z
" id="DejaVuSans-97"/>
      <path d="M 45.40625 46.390625 
L 45.40625 75.984375 
L 54.390625 75.984375 
L 54.390625 0 
L 45.40625 0 
L 45.40625 8.203125 
Q 42.578125 3.328125 38.25 0.953125 
Q 33.9375 -1.421875 27.875 -1.421875 
Q 17.96875 -1.421875 11.734375 6.484375 
Q 5.515625 14.40625 5.515625 27.296875 
Q 5.515625 40.1875 11.734375 48.09375 
Q 17.96875 56 27.875 56 
Q 33.9375 56 38.25 53.625 
Q 42.578125 51.265625 45.40625 46.390625 
z
M 14.796875 27.296875 
Q 14.796875 17.390625 18.875 11.75 
Q 22.953125 6.109375 30.078125 6.109375 
Q 37.203125 6.109375 41.296875 11.75 
Q 45.40625 17.390625 45.40625 27.296875 
Q 45.40625 37.203125 41.296875 42.84375 
Q 37.203125 48.484375 30.078125 48.484375 
Q 22.953125 48.484375 18.875 42.84375 
Q 14.796875 37.203125 14.796875 27.296875 
z
" id="DejaVuSans-100"/>
      <path d="M 8.5 21.578125 
L 8.5 54.6875 
L 17.484375 54.6875 
L 17.484375 21.921875 
Q 17.484375 14.15625 20.5 10.265625 
Q 23.53125 6.390625 29.59375 6.390625 
Q 36.859375 6.390625 41.078125 11.03125 
Q 45.3125 15.671875 45.3125 23.6875 
L 45.3125 54.6875 
L 54.296875 54.6875 
L 54.296875 0 
L 45.3125 0 
L 45.3125 8.40625 
Q 42.046875 3.421875 37.71875 1 
Q 33.40625 -1.421875 27.6875 -1.421875 
Q 18.265625 -1.421875 13.375 4.4375 
Q 8.5 10.296875 8.5 21.578125 
z
M 31.109375 56 
z
" id="DejaVuSans-117"/>
      <path d="M 18.3125 70.21875 
L 18.3125 54.6875 
L 36.8125 54.6875 
L 36.8125 47.703125 
L 18.3125 47.703125 
L 18.3125 18.015625 
Q 18.3125 11.328125 20.140625 9.421875 
Q 21.96875 7.515625 27.59375 7.515625 
L 36.8125 7.515625 
L 36.8125 0 
L 27.59375 0 
Q 17.1875 0 13.234375 3.875 
Q 9.28125 7.765625 9.28125 18.015625 
L 9.28125 47.703125 
L 2.6875 47.703125 
L 2.6875 54.6875 
L 9.28125 54.6875 
L 9.28125 70.21875 
z
" id="DejaVuSans-116"/>
      <path d="M 56.203125 29.59375 
L 56.203125 25.203125 
L 14.890625 25.203125 
Q 15.484375 15.921875 20.484375 11.0625 
Q 25.484375 6.203125 34.421875 6.203125 
Q 39.59375 6.203125 44.453125 7.46875 
Q 49.3125 8.734375 54.109375 11.28125 
L 54.109375 2.78125 
Q 49.265625 0.734375 44.1875 -0.34375 
Q 39.109375 -1.421875 33.890625 -1.421875 
Q 20.796875 -1.421875 13.15625 6.1875 
Q 5.515625 13.8125 5.515625 26.8125 
Q 5.515625 40.234375 12.765625 48.109375 
Q 20.015625 56 32.328125 56 
Q 43.359375 56 49.78125 48.890625 
Q 56.203125 41.796875 56.203125 29.59375 
z
M 47.21875 32.234375 
Q 47.125 39.59375 43.09375 43.984375 
Q 39.0625 48.390625 32.421875 48.390625 
Q 24.90625 48.390625 20.390625 44.140625 
Q 15.875 39.890625 15.1875 32.171875 
z
" id="DejaVuSans-101"/>
      <path id="DejaVuSans-32"/>
      <path d="M 37.109375 75.984375 
L 37.109375 68.5 
L 28.515625 68.5 
Q 23.6875 68.5 21.796875 66.546875 
Q 19.921875 64.59375 19.921875 59.515625 
L 19.921875 54.6875 
L 34.71875 54.6875 
L 34.71875 47.703125 
L 19.921875 47.703125 
L 19.921875 0 
L 10.890625 0 
L 10.890625 47.703125 
L 2.296875 47.703125 
L 2.296875 54.6875 
L 10.890625 54.6875 
L 10.890625 58.5 
Q 10.890625 67.625 15.140625 71.796875 
Q 19.390625 75.984375 28.609375 75.984375 
z
" id="DejaVuSans-102"/>
      <path d="M 30.609375 48.390625 
Q 23.390625 48.390625 19.1875 42.75 
Q 14.984375 37.109375 14.984375 27.296875 
Q 14.984375 17.484375 19.15625 11.84375 
Q 23.34375 6.203125 30.609375 6.203125 
Q 37.796875 6.203125 41.984375 11.859375 
Q 46.1875 17.53125 46.1875 27.296875 
Q 46.1875 37.015625 41.984375 42.703125 
Q 37.796875 48.390625 30.609375 48.390625 
z
M 30.609375 56 
Q 42.328125 56 49.015625 48.375 
Q 55.71875 40.765625 55.71875 27.296875 
Q 55.71875 13.875 49.015625 6.21875 
Q 42.328125 -1.421875 30.609375 -1.421875 
Q 18.84375 -1.421875 12.171875 6.21875 
Q 5.515625 13.875 5.515625 27.296875 
Q 5.515625 40.765625 12.171875 48.375 
Q 18.84375 56 30.609375 56 
z
" id="DejaVuSans-111"/>
      <path d="M 52 44.1875 
Q 55.375 50.25 60.0625 53.125 
Q 64.75 56 71.09375 56 
Q 79.640625 56 84.28125 50.015625 
Q 88.921875 44.046875 88.921875 33.015625 
L 88.921875 0 
L 79.890625 0 
L 79.890625 32.71875 
Q 79.890625 40.578125 77.09375 44.375 
Q 74.3125 48.1875 68.609375 48.1875 
Q 61.625 48.1875 57.5625 43.546875 
Q 53.515625 38.921875 53.515625 30.90625 
L 53.515625 0 
L 44.484375 0 
L 44.484375 32.71875 
Q 44.484375 40.625 41.703125 44.40625 
Q 38.921875 48.1875 33.109375 48.1875 
Q 26.21875 48.1875 22.15625 43.53125 
Q 18.109375 38.875 18.109375 30.90625 
L 18.109375 0 
L 9.078125 0 
L 9.078125 54.6875 
L 18.109375 54.6875 
L 18.109375 46.1875 
Q 21.1875 51.21875 25.484375 53.609375 
Q 29.78125 56 35.6875 56 
Q 41.65625 56 45.828125 52.96875 
Q 50 49.953125 52 44.1875 
z
" id="DejaVuSans-109"/>
      <path d="M 48.78125 52.59375 
L 48.78125 44.1875 
Q 44.96875 46.296875 41.140625 47.34375 
Q 37.3125 48.390625 33.40625 48.390625 
Q 24.65625 48.390625 19.8125 42.84375 
Q 14.984375 37.3125 14.984375 27.296875 
Q 14.984375 17.28125 19.8125 11.734375 
Q 24.65625 6.203125 33.40625 6.203125 
Q 37.3125 6.203125 41.140625 7.25 
Q 44.96875 8.296875 48.78125 10.40625 
L 48.78125 2.09375 
Q 45.015625 0.34375 40.984375 -0.53125 
Q 36.96875 -1.421875 32.421875 -1.421875 
Q 20.0625 -1.421875 12.78125 6.34375 
Q 5.515625 14.109375 5.515625 27.296875 
Q 5.515625 40.671875 12.859375 48.328125 
Q 20.21875 56 33.015625 56 
Q 37.15625 56 41.109375 55.140625 
Q 45.0625 54.296875 48.78125 52.59375 
z
" id="DejaVuSans-99"/>
      <path d="M 9.421875 75.984375 
L 18.40625 75.984375 
L 18.40625 0 
L 9.421875 0 
z
" id="DejaVuSans-108"/>
      <path d="M 25.390625 72.90625 
L 33.6875 72.90625 
L 8.296875 -9.28125 
L 0 -9.28125 
z
" id="DejaVuSans-47"/>
      <path d="M 54.890625 33.015625 
L 54.890625 0 
L 45.90625 0 
L 45.90625 32.71875 
Q 45.90625 40.484375 42.875 44.328125 
Q 39.84375 48.1875 33.796875 48.1875 
Q 26.515625 48.1875 22.3125 43.546875 
Q 18.109375 38.921875 18.109375 30.90625 
L 18.109375 0 
L 9.078125 0 
L 9.078125 54.6875 
L 18.109375 54.6875 
L 18.109375 46.1875 
Q 21.34375 51.125 25.703125 53.5625 
Q 30.078125 56 35.796875 56 
Q 45.21875 56 50.046875 50.171875 
Q 54.890625 44.34375 54.890625 33.015625 
z
" id="DejaVuSans-110"/>
      <path d="M 9.421875 54.6875 
L 18.40625 54.6875 
L 18.40625 0 
L 9.421875 0 
z
M 9.421875 75.984375 
L 18.40625 75.984375 
L 18.40625 64.59375 
L 9.421875 64.59375 
z
" id="DejaVuSans-105"/>
      <path d="M 2.984375 54.6875 
L 12.5 54.6875 
L 29.59375 8.796875 
L 46.6875 54.6875 
L 56.203125 54.6875 
L 35.6875 0 
L 23.484375 0 
z
" id="DejaVuSans-118"/>
      <path d="M 44.28125 53.078125 
L 44.28125 44.578125 
Q 40.484375 46.53125 36.375 47.5 
Q 32.28125 48.484375 27.875 48.484375 
Q 21.1875 48.484375 17.84375 46.4375 
Q 14.5 44.390625 14.5 40.28125 
Q 14.5 37.15625 16.890625 35.375 
Q 19.28125 33.59375 26.515625 31.984375 
L 29.59375 31.296875 
Q 39.15625 29.25 43.1875 25.515625 
Q 47.21875 21.78125 47.21875 15.09375 
Q 47.21875 7.46875 41.1875 3.015625 
Q 35.15625 -1.421875 24.609375 -1.421875 
Q 20.21875 -1.421875 15.453125 -0.5625 
Q 10.6875 0.296875 5.421875 2 
L 5.421875 11.28125 
Q 10.40625 8.6875 15.234375 7.390625 
Q 20.0625 6.109375 24.8125 6.109375 
Q 31.15625 6.109375 34.5625 8.28125 
Q 37.984375 10.453125 37.984375 14.40625 
Q 37.984375 18.0625 35.515625 20.015625 
Q 33.0625 21.96875 24.703125 23.78125 
L 21.578125 24.515625 
Q 13.234375 26.265625 9.515625 29.90625 
Q 5.8125 33.546875 5.8125 39.890625 
Q 5.8125 47.609375 11.28125 51.796875 
Q 16.75 56 26.8125 56 
Q 31.78125 56 36.171875 55.265625 
Q 40.578125 54.546875 44.28125 53.078125 
z
" id="DejaVuSans-115"/>
      <path d="M 32.171875 -5.078125 
Q 28.375 -14.84375 24.75 -17.8125 
Q 21.140625 -20.796875 15.09375 -20.796875 
L 7.90625 -20.796875 
L 7.90625 -13.28125 
L 13.1875 -13.28125 
Q 16.890625 -13.28125 18.9375 -11.515625 
Q 21 -9.765625 23.484375 -3.21875 
L 25.09375 0.875 
L 2.984375 54.6875 
L 12.5 54.6875 
L 29.59375 11.921875 
L 46.6875 54.6875 
L 56.203125 54.6875 
z
" id="DejaVuSans-121"/>
     </defs>
     <use xlink:href="#DejaVuSans-103"/>
     <use x="63.476562" xlink:href="#DejaVuSans-114"/>
     <use x="104.589844" xlink:href="#DejaVuSans-97"/>
     <use x="165.869141" xlink:href="#DejaVuSans-100"/>
     <use x="229.345703" xlink:href="#DejaVuSans-117"/>
     <use x="292.724609" xlink:href="#DejaVuSans-97"/>
     <use x="354.003906" xlink:href="#DejaVuSans-116"/>
     <use x="393.212891" xlink:href="#DejaVuSans-101"/>
     <use x="454.736328" xlink:href="#DejaVuSans-100"/>
     <use x="518.212891" xlink:href="#DejaVuSans-32"/>
     <use x="550" xlink:href="#DejaVuSans-102"/>
     <use x="585.205078" xlink:href="#DejaVuSans-114"/>
     <use x="624.068359" xlink:href="#DejaVuSans-111"/>
     <use x="685.25" xlink:href="#DejaVuSans-109"/>
     <use x="782.662109" xlink:href="#DejaVuSans-32"/>
     <use x="814.449219" xlink:href="#DejaVuSans-99"/>
     <use x="869.429688" xlink:href="#DejaVuSans-111"/>
     <use x="930.611328" xlink:href="#DejaVuSans-108"/>
     <use x="958.394531" xlink:href="#DejaVuSans-108"/>
     <use x="986.177734" xlink:href="#DejaVuSans-101"/>
     <use x="1047.701172" xlink:href="#DejaVuSans-103"/>
     <use x="1111.177734" xlink:href="#DejaVuSans-101"/>
     <use x="1172.701172" xlink:href="#DejaVuSans-47"/>
     <use x="1206.392578" xlink:href="#DejaVuSans-117"/>
     <use x="1269.771484" xlink:href="#DejaVuSans-110"/>
     <use x="1333.150391" xlink:href="#DejaVuSans-105"/>
     <use x="1360.933594" xlink:href="#DejaVuSans-118"/>
     <use x="1420.113281" xlink:href="#DejaVuSans-101"/>
     <use x="1481.636719" xlink:href="#DejaVuSans-114"/>
     <use x="1522.75" xlink:href="#DejaVuSans-115"/>
     <use x="1574.849609" xlink:href="#DejaVuSans-105"/>
     <use x="1602.632812" xlink:href="#DejaVuSans-116"/>
     <use x="1641.841797" xlink:href="#DejaVuSans-121"/>
    </g>
   </g>
   <g id="text_2">
    <!-- 40.0% -->
    <g transform="translate(418.204172 111.249974)scale(0.1 -0.1)">
     <defs>
      <path d="M 37.796875 64.3125 
L 12.890625 25.390625 
L 37.796875 25.390625 
z
M 35.203125 72.90625 
L 47.609375 72.90625 
L 47.609375 25.390625 
L 58.015625 25.390625 
L 58.015625 17.1875 
L 47.609375 17.1875 
L 47.609375 0 
L 37.796875 0 
L 37.796875 17.1875 
L 4.890625 17.1875 
L 4.890625 26.703125 
z
" id="DejaVuSans-52"/>
      <path d="M 31.78125 66.40625 
Q 24.171875 66.40625 20.328125 58.90625 
Q 16.5 51.421875 16.5 36.375 
Q 16.5 21.390625 20.328125 13.890625 
Q 24.171875 6.390625 31.78125 6.390625 
Q 39.453125 6.390625 43.28125 13.890625 
Q 47.125 21.390625 47.125 36.375 
Q 47.125 51.421875 43.28125 58.90625 
Q 39.453125 66.40625 31.78125 66.40625 
z
M 31.78125 74.21875 
Q 44.046875 74.21875 50.515625 64.515625 
Q 56.984375 54.828125 56.984375 36.375 
Q 56.984375 17.96875 50.515625 8.265625 
Q 44.046875 -1.421875 31.78125 -1.421875 
Q 19.53125 -1.421875 13.0625 8.265625 
Q 6.59375 17.96875 6.59375 36.375 
Q 6.59375 54.828125 13.0625 64.515625 
Q 19.53125 74.21875 31.78125 74.21875 
z
" id="DejaVuSans-48"/>
      <path d="M 10.6875 12.40625 
L 21 12.40625 
L 21 0 
L 10.6875 0 
z
" id="DejaVuSans-46"/>
      <path d="M 72.703125 32.078125 
Q 68.453125 32.078125 66.03125 28.46875 
Q 63.625 24.859375 63.625 18.40625 
Q 63.625 12.0625 66.03125 8.421875 
Q 68.453125 4.78125 72.703125 4.78125 
Q 76.859375 4.78125 79.265625 8.421875 
Q 81.6875 12.0625 81.6875 18.40625 
Q 81.6875 24.8125 79.265625 28.4375 
Q 76.859375 32.078125 72.703125 32.078125 
z
M 72.703125 38.28125 
Q 80.421875 38.28125 84.953125 32.90625 
Q 89.5 27.546875 89.5 18.40625 
Q 89.5 9.28125 84.9375 3.921875 
Q 80.375 -1.421875 72.703125 -1.421875 
Q 64.890625 -1.421875 60.34375 3.921875 
Q 55.8125 9.28125 55.8125 18.40625 
Q 55.8125 27.59375 60.375 32.9375 
Q 64.9375 38.28125 72.703125 38.28125 
z
M 22.3125 68.015625 
Q 18.109375 68.015625 15.6875 64.375 
Q 13.28125 60.75 13.28125 54.390625 
Q 13.28125 47.953125 15.671875 44.328125 
Q 18.0625 40.71875 22.3125 40.71875 
Q 26.5625 40.71875 28.96875 44.328125 
Q 31.390625 47.953125 31.390625 54.390625 
Q 31.390625 60.6875 28.953125 64.34375 
Q 26.515625 68.015625 22.3125 68.015625 
z
M 66.40625 74.21875 
L 74.21875 74.21875 
L 28.609375 -1.421875 
L 20.796875 -1.421875 
z
M 22.3125 74.21875 
Q 30.03125 74.21875 34.609375 68.875 
Q 39.203125 63.53125 39.203125 54.390625 
Q 39.203125 45.171875 34.640625 39.84375 
Q 30.078125 34.515625 22.3125 34.515625 
Q 14.546875 34.515625 10.03125 39.859375 
Q 5.515625 45.21875 5.515625 54.390625 
Q 5.515625 63.484375 10.046875 68.84375 
Q 14.59375 74.21875 22.3125 74.21875 
z
" id="DejaVuSans-37"/>
     </defs>
     <use xlink:href="#DejaVuSans-52"/>
     <use x="63.623047" xlink:href="#DejaVuSans-48"/>
     <use x="127.246094" xlink:href="#DejaVuSans-46"/>
     <use x="159.033203" xlink:href="#DejaVuSans-48"/>
     <use x="222.65625" xlink:href="#DejaVuSans-37"/>
    </g>
   </g>
   <g id="text_3">
    <!-- graduated from masters program -->
    <g transform="translate(7.2 220.832368)scale(0.1 -0.1)">
     <defs>
      <path d="M 18.109375 8.203125 
L 18.109375 -20.796875 
L 9.078125 -20.796875 
L 9.078125 54.6875 
L 18.109375 54.6875 
L 18.109375 46.390625 
Q 20.953125 51.265625 25.265625 53.625 
Q 29.59375 56 35.59375 56 
Q 45.5625 56 51.78125 48.09375 
Q 58.015625 40.1875 58.015625 27.296875 
Q 58.015625 14.40625 51.78125 6.484375 
Q 45.5625 -1.421875 35.59375 -1.421875 
Q 29.59375 -1.421875 25.265625 0.953125 
Q 20.953125 3.328125 18.109375 8.203125 
z
M 48.6875 27.296875 
Q 48.6875 37.203125 44.609375 42.84375 
Q 40.53125 48.484375 33.40625 48.484375 
Q 26.265625 48.484375 22.1875 42.84375 
Q 18.109375 37.203125 18.109375 27.296875 
Q 18.109375 17.390625 22.1875 11.75 
Q 26.265625 6.109375 33.40625 6.109375 
Q 40.53125 6.109375 44.609375 11.75 
Q 48.6875 17.390625 48.6875 27.296875 
z
" id="DejaVuSans-112"/>
     </defs>
     <use xlink:href="#DejaVuSans-103"/>
     <use x="63.476562" xlink:href="#DejaVuSans-114"/>
     <use x="104.589844" xlink:href="#DejaVuSans-97"/>
     <use x="165.869141" xlink:href="#DejaVuSans-100"/>
     <use x="229.345703" xlink:href="#DejaVuSans-117"/>
     <use x="292.724609" xlink:href="#DejaVuSans-97"/>
     <use x="354.003906" xlink:href="#DejaVuSans-116"/>
     <use x="393.212891" xlink:href="#DejaVuSans-101"/>
     <use x="454.736328" xlink:href="#DejaVuSans-100"/>
     <use x="518.212891" xlink:href="#DejaVuSans-32"/>
     <use x="550" xlink:href="#DejaVuSans-102"/>
     <use x="585.205078" xlink:href="#DejaVuSans-114"/>
     <use x="624.068359" xlink:href="#DejaVuSans-111"/>
     <use x="685.25" xlink:href="#DejaVuSans-109"/>
     <use x="782.662109" xlink:href="#DejaVuSans-32"/>
     <use x="814.449219" xlink:href="#DejaVuSans-109"/>
     <use x="911.861328" xlink:href="#DejaVuSans-97"/>
     <use x="973.140625" xlink:href="#DejaVuSans-115"/>
     <use x="1025.240234" xlink:href="#DejaVuSans-116"/>
     <use x="1064.449219" xlink:href="#DejaVuSans-101"/>
     <use x="1125.972656" xlink:href="#DejaVuSans-114"/>
     <use x="1167.085938" xlink:href="#DejaVuSans-115"/>
     <use x="1219.185547" xlink:href="#DejaVuSans-32"/>
     <use x="1250.972656" xlink:href="#DejaVuSans-112"/>
     <use x="1314.449219" xlink:href="#DejaVuSans-114"/>
     <use x="1353.3125" xlink:href="#DejaVuSans-111"/>
     <use x="1414.494141" xlink:href="#DejaVuSans-103"/>
     <use x="1477.970703" xlink:href="#DejaVuSans-114"/>
     <use x="1519.083984" xlink:href="#DejaVuSans-97"/>
     <use x="1580.363281" xlink:href="#DejaVuSans-109"/>
    </g>
   </g>
   <g id="text_4">
    <!-- 15.0% -->
    <g transform="translate(222.874139 230.95647)scale(0.1 -0.1)">
     <defs>
      <path d="M 12.40625 8.296875 
L 28.515625 8.296875 
L 28.515625 63.921875 
L 10.984375 60.40625 
L 10.984375 69.390625 
L 28.421875 72.90625 
L 38.28125 72.90625 
L 38.28125 8.296875 
L 54.390625 8.296875 
L 54.390625 0 
L 12.40625 0 
z
" id="DejaVuSans-49"/>
      <path d="M 10.796875 72.90625 
L 49.515625 72.90625 
L 49.515625 64.59375 
L 19.828125 64.59375 
L 19.828125 46.734375 
Q 21.96875 47.46875 24.109375 47.828125 
Q 26.265625 48.1875 28.421875 48.1875 
Q 40.625 48.1875 47.75 41.5 
Q 54.890625 34.8125 54.890625 23.390625 
Q 54.890625 11.625 47.5625 5.09375 
Q 40.234375 -1.421875 26.90625 -1.421875 
Q 22.3125 -1.421875 17.546875 -0.640625 
Q 12.796875 0.140625 7.71875 1.703125 
L 7.71875 11.625 
Q 12.109375 9.234375 16.796875 8.0625 
Q 21.484375 6.890625 26.703125 6.890625 
Q 35.15625 6.890625 40.078125 11.328125 
Q 45.015625 15.765625 45.015625 23.390625 
Q 45.015625 31 40.078125 35.4375 
Q 35.15625 39.890625 26.703125 39.890625 
Q 22.75 39.890625 18.8125 39.015625 
Q 14.890625 38.140625 10.796875 36.28125 
z
" id="DejaVuSans-53"/>
     </defs>
     <use xlink:href="#DejaVuSans-49"/>
     <use x="63.623047" xlink:href="#DejaVuSans-53"/>
     <use x="127.246094" xlink:href="#DejaVuSans-46"/>
     <use x="159.033203" xlink:href="#DejaVuSans-48"/>
     <use x="222.65625" xlink:href="#DejaVuSans-37"/>
    </g>
   </g>
   <g id="text_5">
    <!-- nan -->
    <g transform="translate(198.633485 386.451845)scale(0.1 -0.1)">
     <use xlink:href="#DejaVuSans-110"/>
     <use x="63.378906" xlink:href="#DejaVuSans-97"/>
     <use x="124.658203" xlink:href="#DejaVuSans-110"/>
    </g>
   </g>
   <g id="text_6">
    <!-- 11.0% -->
    <g transform="translate(252.596172 346.890104)scale(0.1 -0.1)">
     <use xlink:href="#DejaVuSans-49"/>
     <use x="63.623047" xlink:href="#DejaVuSans-49"/>
     <use x="127.246094" xlink:href="#DejaVuSans-46"/>
     <use x="159.033203" xlink:href="#DejaVuSans-48"/>
     <use x="222.65625" xlink:href="#DejaVuSans-37"/>
    </g>
   </g>
   <g id="text_7">
    <!-- working on college/university -->
    <g transform="translate(183.964367 462.302975)scale(0.1 -0.1)">
     <defs>
      <path d="M 4.203125 54.6875 
L 13.1875 54.6875 
L 24.421875 12.015625 
L 35.59375 54.6875 
L 46.1875 54.6875 
L 57.421875 12.015625 
L 68.609375 54.6875 
L 77.59375 54.6875 
L 63.28125 0 
L 52.6875 0 
L 40.921875 44.828125 
L 29.109375 0 
L 18.5 0 
z
" id="DejaVuSans-119"/>
      <path d="M 9.078125 75.984375 
L 18.109375 75.984375 
L 18.109375 31.109375 
L 44.921875 54.6875 
L 56.390625 54.6875 
L 27.390625 29.109375 
L 57.625 0 
L 45.90625 0 
L 18.109375 26.703125 
L 18.109375 0 
L 9.078125 0 
z
" id="DejaVuSans-107"/>
     </defs>
     <use xlink:href="#DejaVuSans-119"/>
     <use x="81.787109" xlink:href="#DejaVuSans-111"/>
     <use x="142.96875" xlink:href="#DejaVuSans-114"/>
     <use x="184.082031" xlink:href="#DejaVuSans-107"/>
     <use x="241.992188" xlink:href="#DejaVuSans-105"/>
     <use x="269.775391" xlink:href="#DejaVuSans-110"/>
     <use x="333.154297" xlink:href="#DejaVuSans-103"/>
     <use x="396.630859" xlink:href="#DejaVuSans-32"/>
     <use x="428.417969" xlink:href="#DejaVuSans-111"/>
     <use x="489.599609" xlink:href="#DejaVuSans-110"/>
     <use x="552.978516" xlink:href="#DejaVuSans-32"/>
     <use x="584.765625" xlink:href="#DejaVuSans-99"/>
     <use x="639.746094" xlink:href="#DejaVuSans-111"/>
     <use x="700.927734" xlink:href="#DejaVuSans-108"/>
     <use x="728.710938" xlink:href="#DejaVuSans-108"/>
     <use x="756.494141" xlink:href="#DejaVuSans-101"/>
     <use x="818.017578" xlink:href="#DejaVuSans-103"/>
     <use x="881.494141" xlink:href="#DejaVuSans-101"/>
     <use x="943.017578" xlink:href="#DejaVuSans-47"/>
     <use x="976.708984" xlink:href="#DejaVuSans-117"/>
     <use x="1040.087891" xlink:href="#DejaVuSans-110"/>
     <use x="1103.466797" xlink:href="#DejaVuSans-105"/>
     <use x="1131.25" xlink:href="#DejaVuSans-118"/>
     <use x="1190.429688" xlink:href="#DejaVuSans-101"/>
     <use x="1251.953125" xlink:href="#DejaVuSans-114"/>
     <use x="1293.066406" xlink:href="#DejaVuSans-115"/>
     <use x="1345.166016" xlink:href="#DejaVuSans-105"/>
     <use x="1372.949219" xlink:href="#DejaVuSans-116"/>
     <use x="1412.158203" xlink:href="#DejaVuSans-121"/>
    </g>
   </g>
   <g id="text_8">
    <!-- 9.5% -->
    <g transform="translate(335.340914 399.985895)scale(0.1 -0.1)">
     <defs>
      <path d="M 10.984375 1.515625 
L 10.984375 10.5 
Q 14.703125 8.734375 18.5 7.8125 
Q 22.3125 6.890625 25.984375 6.890625 
Q 35.75 6.890625 40.890625 13.453125 
Q 46.046875 20.015625 46.78125 33.40625 
Q 43.953125 29.203125 39.59375 26.953125 
Q 35.25 24.703125 29.984375 24.703125 
Q 19.046875 24.703125 12.671875 31.3125 
Q 6.296875 37.9375 6.296875 49.421875 
Q 6.296875 60.640625 12.9375 67.421875 
Q 19.578125 74.21875 30.609375 74.21875 
Q 43.265625 74.21875 49.921875 64.515625 
Q 56.59375 54.828125 56.59375 36.375 
Q 56.59375 19.140625 48.40625 8.859375 
Q 40.234375 -1.421875 26.421875 -1.421875 
Q 22.703125 -1.421875 18.890625 -0.6875 
Q 15.09375 0.046875 10.984375 1.515625 
z
M 30.609375 32.421875 
Q 37.25 32.421875 41.125 36.953125 
Q 45.015625 41.5 45.015625 49.421875 
Q 45.015625 57.28125 41.125 61.84375 
Q 37.25 66.40625 30.609375 66.40625 
Q 23.96875 66.40625 20.09375 61.84375 
Q 16.21875 57.28125 16.21875 49.421875 
Q 16.21875 41.5 20.09375 36.953125 
Q 23.96875 32.421875 30.609375 32.421875 
z
" id="DejaVuSans-57"/>
     </defs>
     <use xlink:href="#DejaVuSans-57"/>
     <use x="63.623047" xlink:href="#DejaVuSans-46"/>
     <use x="95.410156" xlink:href="#DejaVuSans-53"/>
     <use x="159.033203" xlink:href="#DejaVuSans-37"/>
    </g>
   </g>
   <g id="text_9">
    <!-- other -->
    <g transform="translate(429.868433 465.650467)scale(0.1 -0.1)">
     <defs>
      <path d="M 54.890625 33.015625 
L 54.890625 0 
L 45.90625 0 
L 45.90625 32.71875 
Q 45.90625 40.484375 42.875 44.328125 
Q 39.84375 48.1875 33.796875 48.1875 
Q 26.515625 48.1875 22.3125 43.546875 
Q 18.109375 38.921875 18.109375 30.90625 
L 18.109375 0 
L 9.078125 0 
L 9.078125 75.984375 
L 18.109375 75.984375 
L 18.109375 46.1875 
Q 21.34375 51.125 25.703125 53.5625 
Q 30.078125 56 35.796875 56 
Q 45.21875 56 50.046875 50.171875 
Q 54.890625 44.34375 54.890625 33.015625 
z
" id="DejaVuSans-104"/>
     </defs>
     <use xlink:href="#DejaVuSans-111"/>
     <use x="61.181641" xlink:href="#DejaVuSans-116"/>
     <use x="100.390625" xlink:href="#DejaVuSans-104"/>
     <use x="163.769531" xlink:href="#DejaVuSans-101"/>
     <use x="225.292969" xlink:href="#DejaVuSans-114"/>
    </g>
   </g>
   <g id="text_10">
    <!-- 5.2% -->
    <g transform="translate(404.479698 402.32914)scale(0.1 -0.1)">
     <defs>
      <path d="M 19.1875 8.296875 
L 53.609375 8.296875 
L 53.609375 0 
L 7.328125 0 
L 7.328125 8.296875 
Q 12.9375 14.109375 22.625 23.890625 
Q 32.328125 33.6875 34.8125 36.53125 
Q 39.546875 41.84375 41.421875 45.53125 
Q 43.3125 49.21875 43.3125 52.78125 
Q 43.3125 58.59375 39.234375 62.25 
Q 35.15625 65.921875 28.609375 65.921875 
Q 23.96875 65.921875 18.8125 64.3125 
Q 13.671875 62.703125 7.8125 59.421875 
L 7.8125 69.390625 
Q 13.765625 71.78125 18.9375 73 
Q 24.125 74.21875 28.421875 74.21875 
Q 39.75 74.21875 46.484375 68.546875 
Q 53.21875 62.890625 53.21875 53.421875 
Q 53.21875 48.921875 51.53125 44.890625 
Q 49.859375 40.875 45.40625 35.40625 
Q 44.1875 33.984375 37.640625 27.21875 
Q 31.109375 20.453125 19.1875 8.296875 
z
" id="DejaVuSans-50"/>
     </defs>
     <use xlink:href="#DejaVuSans-53"/>
     <use x="63.623047" xlink:href="#DejaVuSans-46"/>
     <use x="95.410156" xlink:href="#DejaVuSans-50"/>
     <use x="159.033203" xlink:href="#DejaVuSans-37"/>
    </g>
   </g>
   <g id="text_11">
    <!-- working on masters program -->
    <g transform="translate(481.215649 448.413661)scale(0.1 -0.1)">
     <use xlink:href="#DejaVuSans-119"/>
     <use x="81.787109" xlink:href="#DejaVuSans-111"/>
     <use x="142.96875" xlink:href="#DejaVuSans-114"/>
     <use x="184.082031" xlink:href="#DejaVuSans-107"/>
     <use x="241.992188" xlink:href="#DejaVuSans-105"/>
     <use x="269.775391" xlink:href="#DejaVuSans-110"/>
     <use x="333.154297" xlink:href="#DejaVuSans-103"/>
     <use x="396.630859" xlink:href="#DejaVuSans-32"/>
     <use x="428.417969" xlink:href="#DejaVuSans-111"/>
     <use x="489.599609" xlink:href="#DejaVuSans-110"/>
     <use x="552.978516" xlink:href="#DejaVuSans-32"/>
     <use x="584.765625" xlink:href="#DejaVuSans-109"/>
     <use x="682.177734" xlink:href="#DejaVuSans-97"/>
     <use x="743.457031" xlink:href="#DejaVuSans-115"/>
     <use x="795.556641" xlink:href="#DejaVuSans-116"/>
     <use x="834.765625" xlink:href="#DejaVuSans-101"/>
     <use x="896.289062" xlink:href="#DejaVuSans-114"/>
     <use x="937.402344" xlink:href="#DejaVuSans-115"/>
     <use x="989.501953" xlink:href="#DejaVuSans-32"/>
     <use x="1021.289062" xlink:href="#DejaVuSans-112"/>
     <use x="1084.765625" xlink:href="#DejaVuSans-114"/>
     <use x="1123.628906" xlink:href="#DejaVuSans-111"/>
     <use x="1184.810547" xlink:href="#DejaVuSans-103"/>
     <use x="1248.287109" xlink:href="#DejaVuSans-114"/>
     <use x="1289.400391" xlink:href="#DejaVuSans-97"/>
     <use x="1350.679688" xlink:href="#DejaVuSans-109"/>
    </g>
   </g>
   <g id="text_12">
    <!-- 2.8% -->
    <g transform="translate(440.422749 390.263375)scale(0.1 -0.1)">
     <defs>
      <path d="M 31.78125 34.625 
Q 24.75 34.625 20.71875 30.859375 
Q 16.703125 27.09375 16.703125 20.515625 
Q 16.703125 13.921875 20.71875 10.15625 
Q 24.75 6.390625 31.78125 6.390625 
Q 38.8125 6.390625 42.859375 10.171875 
Q 46.921875 13.96875 46.921875 20.515625 
Q 46.921875 27.09375 42.890625 30.859375 
Q 38.875 34.625 31.78125 34.625 
z
M 21.921875 38.8125 
Q 15.578125 40.375 12.03125 44.71875 
Q 8.5 49.078125 8.5 55.328125 
Q 8.5 64.0625 14.71875 69.140625 
Q 20.953125 74.21875 31.78125 74.21875 
Q 42.671875 74.21875 48.875 69.140625 
Q 55.078125 64.0625 55.078125 55.328125 
Q 55.078125 49.078125 51.53125 44.71875 
Q 48 40.375 41.703125 38.8125 
Q 48.828125 37.15625 52.796875 32.3125 
Q 56.78125 27.484375 56.78125 20.515625 
Q 56.78125 9.90625 50.3125 4.234375 
Q 43.84375 -1.421875 31.78125 -1.421875 
Q 19.734375 -1.421875 13.25 4.234375 
Q 6.78125 9.90625 6.78125 20.515625 
Q 6.78125 27.484375 10.78125 32.3125 
Q 14.796875 37.15625 21.921875 38.8125 
z
M 18.3125 54.390625 
Q 18.3125 48.734375 21.84375 45.5625 
Q 25.390625 42.390625 31.78125 42.390625 
Q 38.140625 42.390625 41.71875 45.5625 
Q 45.3125 48.734375 45.3125 54.390625 
Q 45.3125 60.0625 41.71875 63.234375 
Q 38.140625 66.40625 31.78125 66.40625 
Q 25.390625 66.40625 21.84375 63.234375 
Q 18.3125 60.0625 18.3125 54.390625 
z
" id="DejaVuSans-56"/>
     </defs>
     <use xlink:href="#DejaVuSans-50"/>
     <use x="63.623047" xlink:href="#DejaVuSans-46"/>
     <use x="95.410156" xlink:href="#DejaVuSans-56"/>
     <use x="159.033203" xlink:href="#DejaVuSans-37"/>
    </g>
   </g>
   <g id="text_13">
    <!-- graduated from two-year college -->
    <g transform="translate(512.424134 429.945666)scale(0.1 -0.1)">
     <defs>
      <path d="M 4.890625 31.390625 
L 31.203125 31.390625 
L 31.203125 23.390625 
L 4.890625 23.390625 
z
" id="DejaVuSans-45"/>
     </defs>
     <use xlink:href="#DejaVuSans-103"/>
     <use x="63.476562" xlink:href="#DejaVuSans-114"/>
     <use x="104.589844" xlink:href="#DejaVuSans-97"/>
     <use x="165.869141" xlink:href="#DejaVuSans-100"/>
     <use x="229.345703" xlink:href="#DejaVuSans-117"/>
     <use x="292.724609" xlink:href="#DejaVuSans-97"/>
     <use x="354.003906" xlink:href="#DejaVuSans-116"/>
     <use x="393.212891" xlink:href="#DejaVuSans-101"/>
     <use x="454.736328" xlink:href="#DejaVuSans-100"/>
     <use x="518.212891" xlink:href="#DejaVuSans-32"/>
     <use x="550" xlink:href="#DejaVuSans-102"/>
     <use x="585.205078" xlink:href="#DejaVuSans-114"/>
     <use x="624.068359" xlink:href="#DejaVuSans-111"/>
     <use x="685.25" xlink:href="#DejaVuSans-109"/>
     <use x="782.662109" xlink:href="#DejaVuSans-32"/>
     <use x="814.449219" xlink:href="#DejaVuSans-116"/>
     <use x="853.658203" xlink:href="#DejaVuSans-119"/>
     <use x="935.445312" xlink:href="#DejaVuSans-111"/>
     <use x="998.501953" xlink:href="#DejaVuSans-45"/>
     <use x="1032.835938" xlink:href="#DejaVuSans-121"/>
     <use x="1092.015625" xlink:href="#DejaVuSans-101"/>
     <use x="1153.539062" xlink:href="#DejaVuSans-97"/>
     <use x="1214.818359" xlink:href="#DejaVuSans-114"/>
     <use x="1255.931641" xlink:href="#DejaVuSans-32"/>
     <use x="1287.71875" xlink:href="#DejaVuSans-99"/>
     <use x="1342.699219" xlink:href="#DejaVuSans-111"/>
     <use x="1403.880859" xlink:href="#DejaVuSans-108"/>
     <use x="1431.664062" xlink:href="#DejaVuSans-108"/>
     <use x="1459.447266" xlink:href="#DejaVuSans-101"/>
     <use x="1520.970703" xlink:href="#DejaVuSans-103"/>
     <use x="1584.447266" xlink:href="#DejaVuSans-101"/>
    </g>
   </g>
   <g id="text_14">
    <!-- 2.6% -->
    <g transform="translate(462.268689 377.335779)scale(0.1 -0.1)">
     <defs>
      <path d="M 33.015625 40.375 
Q 26.375 40.375 22.484375 35.828125 
Q 18.609375 31.296875 18.609375 23.390625 
Q 18.609375 15.53125 22.484375 10.953125 
Q 26.375 6.390625 33.015625 6.390625 
Q 39.65625 6.390625 43.53125 10.953125 
Q 47.40625 15.53125 47.40625 23.390625 
Q 47.40625 31.296875 43.53125 35.828125 
Q 39.65625 40.375 33.015625 40.375 
z
M 52.59375 71.296875 
L 52.59375 62.3125 
Q 48.875 64.0625 45.09375 64.984375 
Q 41.3125 65.921875 37.59375 65.921875 
Q 27.828125 65.921875 22.671875 59.328125 
Q 17.53125 52.734375 16.796875 39.40625 
Q 19.671875 43.65625 24.015625 45.921875 
Q 28.375 48.1875 33.59375 48.1875 
Q 44.578125 48.1875 50.953125 41.515625 
Q 57.328125 34.859375 57.328125 23.390625 
Q 57.328125 12.15625 50.6875 5.359375 
Q 44.046875 -1.421875 33.015625 -1.421875 
Q 20.359375 -1.421875 13.671875 8.265625 
Q 6.984375 17.96875 6.984375 36.375 
Q 6.984375 53.65625 15.1875 63.9375 
Q 23.390625 74.21875 37.203125 74.21875 
Q 40.921875 74.21875 44.703125 73.484375 
Q 48.484375 72.75 52.59375 71.296875 
z
" id="DejaVuSans-54"/>
     </defs>
     <use xlink:href="#DejaVuSans-50"/>
     <use x="63.623047" xlink:href="#DejaVuSans-46"/>
     <use x="95.410156" xlink:href="#DejaVuSans-54"/>
     <use x="159.033203" xlink:href="#DejaVuSans-37"/>
    </g>
   </g>
   <g id="text_15">
    <!-- graduated from high school -->
    <g transform="translate(537.968506 408.601174)scale(0.1 -0.1)">
     <use xlink:href="#DejaVuSans-103"/>
     <use x="63.476562" xlink:href="#DejaVuSans-114"/>
     <use x="104.589844" xlink:href="#DejaVuSans-97"/>
     <use x="165.869141" xlink:href="#DejaVuSans-100"/>
     <use x="229.345703" xlink:href="#DejaVuSans-117"/>
     <use x="292.724609" xlink:href="#DejaVuSans-97"/>
     <use x="354.003906" xlink:href="#DejaVuSans-116"/>
     <use x="393.212891" xlink:href="#DejaVuSans-101"/>
     <use x="454.736328" xlink:href="#DejaVuSans-100"/>
     <use x="518.212891" xlink:href="#DejaVuSans-32"/>
     <use x="550" xlink:href="#DejaVuSans-102"/>
     <use x="585.205078" xlink:href="#DejaVuSans-114"/>
     <use x="624.068359" xlink:href="#DejaVuSans-111"/>
     <use x="685.25" xlink:href="#DejaVuSans-109"/>
     <use x="782.662109" xlink:href="#DejaVuSans-32"/>
     <use x="814.449219" xlink:href="#DejaVuSans-104"/>
     <use x="877.828125" xlink:href="#DejaVuSans-105"/>
     <use x="905.611328" xlink:href="#DejaVuSans-103"/>
     <use x="969.087891" xlink:href="#DejaVuSans-104"/>
     <use x="1032.466797" xlink:href="#DejaVuSans-32"/>
     <use x="1064.253906" xlink:href="#DejaVuSans-115"/>
     <use x="1116.353516" xlink:href="#DejaVuSans-99"/>
     <use x="1171.333984" xlink:href="#DejaVuSans-104"/>
     <use x="1234.712891" xlink:href="#DejaVuSans-111"/>
     <use x="1295.894531" xlink:href="#DejaVuSans-111"/>
     <use x="1357.076172" xlink:href="#DejaVuSans-108"/>
    </g>
   </g>
   <g id="text_16">
    <!-- 2.4% -->
    <g transform="translate(480.149749 362.394635)scale(0.1 -0.1)">
     <use xlink:href="#DejaVuSans-50"/>
     <use x="63.623047" xlink:href="#DejaVuSans-46"/>
     <use x="95.410156" xlink:href="#DejaVuSans-52"/>
     <use x="159.033203" xlink:href="#DejaVuSans-37"/>
    </g>
   </g>
   <g id="text_17">
    <!-- graduated from ph.d program -->
    <g transform="translate(558.132142 385.923971)scale(0.1 -0.1)">
     <use xlink:href="#DejaVuSans-103"/>
     <use x="63.476562" xlink:href="#DejaVuSans-114"/>
     <use x="104.589844" xlink:href="#DejaVuSans-97"/>
     <use x="165.869141" xlink:href="#DejaVuSans-100"/>
     <use x="229.345703" xlink:href="#DejaVuSans-117"/>
     <use x="292.724609" xlink:href="#DejaVuSans-97"/>
     <use x="354.003906" xlink:href="#DejaVuSans-116"/>
     <use x="393.212891" xlink:href="#DejaVuSans-101"/>
     <use x="454.736328" xlink:href="#DejaVuSans-100"/>
     <use x="518.212891" xlink:href="#DejaVuSans-32"/>
     <use x="550" xlink:href="#DejaVuSans-102"/>
     <use x="585.205078" xlink:href="#DejaVuSans-114"/>
     <use x="624.068359" xlink:href="#DejaVuSans-111"/>
     <use x="685.25" xlink:href="#DejaVuSans-109"/>
     <use x="782.662109" xlink:href="#DejaVuSans-32"/>
     <use x="814.449219" xlink:href="#DejaVuSans-112"/>
     <use x="877.925781" xlink:href="#DejaVuSans-104"/>
     <use x="941.304688" xlink:href="#DejaVuSans-46"/>
     <use x="973.091797" xlink:href="#DejaVuSans-100"/>
     <use x="1036.568359" xlink:href="#DejaVuSans-32"/>
     <use x="1068.355469" xlink:href="#DejaVuSans-112"/>
     <use x="1131.832031" xlink:href="#DejaVuSans-114"/>
     <use x="1170.695312" xlink:href="#DejaVuSans-111"/>
     <use x="1231.876953" xlink:href="#DejaVuSans-103"/>
     <use x="1295.353516" xlink:href="#DejaVuSans-114"/>
     <use x="1336.466797" xlink:href="#DejaVuSans-97"/>
     <use x="1397.746094" xlink:href="#DejaVuSans-109"/>
    </g>
   </g>
   <g id="text_18">
    <!-- 2.1% -->
    <g transform="translate(494.264295 346.520592)scale(0.1 -0.1)">
     <use xlink:href="#DejaVuSans-50"/>
     <use x="63.623047" xlink:href="#DejaVuSans-46"/>
     <use x="95.410156" xlink:href="#DejaVuSans-49"/>
     <use x="159.033203" xlink:href="#DejaVuSans-37"/>
    </g>
   </g>
   <g id="text_19">
    <!-- graduated from law school -->
    <g transform="translate(573.223724 363.555784)scale(0.1 -0.1)">
     <use xlink:href="#DejaVuSans-103"/>
     <use x="63.476562" xlink:href="#DejaVuSans-114"/>
     <use x="104.589844" xlink:href="#DejaVuSans-97"/>
     <use x="165.869141" xlink:href="#DejaVuSans-100"/>
     <use x="229.345703" xlink:href="#DejaVuSans-117"/>
     <use x="292.724609" xlink:href="#DejaVuSans-97"/>
     <use x="354.003906" xlink:href="#DejaVuSans-116"/>
     <use x="393.212891" xlink:href="#DejaVuSans-101"/>
     <use x="454.736328" xlink:href="#DejaVuSans-100"/>
     <use x="518.212891" xlink:href="#DejaVuSans-32"/>
     <use x="550" xlink:href="#DejaVuSans-102"/>
     <use x="585.205078" xlink:href="#DejaVuSans-114"/>
     <use x="624.068359" xlink:href="#DejaVuSans-111"/>
     <use x="685.25" xlink:href="#DejaVuSans-109"/>
     <use x="782.662109" xlink:href="#DejaVuSans-32"/>
     <use x="814.449219" xlink:href="#DejaVuSans-108"/>
     <use x="842.232422" xlink:href="#DejaVuSans-97"/>
     <use x="903.511719" xlink:href="#DejaVuSans-119"/>
     <use x="985.298828" xlink:href="#DejaVuSans-32"/>
     <use x="1017.085938" xlink:href="#DejaVuSans-115"/>
     <use x="1069.185547" xlink:href="#DejaVuSans-99"/>
     <use x="1124.166016" xlink:href="#DejaVuSans-104"/>
     <use x="1187.544922" xlink:href="#DejaVuSans-111"/>
     <use x="1248.726562" xlink:href="#DejaVuSans-111"/>
     <use x="1309.908203" xlink:href="#DejaVuSans-108"/>
    </g>
   </g>
   <g id="text_20">
    <!-- 1.9% -->
    <g transform="translate(504.828402 330.862861)scale(0.1 -0.1)">
     <use xlink:href="#DejaVuSans-49"/>
     <use x="63.623047" xlink:href="#DejaVuSans-46"/>
     <use x="95.410156" xlink:href="#DejaVuSans-57"/>
     <use x="159.033203" xlink:href="#DejaVuSans-37"/>
    </g>
   </g>
   <g id="text_21">
    <!-- working on two-year college -->
    <g transform="translate(584.500276 341.538363)scale(0.1 -0.1)">
     <use xlink:href="#DejaVuSans-119"/>
     <use x="81.787109" xlink:href="#DejaVuSans-111"/>
     <use x="142.96875" xlink:href="#DejaVuSans-114"/>
     <use x="184.082031" xlink:href="#DejaVuSans-107"/>
     <use x="241.992188" xlink:href="#DejaVuSans-105"/>
     <use x="269.775391" xlink:href="#DejaVuSans-110"/>
     <use x="333.154297" xlink:href="#DejaVuSans-103"/>
     <use x="396.630859" xlink:href="#DejaVuSans-32"/>
     <use x="428.417969" xlink:href="#DejaVuSans-111"/>
     <use x="489.599609" xlink:href="#DejaVuSans-110"/>
     <use x="552.978516" xlink:href="#DejaVuSans-32"/>
     <use x="584.765625" xlink:href="#DejaVuSans-116"/>
     <use x="623.974609" xlink:href="#DejaVuSans-119"/>
     <use x="705.761719" xlink:href="#DejaVuSans-111"/>
     <use x="768.818359" xlink:href="#DejaVuSans-45"/>
     <use x="803.152344" xlink:href="#DejaVuSans-121"/>
     <use x="862.332031" xlink:href="#DejaVuSans-101"/>
     <use x="923.855469" xlink:href="#DejaVuSans-97"/>
     <use x="985.134766" xlink:href="#DejaVuSans-114"/>
     <use x="1026.248047" xlink:href="#DejaVuSans-32"/>
     <use x="1058.035156" xlink:href="#DejaVuSans-99"/>
     <use x="1113.015625" xlink:href="#DejaVuSans-111"/>
     <use x="1174.197266" xlink:href="#DejaVuSans-108"/>
     <use x="1201.980469" xlink:href="#DejaVuSans-108"/>
     <use x="1229.763672" xlink:href="#DejaVuSans-101"/>
     <use x="1291.287109" xlink:href="#DejaVuSans-103"/>
     <use x="1354.763672" xlink:href="#DejaVuSans-101"/>
    </g>
   </g>
   <g id="text_22">
    <!-- 1.8% -->
    <g transform="translate(512.721988 315.450667)scale(0.1 -0.1)">
     <use xlink:href="#DejaVuSans-49"/>
     <use x="63.623047" xlink:href="#DejaVuSans-46"/>
     <use x="95.410156" xlink:href="#DejaVuSans-56"/>
     <use x="159.033203" xlink:href="#DejaVuSans-37"/>
    </g>
   </g>
   <g id="text_23">
    <!-- dropped out of college/university -->
    <g transform="translate(592.753154 319.721106)scale(0.1 -0.1)">
     <use xlink:href="#DejaVuSans-100"/>
     <use x="63.476562" xlink:href="#DejaVuSans-114"/>
     <use x="102.339844" xlink:href="#DejaVuSans-111"/>
     <use x="163.521484" xlink:href="#DejaVuSans-112"/>
     <use x="226.998047" xlink:href="#DejaVuSans-112"/>
     <use x="290.474609" xlink:href="#DejaVuSans-101"/>
     <use x="351.998047" xlink:href="#DejaVuSans-100"/>
     <use x="415.474609" xlink:href="#DejaVuSans-32"/>
     <use x="447.261719" xlink:href="#DejaVuSans-111"/>
     <use x="508.443359" xlink:href="#DejaVuSans-117"/>
     <use x="571.822266" xlink:href="#DejaVuSans-116"/>
     <use x="611.03125" xlink:href="#DejaVuSans-32"/>
     <use x="642.818359" xlink:href="#DejaVuSans-111"/>
     <use x="704" xlink:href="#DejaVuSans-102"/>
     <use x="739.205078" xlink:href="#DejaVuSans-32"/>
     <use x="770.992188" xlink:href="#DejaVuSans-99"/>
     <use x="825.972656" xlink:href="#DejaVuSans-111"/>
     <use x="887.154297" xlink:href="#DejaVuSans-108"/>
     <use x="914.9375" xlink:href="#DejaVuSans-108"/>
     <use x="942.720703" xlink:href="#DejaVuSans-101"/>
     <use x="1004.244141" xlink:href="#DejaVuSans-103"/>
     <use x="1067.720703" xlink:href="#DejaVuSans-101"/>
     <use x="1129.244141" xlink:href="#DejaVuSans-47"/>
     <use x="1162.935547" xlink:href="#DejaVuSans-117"/>
     <use x="1226.314453" xlink:href="#DejaVuSans-110"/>
     <use x="1289.693359" xlink:href="#DejaVuSans-105"/>
     <use x="1317.476562" xlink:href="#DejaVuSans-118"/>
     <use x="1376.65625" xlink:href="#DejaVuSans-101"/>
     <use x="1438.179688" xlink:href="#DejaVuSans-114"/>
     <use x="1479.292969" xlink:href="#DejaVuSans-115"/>
     <use x="1531.392578" xlink:href="#DejaVuSans-105"/>
     <use x="1559.175781" xlink:href="#DejaVuSans-116"/>
     <use x="1598.384766" xlink:href="#DejaVuSans-121"/>
    </g>
   </g>
   <g id="text_24">
    <!-- 1.7% -->
    <g transform="translate(518.499003 300.178587)scale(0.1 -0.1)">
     <defs>
      <path d="M 8.203125 72.90625 
L 55.078125 72.90625 
L 55.078125 68.703125 
L 28.609375 0 
L 18.3125 0 
L 43.21875 64.59375 
L 8.203125 64.59375 
z
" id="DejaVuSans-55"/>
     </defs>
     <use xlink:href="#DejaVuSans-49"/>
     <use x="63.623047" xlink:href="#DejaVuSans-46"/>
     <use x="95.410156" xlink:href="#DejaVuSans-55"/>
     <use x="159.033203" xlink:href="#DejaVuSans-37"/>
    </g>
   </g>
   <g id="text_25">
    <!-- working on ph.d program -->
    <g transform="translate(598.397979 298.113882)scale(0.1 -0.1)">
     <use xlink:href="#DejaVuSans-119"/>
     <use x="81.787109" xlink:href="#DejaVuSans-111"/>
     <use x="142.96875" xlink:href="#DejaVuSans-114"/>
     <use x="184.082031" xlink:href="#DejaVuSans-107"/>
     <use x="241.992188" xlink:href="#DejaVuSans-105"/>
     <use x="269.775391" xlink:href="#DejaVuSans-110"/>
     <use x="333.154297" xlink:href="#DejaVuSans-103"/>
     <use x="396.630859" xlink:href="#DejaVuSans-32"/>
     <use x="428.417969" xlink:href="#DejaVuSans-111"/>
     <use x="489.599609" xlink:href="#DejaVuSans-110"/>
     <use x="552.978516" xlink:href="#DejaVuSans-32"/>
     <use x="584.765625" xlink:href="#DejaVuSans-112"/>
     <use x="648.242188" xlink:href="#DejaVuSans-104"/>
     <use x="711.621094" xlink:href="#DejaVuSans-46"/>
     <use x="743.408203" xlink:href="#DejaVuSans-100"/>
     <use x="806.884766" xlink:href="#DejaVuSans-32"/>
     <use x="838.671875" xlink:href="#DejaVuSans-112"/>
     <use x="902.148438" xlink:href="#DejaVuSans-114"/>
     <use x="941.011719" xlink:href="#DejaVuSans-111"/>
     <use x="1002.193359" xlink:href="#DejaVuSans-103"/>
     <use x="1065.669922" xlink:href="#DejaVuSans-114"/>
     <use x="1106.783203" xlink:href="#DejaVuSans-97"/>
     <use x="1168.0625" xlink:href="#DejaVuSans-109"/>
    </g>
   </g>
   <g id="text_26">
    <!-- 1.6% -->
    <g transform="translate(522.45038 285.05353)scale(0.1 -0.1)">
     <use xlink:href="#DejaVuSans-49"/>
     <use x="63.623047" xlink:href="#DejaVuSans-46"/>
     <use x="95.410156" xlink:href="#DejaVuSans-54"/>
     <use x="159.033203" xlink:href="#DejaVuSans-37"/>
    </g>
   </g>
   <g id="text_27">
    <!-- college/university -->
    <g transform="translate(601.537841 278.275761)scale(0.1 -0.1)">
     <use xlink:href="#DejaVuSans-99"/>
     <use x="54.980469" xlink:href="#DejaVuSans-111"/>
     <use x="116.162109" xlink:href="#DejaVuSans-108"/>
     <use x="143.945312" xlink:href="#DejaVuSans-108"/>
     <use x="171.728516" xlink:href="#DejaVuSans-101"/>
     <use x="233.251953" xlink:href="#DejaVuSans-103"/>
     <use x="296.728516" xlink:href="#DejaVuSans-101"/>
     <use x="358.251953" xlink:href="#DejaVuSans-47"/>
     <use x="391.943359" xlink:href="#DejaVuSans-117"/>
     <use x="455.322266" xlink:href="#DejaVuSans-110"/>
     <use x="518.701172" xlink:href="#DejaVuSans-105"/>
     <use x="546.484375" xlink:href="#DejaVuSans-118"/>
     <use x="605.664062" xlink:href="#DejaVuSans-101"/>
     <use x="667.1875" xlink:href="#DejaVuSans-114"/>
     <use x="708.300781" xlink:href="#DejaVuSans-115"/>
     <use x="760.400391" xlink:href="#DejaVuSans-105"/>
     <use x="788.183594" xlink:href="#DejaVuSans-116"/>
     <use x="827.392578" xlink:href="#DejaVuSans-121"/>
    </g>
   </g>
   <g id="text_28">
    <!-- 1.3% -->
    <g transform="translate(524.648283 271.166845)scale(0.1 -0.1)">
     <defs>
      <path d="M 40.578125 39.3125 
Q 47.65625 37.796875 51.625 33 
Q 55.609375 28.21875 55.609375 21.1875 
Q 55.609375 10.40625 48.1875 4.484375 
Q 40.765625 -1.421875 27.09375 -1.421875 
Q 22.515625 -1.421875 17.65625 -0.515625 
Q 12.796875 0.390625 7.625 2.203125 
L 7.625 11.71875 
Q 11.71875 9.328125 16.59375 8.109375 
Q 21.484375 6.890625 26.8125 6.890625 
Q 36.078125 6.890625 40.9375 10.546875 
Q 45.796875 14.203125 45.796875 21.1875 
Q 45.796875 27.640625 41.28125 31.265625 
Q 36.765625 34.90625 28.71875 34.90625 
L 20.21875 34.90625 
L 20.21875 43.015625 
L 29.109375 43.015625 
Q 36.375 43.015625 40.234375 45.921875 
Q 44.09375 48.828125 44.09375 54.296875 
Q 44.09375 59.90625 40.109375 62.90625 
Q 36.140625 65.921875 28.71875 65.921875 
Q 24.65625 65.921875 20.015625 65.03125 
Q 15.375 64.15625 9.8125 62.3125 
L 9.8125 71.09375 
Q 15.4375 72.65625 20.34375 73.4375 
Q 25.25 74.21875 29.59375 74.21875 
Q 40.828125 74.21875 47.359375 69.109375 
Q 53.90625 64.015625 53.90625 55.328125 
Q 53.90625 49.265625 50.4375 45.09375 
Q 46.96875 40.921875 40.578125 39.3125 
z
" id="DejaVuSans-51"/>
     </defs>
     <use xlink:href="#DejaVuSans-49"/>
     <use x="63.623047" xlink:href="#DejaVuSans-46"/>
     <use x="95.410156" xlink:href="#DejaVuSans-51"/>
     <use x="159.033203" xlink:href="#DejaVuSans-37"/>
    </g>
   </g>
   <g id="text_29">
    <!-- graduated from space camp -->
    <g transform="translate(602.719839 261.950053)scale(0.1 -0.1)">
     <use xlink:href="#DejaVuSans-103"/>
     <use x="63.476562" xlink:href="#DejaVuSans-114"/>
     <use x="104.589844" xlink:href="#DejaVuSans-97"/>
     <use x="165.869141" xlink:href="#DejaVuSans-100"/>
     <use x="229.345703" xlink:href="#DejaVuSans-117"/>
     <use x="292.724609" xlink:href="#DejaVuSans-97"/>
     <use x="354.003906" xlink:href="#DejaVuSans-116"/>
     <use x="393.212891" xlink:href="#DejaVuSans-101"/>
     <use x="454.736328" xlink:href="#DejaVuSans-100"/>
     <use x="518.212891" xlink:href="#DejaVuSans-32"/>
     <use x="550" xlink:href="#DejaVuSans-102"/>
     <use x="585.205078" xlink:href="#DejaVuSans-114"/>
     <use x="624.068359" xlink:href="#DejaVuSans-111"/>
     <use x="685.25" xlink:href="#DejaVuSans-109"/>
     <use x="782.662109" xlink:href="#DejaVuSans-32"/>
     <use x="814.449219" xlink:href="#DejaVuSans-115"/>
     <use x="866.548828" xlink:href="#DejaVuSans-112"/>
     <use x="930.025391" xlink:href="#DejaVuSans-97"/>
     <use x="991.304688" xlink:href="#DejaVuSans-99"/>
     <use x="1046.285156" xlink:href="#DejaVuSans-101"/>
     <use x="1107.808594" xlink:href="#DejaVuSans-32"/>
     <use x="1139.595703" xlink:href="#DejaVuSans-99"/>
     <use x="1194.576172" xlink:href="#DejaVuSans-97"/>
     <use x="1255.855469" xlink:href="#DejaVuSans-109"/>
     <use x="1353.267578" xlink:href="#DejaVuSans-112"/>
    </g>
   </g>
   <g id="text_30">
    <!-- 1.1% -->
    <g transform="translate(525.475682 259.738849)scale(0.1 -0.1)">
     <use xlink:href="#DejaVuSans-49"/>
     <use x="63.623047" xlink:href="#DejaVuSans-46"/>
     <use x="95.410156" xlink:href="#DejaVuSans-49"/>
     <use x="159.033203" xlink:href="#DejaVuSans-37"/>
    </g>
   </g>
   <g id="text_31">
    <!-- education -->
    <g transform="translate(337.96015 257.33875)scale(0.2 -0.2)">
     <use xlink:href="#DejaVuSans-101"/>
     <use x="61.523438" xlink:href="#DejaVuSans-100"/>
     <use x="125" xlink:href="#DejaVuSans-117"/>
     <use x="188.378906" xlink:href="#DejaVuSans-99"/>
     <use x="243.359375" xlink:href="#DejaVuSans-97"/>
     <use x="304.638672" xlink:href="#DejaVuSans-116"/>
     <use x="343.847656" xlink:href="#DejaVuSans-105"/>
     <use x="371.630859" xlink:href="#DejaVuSans-111"/>
     <use x="432.8125" xlink:href="#DejaVuSans-110"/>
    </g>
   </g>
  </g>
 </g>
</svg>
