<?xml version="1.0" encoding="utf-8" standalone="no"?>
<!DOCTYPE svg PUBLIC "-//W3C//DTD SVG 1.1//EN"
  "http://www.w3.org/Graphics/SVG/1.1/DTD/svg11.dtd">
<!-- Created with matplotlib (https://matplotlib.org/) -->
<svg height="420.218182pt" version="1.1" viewBox="0 0 909.489539 420.218182" width="909.489539pt" xmlns="http://www.w3.org/2000/svg" xmlns:xlink="http://www.w3.org/1999/xlink">
 <metadata>
  <rdf:RDF xmlns:cc="http://creativecommons.org/ns#" xmlns:dc="http://purl.org/dc/elements/1.1/" xmlns:rdf="http://www.w3.org/1999/02/22-rdf-syntax-ns#">
   <cc:Work>
    <dc:type rdf:resource="http://purl.org/dc/dcmitype/StillImage"/>
    <dc:date>2021-05-15T15:14:01.871615</dc:date>
    <dc:format>image/svg+xml</dc:format>
    <dc:creator>
     <cc:Agent>
      <dc:title>Matplotlib v3.3.4, https://matplotlib.org/</dc:title>
     </cc:Agent>
    </dc:creator>
   </cc:Work>
  </rdf:RDF>
 </metadata>
 <defs>
  <style type="text/css">*{stroke-linecap:butt;stroke-linejoin:round;}</style>
 </defs>
 <g id="figure_1">
  <g id="patch_1">
   <path d="M 0 420.218182 
L 909.489539 420.218182 
L 909.489539 0 
L 0 0 
z
" style="fill:none;"/>
  </g>
  <g id="axes_1">
   <g id="patch_2">
    <path d="M 372.436364 210.109091 
C 372.436364 188.005639 367.921756 166.133317 359.169988 145.836294 
C 350.41822 125.539271 337.61232 107.242028 321.539279 92.069028 
C 305.466239 76.896027 286.4622 65.164588 265.69506 57.59567 
C 244.927921 50.026752 222.831995 46.778647 200.765192 48.050969 
C 178.698389 49.32329 157.122203 55.089428 137.362604 64.995025 
C 117.603005 74.900622 100.073235 88.738516 85.850591 105.658296 
C 71.627946 122.578076 61.009871 142.225892 54.648903 163.39428 
C 48.287935 184.562669 46.317104 206.808926 48.857527 228.765903 
L 64.982684 226.900222 
C 62.696303 207.138943 64.470051 187.117311 70.194922 168.065761 
C 75.919793 149.014211 85.47606 131.331178 98.276441 116.103376 
C 111.076821 100.875573 126.853614 88.421469 144.637253 79.506432 
C 162.420892 70.591395 181.839459 65.40187 201.699582 64.256781 
C 221.559704 63.111692 241.446038 66.034986 260.136463 72.847012 
C 278.826889 79.659039 295.930524 90.217333 310.396261 103.873034 
C 324.861997 117.528735 336.387307 133.996253 344.263898 152.263574 
C 352.14049 170.530894 356.203636 190.215984 356.203636 210.109091 
L 372.436364 210.109091 
z
" style="fill:#1f77b4;stroke:#000000;stroke-linejoin:miter;stroke-width:0.7;"/>
   </g>
   <g id="patch_3">
    <path d="M 48.857527 228.765903 
C 51.881243 254.899998 61.213459 279.91144 76.047711 301.638812 
C 90.881963 323.366185 110.778267 341.165051 134.017238 353.497282 
L 141.626423 339.158463 
C 120.711349 328.059455 102.804676 312.040475 89.453849 292.48584 
C 76.103022 272.931205 67.704028 250.420907 64.982684 226.900222 
L 48.857527 228.765903 
z
" style="fill:#aec7e8;stroke:#000000;stroke-linejoin:miter;stroke-width:0.7;"/>
   </g>
   <g id="patch_4">
    <path d="M 134.017238 353.497282 
C 152.154153 363.122004 171.953596 369.218753 192.363016 371.463422 
C 212.772436 373.708092 233.423651 372.060188 253.21883 366.607314 
L 248.907856 350.957492 
C 231.092195 355.865078 212.506101 357.348192 194.137623 355.327989 
C 175.769145 353.307787 157.949647 347.820713 141.626423 339.158463 
L 134.017238 353.497282 
z
" style="fill:#ff7f0e;stroke:#000000;stroke-linejoin:miter;stroke-width:0.7;"/>
   </g>
   <g id="patch_5">
    <path d="M 253.21883 366.607314 
C 264.741404 363.433251 275.878268 358.996307 286.426744 353.377228 
C 296.97522 347.75815 306.870928 340.991232 315.933777 333.199624 
L 305.351309 320.89057 
C 297.194744 327.903018 288.288607 333.993244 278.794979 339.050415 
C 269.301351 344.107586 259.278173 348.100835 248.907856 350.957492 
L 253.21883 366.607314 
z
" style="fill:#ffbb78;stroke:#000000;stroke-linejoin:miter;stroke-width:0.7;"/>
   </g>
   <g id="patch_6">
    <path d="M 315.933777 333.199624 
C 318.793916 330.740675 321.567481 328.182786 324.249423 325.530615 
C 326.931364 322.878443 329.520051 320.133601 332.010771 317.301087 
L 319.820603 306.581887 
C 317.578955 309.13115 315.249136 311.601508 312.835389 313.988462 
C 310.421642 316.375416 307.925433 318.677517 305.351309 320.89057 
L 315.933777 333.199624 
z
" style="fill:#2ca02c;stroke:#000000;stroke-linejoin:miter;stroke-width:0.7;"/>
   </g>
   <g id="patch_7">
    <path d="M 332.010771 317.301087 
C 334.004024 315.034304 335.933664 312.712364 337.797437 310.337978 
C 339.661211 307.963591 341.458393 305.53768 343.186889 303.063075 
L 329.879109 293.767677 
C 328.323463 295.994821 326.705999 298.178141 325.028602 300.315089 
C 323.351206 302.452037 321.614531 304.541782 319.820603 306.581887 
L 332.010771 317.301087 
z
" style="fill:#98df8a;stroke:#000000;stroke-linejoin:miter;stroke-width:0.7;"/>
   </g>
   <g id="patch_8">
    <path d="M 343.186889 303.063075 
C 344.666338 300.945018 346.09501 298.791943 347.471684 296.605689 
C 348.848358 294.419435 350.172641 292.200627 351.443402 289.95116 
L 337.309971 281.966953 
C 336.166286 283.991473 334.974431 285.988401 333.735425 287.956029 
C 332.496418 289.923657 331.210613 291.861425 329.879109 293.767677 
L 343.186889 303.063075 
z
" style="fill:#d62728;stroke:#000000;stroke-linejoin:miter;stroke-width:0.7;"/>
   </g>
   <g id="patch_9">
    <path d="M 351.443402 289.95116 
C 352.494665 288.090242 353.509072 286.208744 354.486029 284.307765 
C 355.462987 282.406786 356.402304 280.486697 357.303432 278.548622 
L 342.583998 271.704669 
C 341.772983 273.448936 340.927597 275.177016 340.048335 276.887897 
C 339.169074 278.598778 338.256108 280.292127 337.309971 281.966953 
L 351.443402 289.95116 
z
" style="fill:#ff9896;stroke:#000000;stroke-linejoin:miter;stroke-width:0.7;"/>
   </g>
   <g id="patch_10">
    <path d="M 357.303432 278.548622 
C 358.196172 276.628588 359.051258 274.691271 359.868199 272.737782 
C 360.685141 270.784293 361.463782 268.815007 362.203675 266.831054 
L 346.994216 261.158857 
C 346.328313 262.944415 345.627536 264.716773 344.892288 266.474913 
C 344.157041 268.233053 343.387463 269.976639 342.583998 271.704669 
L 357.303432 278.548622 
z
" style="fill:#9467bd;stroke:#000000;stroke-linejoin:miter;stroke-width:0.7;"/>
   </g>
   <g id="patch_11">
    <path d="M 362.203675 266.831054 
C 362.934629 264.871069 363.627628 262.897138 364.282285 260.910367 
C 364.936942 258.923597 365.553133 256.924357 366.130514 254.913769 
L 350.528371 250.433301 
C 350.008729 252.24283 349.454157 254.042146 348.864966 255.83024 
C 348.275775 257.618334 347.652075 259.394871 346.994216 261.158857 
L 362.203675 266.831054 
z
" style="fill:#c5b0d5;stroke:#000000;stroke-linejoin:miter;stroke-width:0.7;"/>
   </g>
   <g id="patch_12">
    <path d="M 366.130514 254.913769 
C 366.673375 253.023385 367.181835 251.123292 367.655642 249.21443 
C 368.12945 247.305568 368.568526 245.388253 368.972653 243.463434 
L 353.086297 240.128 
C 352.722582 241.860337 352.327414 243.585921 351.900987 245.303896 
C 351.474561 247.021872 351.016947 248.731956 350.528371 250.433301 
L 366.130514 254.913769 
z
" style="fill:#8c564b;stroke:#000000;stroke-linejoin:miter;stroke-width:0.7;"/>
   </g>
   <g id="patch_13">
    <path d="M 368.972653 243.463434 
C 369.369771 241.571995 369.733079 239.673615 370.062402 237.769201 
C 370.391725 235.864788 370.687011 233.954645 370.948118 232.039686 
L 354.864215 229.846626 
C 354.629219 231.570089 354.363462 233.289218 354.067071 235.00319 
C 353.77068 236.717162 353.443703 238.425705 353.086297 240.128 
L 368.972653 243.463434 
z
" style="fill:#c49c94;stroke:#000000;stroke-linejoin:miter;stroke-width:0.7;"/>
   </g>
   <g id="patch_14">
    <path d="M 370.948118 232.039686 
C 371.196168 230.22048 371.413337 228.397196 371.599529 226.570622 
C 371.78572 224.744048 371.940909 222.914446 372.065028 221.082607 
L 355.869434 219.985255 
C 355.757727 221.633911 355.618058 223.280552 355.450485 224.924469 
C 355.282912 226.568386 355.087461 228.209341 354.864215 229.846626 
L 370.948118 232.039686 
z
" style="fill:#e377c2;stroke:#000000;stroke-linejoin:miter;stroke-width:0.7;"/>
   </g>
   <g id="patch_15">
    <path d="M 372.065028 221.082607 
C 372.188762 219.256439 372.2816 217.42831 372.343503 215.599002 
C 372.405405 213.769694 372.436363 211.93947 372.436364 210.109116 
L 356.203636 210.109113 
C 356.203636 211.756432 356.175774 213.403634 356.120061 215.050011 
C 356.064349 216.696388 355.980795 218.341705 355.869434 219.985255 
L 372.065028 221.082607 
z
" style="fill:#f7b6d2;stroke:#000000;stroke-linejoin:miter;stroke-width:0.7;"/>
   </g>
   <g id="matplotlib.axis_1"/>
   <g id="matplotlib.axis_2"/>
   <g id="text_1">
    <!-- san francisco -->
    <g transform="translate(133.777677 34.604531)scale(0.1 -0.1)">
     <defs>
      <path d="M 44.28125 53.078125 
L 44.28125 44.578125 
Q 40.484375 46.53125 36.375 47.5 
Q 32.28125 48.484375 27.875 48.484375 
Q 21.1875 48.484375 17.84375 46.4375 
Q 14.5 44.390625 14.5 40.28125 
Q 14.5 37.15625 16.890625 35.375 
Q 19.28125 33.59375 26.515625 31.984375 
L 29.59375 31.296875 
Q 39.15625 29.25 43.1875 25.515625 
Q 47.21875 21.78125 47.21875 15.09375 
Q 47.21875 7.46875 41.1875 3.015625 
Q 35.15625 -1.421875 24.609375 -1.421875 
Q 20.21875 -1.421875 15.453125 -0.5625 
Q 10.6875 0.296875 5.421875 2 
L 5.421875 11.28125 
Q 10.40625 8.6875 15.234375 7.390625 
Q 20.0625 6.109375 24.8125 6.109375 
Q 31.15625 6.109375 34.5625 8.28125 
Q 37.984375 10.453125 37.984375 14.40625 
Q 37.984375 18.0625 35.515625 20.015625 
Q 33.0625 21.96875 24.703125 23.78125 
L 21.578125 24.515625 
Q 13.234375 26.265625 9.515625 29.90625 
Q 5.8125 33.546875 5.8125 39.890625 
Q 5.8125 47.609375 11.28125 51.796875 
Q 16.75 56 26.8125 56 
Q 31.78125 56 36.171875 55.265625 
Q 40.578125 54.546875 44.28125 53.078125 
z
" id="DejaVuSans-115"/>
      <path d="M 34.28125 27.484375 
Q 23.390625 27.484375 19.1875 25 
Q 14.984375 22.515625 14.984375 16.5 
Q 14.984375 11.71875 18.140625 8.90625 
Q 21.296875 6.109375 26.703125 6.109375 
Q 34.1875 6.109375 38.703125 11.40625 
Q 43.21875 16.703125 43.21875 25.484375 
L 43.21875 27.484375 
z
M 52.203125 31.203125 
L 52.203125 0 
L 43.21875 0 
L 43.21875 8.296875 
Q 40.140625 3.328125 35.546875 0.953125 
Q 30.953125 -1.421875 24.3125 -1.421875 
Q 15.921875 -1.421875 10.953125 3.296875 
Q 6 8.015625 6 15.921875 
Q 6 25.140625 12.171875 29.828125 
Q 18.359375 34.515625 30.609375 34.515625 
L 43.21875 34.515625 
L 43.21875 35.40625 
Q 43.21875 41.609375 39.140625 45 
Q 35.0625 48.390625 27.6875 48.390625 
Q 23 48.390625 18.546875 47.265625 
Q 14.109375 46.140625 10.015625 43.890625 
L 10.015625 52.203125 
Q 14.9375 54.109375 19.578125 55.046875 
Q 24.21875 56 28.609375 56 
Q 40.484375 56 46.34375 49.84375 
Q 52.203125 43.703125 52.203125 31.203125 
z
" id="DejaVuSans-97"/>
      <path d="M 54.890625 33.015625 
L 54.890625 0 
L 45.90625 0 
L 45.90625 32.71875 
Q 45.90625 40.484375 42.875 44.328125 
Q 39.84375 48.1875 33.796875 48.1875 
Q 26.515625 48.1875 22.3125 43.546875 
Q 18.109375 38.921875 18.109375 30.90625 
L 18.109375 0 
L 9.078125 0 
L 9.078125 54.6875 
L 18.109375 54.6875 
L 18.109375 46.1875 
Q 21.34375 51.125 25.703125 53.5625 
Q 30.078125 56 35.796875 56 
Q 45.21875 56 50.046875 50.171875 
Q 54.890625 44.34375 54.890625 33.015625 
z
" id="DejaVuSans-110"/>
      <path id="DejaVuSans-32"/>
      <path d="M 37.109375 75.984375 
L 37.109375 68.5 
L 28.515625 68.5 
Q 23.6875 68.5 21.796875 66.546875 
Q 19.921875 64.59375 19.921875 59.515625 
L 19.921875 54.6875 
L 34.71875 54.6875 
L 34.71875 47.703125 
L 19.921875 47.703125 
L 19.921875 0 
L 10.890625 0 
L 10.890625 47.703125 
L 2.296875 47.703125 
L 2.296875 54.6875 
L 10.890625 54.6875 
L 10.890625 58.5 
Q 10.890625 67.625 15.140625 71.796875 
Q 19.390625 75.984375 28.609375 75.984375 
z
" id="DejaVuSans-102"/>
      <path d="M 41.109375 46.296875 
Q 39.59375 47.171875 37.8125 47.578125 
Q 36.03125 48 33.890625 48 
Q 26.265625 48 22.1875 43.046875 
Q 18.109375 38.09375 18.109375 28.8125 
L 18.109375 0 
L 9.078125 0 
L 9.078125 54.6875 
L 18.109375 54.6875 
L 18.109375 46.1875 
Q 20.953125 51.171875 25.484375 53.578125 
Q 30.03125 56 36.53125 56 
Q 37.453125 56 38.578125 55.875 
Q 39.703125 55.765625 41.0625 55.515625 
z
" id="DejaVuSans-114"/>
      <path d="M 48.78125 52.59375 
L 48.78125 44.1875 
Q 44.96875 46.296875 41.140625 47.34375 
Q 37.3125 48.390625 33.40625 48.390625 
Q 24.65625 48.390625 19.8125 42.84375 
Q 14.984375 37.3125 14.984375 27.296875 
Q 14.984375 17.28125 19.8125 11.734375 
Q 24.65625 6.203125 33.40625 6.203125 
Q 37.3125 6.203125 41.140625 7.25 
Q 44.96875 8.296875 48.78125 10.40625 
L 48.78125 2.09375 
Q 45.015625 0.34375 40.984375 -0.53125 
Q 36.96875 -1.421875 32.421875 -1.421875 
Q 20.0625 -1.421875 12.78125 6.34375 
Q 5.515625 14.109375 5.515625 27.296875 
Q 5.515625 40.671875 12.859375 48.328125 
Q 20.21875 56 33.015625 56 
Q 37.15625 56 41.109375 55.140625 
Q 45.0625 54.296875 48.78125 52.59375 
z
" id="DejaVuSans-99"/>
      <path d="M 9.421875 54.6875 
L 18.40625 54.6875 
L 18.40625 0 
L 9.421875 0 
z
M 9.421875 75.984375 
L 18.40625 75.984375 
L 18.40625 64.59375 
L 9.421875 64.59375 
z
" id="DejaVuSans-105"/>
      <path d="M 30.609375 48.390625 
Q 23.390625 48.390625 19.1875 42.75 
Q 14.984375 37.109375 14.984375 27.296875 
Q 14.984375 17.484375 19.15625 11.84375 
Q 23.34375 6.203125 30.609375 6.203125 
Q 37.796875 6.203125 41.984375 11.859375 
Q 46.1875 17.53125 46.1875 27.296875 
Q 46.1875 37.015625 41.984375 42.703125 
Q 37.796875 48.390625 30.609375 48.390625 
z
M 30.609375 56 
Q 42.328125 56 49.015625 48.375 
Q 55.71875 40.765625 55.71875 27.296875 
Q 55.71875 13.875 49.015625 6.21875 
Q 42.328125 -1.421875 30.609375 -1.421875 
Q 18.84375 -1.421875 12.171875 6.21875 
Q 5.515625 13.875 5.515625 27.296875 
Q 5.515625 40.765625 12.171875 48.375 
Q 18.84375 56 30.609375 56 
z
" id="DejaVuSans-111"/>
     </defs>
     <use xlink:href="#DejaVuSans-115"/>
     <use x="52.099609" xlink:href="#DejaVuSans-97"/>
     <use x="113.378906" xlink:href="#DejaVuSans-110"/>
     <use x="176.757812" xlink:href="#DejaVuSans-32"/>
     <use x="208.544922" xlink:href="#DejaVuSans-102"/>
     <use x="243.75" xlink:href="#DejaVuSans-114"/>
     <use x="284.863281" xlink:href="#DejaVuSans-97"/>
     <use x="346.142578" xlink:href="#DejaVuSans-110"/>
     <use x="409.521484" xlink:href="#DejaVuSans-99"/>
     <use x="464.501953" xlink:href="#DejaVuSans-105"/>
     <use x="492.285156" xlink:href="#DejaVuSans-115"/>
     <use x="544.384766" xlink:href="#DejaVuSans-99"/>
     <use x="599.365234" xlink:href="#DejaVuSans-111"/>
    </g>
   </g>
   <g id="text_2">
    <!-- 51.8% -->
    <g transform="translate(187.030695 88.083712)scale(0.1 -0.1)">
     <defs>
      <path d="M 10.796875 72.90625 
L 49.515625 72.90625 
L 49.515625 64.59375 
L 19.828125 64.59375 
L 19.828125 46.734375 
Q 21.96875 47.46875 24.109375 47.828125 
Q 26.265625 48.1875 28.421875 48.1875 
Q 40.625 48.1875 47.75 41.5 
Q 54.890625 34.8125 54.890625 23.390625 
Q 54.890625 11.625 47.5625 5.09375 
Q 40.234375 -1.421875 26.90625 -1.421875 
Q 22.3125 -1.421875 17.546875 -0.640625 
Q 12.796875 0.140625 7.71875 1.703125 
L 7.71875 11.625 
Q 12.109375 9.234375 16.796875 8.0625 
Q 21.484375 6.890625 26.703125 6.890625 
Q 35.15625 6.890625 40.078125 11.328125 
Q 45.015625 15.765625 45.015625 23.390625 
Q 45.015625 31 40.078125 35.4375 
Q 35.15625 39.890625 26.703125 39.890625 
Q 22.75 39.890625 18.8125 39.015625 
Q 14.890625 38.140625 10.796875 36.28125 
z
" id="DejaVuSans-53"/>
      <path d="M 12.40625 8.296875 
L 28.515625 8.296875 
L 28.515625 63.921875 
L 10.984375 60.40625 
L 10.984375 69.390625 
L 28.421875 72.90625 
L 38.28125 72.90625 
L 38.28125 8.296875 
L 54.390625 8.296875 
L 54.390625 0 
L 12.40625 0 
z
" id="DejaVuSans-49"/>
      <path d="M 10.6875 12.40625 
L 21 12.40625 
L 21 0 
L 10.6875 0 
z
" id="DejaVuSans-46"/>
      <path d="M 31.78125 34.625 
Q 24.75 34.625 20.71875 30.859375 
Q 16.703125 27.09375 16.703125 20.515625 
Q 16.703125 13.921875 20.71875 10.15625 
Q 24.75 6.390625 31.78125 6.390625 
Q 38.8125 6.390625 42.859375 10.171875 
Q 46.921875 13.96875 46.921875 20.515625 
Q 46.921875 27.09375 42.890625 30.859375 
Q 38.875 34.625 31.78125 34.625 
z
M 21.921875 38.8125 
Q 15.578125 40.375 12.03125 44.71875 
Q 8.5 49.078125 8.5 55.328125 
Q 8.5 64.0625 14.71875 69.140625 
Q 20.953125 74.21875 31.78125 74.21875 
Q 42.671875 74.21875 48.875 69.140625 
Q 55.078125 64.0625 55.078125 55.328125 
Q 55.078125 49.078125 51.53125 44.71875 
Q 48 40.375 41.703125 38.8125 
Q 48.828125 37.15625 52.796875 32.3125 
Q 56.78125 27.484375 56.78125 20.515625 
Q 56.78125 9.90625 50.3125 4.234375 
Q 43.84375 -1.421875 31.78125 -1.421875 
Q 19.734375 -1.421875 13.25 4.234375 
Q 6.78125 9.90625 6.78125 20.515625 
Q 6.78125 27.484375 10.78125 32.3125 
Q 14.796875 37.15625 21.921875 38.8125 
z
M 18.3125 54.390625 
Q 18.3125 48.734375 21.84375 45.5625 
Q 25.390625 42.390625 31.78125 42.390625 
Q 38.140625 42.390625 41.71875 45.5625 
Q 45.3125 48.734375 45.3125 54.390625 
Q 45.3125 60.0625 41.71875 63.234375 
Q 38.140625 66.40625 31.78125 66.40625 
Q 25.390625 66.40625 21.84375 63.234375 
Q 18.3125 60.0625 18.3125 54.390625 
z
" id="DejaVuSans-56"/>
      <path d="M 72.703125 32.078125 
Q 68.453125 32.078125 66.03125 28.46875 
Q 63.625 24.859375 63.625 18.40625 
Q 63.625 12.0625 66.03125 8.421875 
Q 68.453125 4.78125 72.703125 4.78125 
Q 76.859375 4.78125 79.265625 8.421875 
Q 81.6875 12.0625 81.6875 18.40625 
Q 81.6875 24.8125 79.265625 28.4375 
Q 76.859375 32.078125 72.703125 32.078125 
z
M 72.703125 38.28125 
Q 80.421875 38.28125 84.953125 32.90625 
Q 89.5 27.546875 89.5 18.40625 
Q 89.5 9.28125 84.9375 3.921875 
Q 80.375 -1.421875 72.703125 -1.421875 
Q 64.890625 -1.421875 60.34375 3.921875 
Q 55.8125 9.28125 55.8125 18.40625 
Q 55.8125 27.59375 60.375 32.9375 
Q 64.9375 38.28125 72.703125 38.28125 
z
M 22.3125 68.015625 
Q 18.109375 68.015625 15.6875 64.375 
Q 13.28125 60.75 13.28125 54.390625 
Q 13.28125 47.953125 15.671875 44.328125 
Q 18.0625 40.71875 22.3125 40.71875 
Q 26.5625 40.71875 28.96875 44.328125 
Q 31.390625 47.953125 31.390625 54.390625 
Q 31.390625 60.6875 28.953125 64.34375 
Q 26.515625 68.015625 22.3125 68.015625 
z
M 66.40625 74.21875 
L 74.21875 74.21875 
L 28.609375 -1.421875 
L 20.796875 -1.421875 
z
M 22.3125 74.21875 
Q 30.03125 74.21875 34.609375 68.875 
Q 39.203125 63.53125 39.203125 54.390625 
Q 39.203125 45.171875 34.640625 39.84375 
Q 30.078125 34.515625 22.3125 34.515625 
Q 14.546875 34.515625 10.03125 39.859375 
Q 5.515625 45.21875 5.515625 54.390625 
Q 5.515625 63.484375 10.046875 68.84375 
Q 14.59375 74.21875 22.3125 74.21875 
z
" id="DejaVuSans-37"/>
     </defs>
     <use xlink:href="#DejaVuSans-53"/>
     <use x="63.623047" xlink:href="#DejaVuSans-49"/>
     <use x="127.246094" xlink:href="#DejaVuSans-46"/>
     <use x="159.033203" xlink:href="#DejaVuSans-56"/>
     <use x="222.65625" xlink:href="#DejaVuSans-37"/>
    </g>
   </g>
   <g id="text_3">
    <!-- other -->
    <g transform="translate(36.000948 313.55116)scale(0.1 -0.1)">
     <defs>
      <path d="M 18.3125 70.21875 
L 18.3125 54.6875 
L 36.8125 54.6875 
L 36.8125 47.703125 
L 18.3125 47.703125 
L 18.3125 18.015625 
Q 18.3125 11.328125 20.140625 9.421875 
Q 21.96875 7.515625 27.59375 7.515625 
L 36.8125 7.515625 
L 36.8125 0 
L 27.59375 0 
Q 17.1875 0 13.234375 3.875 
Q 9.28125 7.765625 9.28125 18.015625 
L 9.28125 47.703125 
L 2.6875 47.703125 
L 2.6875 54.6875 
L 9.28125 54.6875 
L 9.28125 70.21875 
z
" id="DejaVuSans-116"/>
      <path d="M 54.890625 33.015625 
L 54.890625 0 
L 45.90625 0 
L 45.90625 32.71875 
Q 45.90625 40.484375 42.875 44.328125 
Q 39.84375 48.1875 33.796875 48.1875 
Q 26.515625 48.1875 22.3125 43.546875 
Q 18.109375 38.921875 18.109375 30.90625 
L 18.109375 0 
L 9.078125 0 
L 9.078125 75.984375 
L 18.109375 75.984375 
L 18.109375 46.1875 
Q 21.34375 51.125 25.703125 53.5625 
Q 30.078125 56 35.796875 56 
Q 45.21875 56 50.046875 50.171875 
Q 54.890625 44.34375 54.890625 33.015625 
z
" id="DejaVuSans-104"/>
      <path d="M 56.203125 29.59375 
L 56.203125 25.203125 
L 14.890625 25.203125 
Q 15.484375 15.921875 20.484375 11.0625 
Q 25.484375 6.203125 34.421875 6.203125 
Q 39.59375 6.203125 44.453125 7.46875 
Q 49.3125 8.734375 54.109375 11.28125 
L 54.109375 2.78125 
Q 49.265625 0.734375 44.1875 -0.34375 
Q 39.109375 -1.421875 33.890625 -1.421875 
Q 20.796875 -1.421875 13.15625 6.1875 
Q 5.515625 13.8125 5.515625 26.8125 
Q 5.515625 40.234375 12.765625 48.109375 
Q 20.015625 56 32.328125 56 
Q 43.359375 56 49.78125 48.890625 
Q 56.203125 41.796875 56.203125 29.59375 
z
M 47.21875 32.234375 
Q 47.125 39.59375 43.09375 43.984375 
Q 39.0625 48.390625 32.421875 48.390625 
Q 24.90625 48.390625 20.390625 44.140625 
Q 15.875 39.890625 15.1875 32.171875 
z
" id="DejaVuSans-101"/>
     </defs>
     <use xlink:href="#DejaVuSans-111"/>
     <use x="61.181641" xlink:href="#DejaVuSans-116"/>
     <use x="100.390625" xlink:href="#DejaVuSans-104"/>
     <use x="163.769531" xlink:href="#DejaVuSans-101"/>
     <use x="225.292969" xlink:href="#DejaVuSans-114"/>
    </g>
   </g>
   <g id="text_4">
    <!-- 15.4% -->
    <g transform="translate(90.998235 283.346351)scale(0.1 -0.1)">
     <defs>
      <path d="M 37.796875 64.3125 
L 12.890625 25.390625 
L 37.796875 25.390625 
z
M 35.203125 72.90625 
L 47.609375 72.90625 
L 47.609375 25.390625 
L 58.015625 25.390625 
L 58.015625 17.1875 
L 47.609375 17.1875 
L 47.609375 0 
L 37.796875 0 
L 37.796875 17.1875 
L 4.890625 17.1875 
L 4.890625 26.703125 
z
" id="DejaVuSans-52"/>
     </defs>
     <use xlink:href="#DejaVuSans-49"/>
     <use x="63.623047" xlink:href="#DejaVuSans-53"/>
     <use x="127.246094" xlink:href="#DejaVuSans-46"/>
     <use x="159.033203" xlink:href="#DejaVuSans-52"/>
     <use x="222.65625" xlink:href="#DejaVuSans-37"/>
    </g>
   </g>
   <g id="text_5">
    <!-- oakland -->
    <g transform="translate(150.958721 390.358231)scale(0.1 -0.1)">
     <defs>
      <path d="M 9.078125 75.984375 
L 18.109375 75.984375 
L 18.109375 31.109375 
L 44.921875 54.6875 
L 56.390625 54.6875 
L 27.390625 29.109375 
L 57.625 0 
L 45.90625 0 
L 18.109375 26.703125 
L 18.109375 0 
L 9.078125 0 
z
" id="DejaVuSans-107"/>
      <path d="M 9.421875 75.984375 
L 18.40625 75.984375 
L 18.40625 0 
L 9.421875 0 
z
" id="DejaVuSans-108"/>
      <path d="M 45.40625 46.390625 
L 45.40625 75.984375 
L 54.390625 75.984375 
L 54.390625 0 
L 45.40625 0 
L 45.40625 8.203125 
Q 42.578125 3.328125 38.25 0.953125 
Q 33.9375 -1.421875 27.875 -1.421875 
Q 17.96875 -1.421875 11.734375 6.484375 
Q 5.515625 14.40625 5.515625 27.296875 
Q 5.515625 40.1875 11.734375 48.09375 
Q 17.96875 56 27.875 56 
Q 33.9375 56 38.25 53.625 
Q 42.578125 51.265625 45.40625 46.390625 
z
M 14.796875 27.296875 
Q 14.796875 17.390625 18.875 11.75 
Q 22.953125 6.109375 30.078125 6.109375 
Q 37.203125 6.109375 41.296875 11.75 
Q 45.40625 17.390625 45.40625 27.296875 
Q 45.40625 37.203125 41.296875 42.84375 
Q 37.203125 48.484375 30.078125 48.484375 
Q 22.953125 48.484375 18.875 42.84375 
Q 14.796875 37.203125 14.796875 27.296875 
z
" id="DejaVuSans-100"/>
     </defs>
     <use xlink:href="#DejaVuSans-111"/>
     <use x="61.181641" xlink:href="#DejaVuSans-97"/>
     <use x="122.460938" xlink:href="#DejaVuSans-107"/>
     <use x="180.371094" xlink:href="#DejaVuSans-108"/>
     <use x="208.154297" xlink:href="#DejaVuSans-97"/>
     <use x="269.433594" xlink:href="#DejaVuSans-110"/>
     <use x="332.8125" xlink:href="#DejaVuSans-100"/>
    </g>
   </g>
   <g id="text_6">
    <!-- 12.0% -->
    <g transform="translate(180.561019 337.111301)scale(0.1 -0.1)">
     <defs>
      <path d="M 19.1875 8.296875 
L 53.609375 8.296875 
L 53.609375 0 
L 7.328125 0 
L 7.328125 8.296875 
Q 12.9375 14.109375 22.625 23.890625 
Q 32.328125 33.6875 34.8125 36.53125 
Q 39.546875 41.84375 41.421875 45.53125 
Q 43.3125 49.21875 43.3125 52.78125 
Q 43.3125 58.59375 39.234375 62.25 
Q 35.15625 65.921875 28.609375 65.921875 
Q 23.96875 65.921875 18.8125 64.3125 
Q 13.671875 62.703125 7.8125 59.421875 
L 7.8125 69.390625 
Q 13.765625 71.78125 18.9375 73 
Q 24.125 74.21875 28.421875 74.21875 
Q 39.75 74.21875 46.484375 68.546875 
Q 53.21875 62.890625 53.21875 53.421875 
Q 53.21875 48.921875 51.53125 44.890625 
Q 49.859375 40.875 45.40625 35.40625 
Q 44.1875 33.984375 37.640625 27.21875 
Q 31.109375 20.453125 19.1875 8.296875 
z
" id="DejaVuSans-50"/>
      <path d="M 31.78125 66.40625 
Q 24.171875 66.40625 20.328125 58.90625 
Q 16.5 51.421875 16.5 36.375 
Q 16.5 21.390625 20.328125 13.890625 
Q 24.171875 6.390625 31.78125 6.390625 
Q 39.453125 6.390625 43.28125 13.890625 
Q 47.125 21.390625 47.125 36.375 
Q 47.125 51.421875 43.28125 58.90625 
Q 39.453125 66.40625 31.78125 66.40625 
z
M 31.78125 74.21875 
Q 44.046875 74.21875 50.515625 64.515625 
Q 56.984375 54.828125 56.984375 36.375 
Q 56.984375 17.96875 50.515625 8.265625 
Q 44.046875 -1.421875 31.78125 -1.421875 
Q 19.53125 -1.421875 13.0625 8.265625 
Q 6.59375 17.96875 6.59375 36.375 
Q 6.59375 54.828125 13.0625 64.515625 
Q 19.53125 74.21875 31.78125 74.21875 
z
" id="DejaVuSans-48"/>
     </defs>
     <use xlink:href="#DejaVuSans-49"/>
     <use x="63.623047" xlink:href="#DejaVuSans-50"/>
     <use x="127.246094" xlink:href="#DejaVuSans-46"/>
     <use x="159.033203" xlink:href="#DejaVuSans-48"/>
     <use x="222.65625" xlink:href="#DejaVuSans-37"/>
    </g>
   </g>
   <g id="text_7">
    <!-- berkeley -->
    <g transform="translate(294.05851 370.463417)scale(0.1 -0.1)">
     <defs>
      <path d="M 48.6875 27.296875 
Q 48.6875 37.203125 44.609375 42.84375 
Q 40.53125 48.484375 33.40625 48.484375 
Q 26.265625 48.484375 22.1875 42.84375 
Q 18.109375 37.203125 18.109375 27.296875 
Q 18.109375 17.390625 22.1875 11.75 
Q 26.265625 6.109375 33.40625 6.109375 
Q 40.53125 6.109375 44.609375 11.75 
Q 48.6875 17.390625 48.6875 27.296875 
z
M 18.109375 46.390625 
Q 20.953125 51.265625 25.265625 53.625 
Q 29.59375 56 35.59375 56 
Q 45.5625 56 51.78125 48.09375 
Q 58.015625 40.1875 58.015625 27.296875 
Q 58.015625 14.40625 51.78125 6.484375 
Q 45.5625 -1.421875 35.59375 -1.421875 
Q 29.59375 -1.421875 25.265625 0.953125 
Q 20.953125 3.328125 18.109375 8.203125 
L 18.109375 0 
L 9.078125 0 
L 9.078125 75.984375 
L 18.109375 75.984375 
z
" id="DejaVuSans-98"/>
      <path d="M 32.171875 -5.078125 
Q 28.375 -14.84375 24.75 -17.8125 
Q 21.140625 -20.796875 15.09375 -20.796875 
L 7.90625 -20.796875 
L 7.90625 -13.28125 
L 13.1875 -13.28125 
Q 16.890625 -13.28125 18.9375 -11.515625 
Q 21 -9.765625 23.484375 -3.21875 
L 25.09375 0.875 
L 2.984375 54.6875 
L 12.5 54.6875 
L 29.59375 11.921875 
L 46.6875 54.6875 
L 56.203125 54.6875 
z
" id="DejaVuSans-121"/>
     </defs>
     <use xlink:href="#DejaVuSans-98"/>
     <use x="63.476562" xlink:href="#DejaVuSans-101"/>
     <use x="125" xlink:href="#DejaVuSans-114"/>
     <use x="166.113281" xlink:href="#DejaVuSans-107"/>
     <use x="220.398438" xlink:href="#DejaVuSans-101"/>
     <use x="281.921875" xlink:href="#DejaVuSans-108"/>
     <use x="309.705078" xlink:href="#DejaVuSans-101"/>
     <use x="371.228516" xlink:href="#DejaVuSans-121"/>
    </g>
   </g>
   <g id="text_8">
    <!-- 7.0% -->
    <g transform="translate(256.17134 323.184932)scale(0.1 -0.1)">
     <defs>
      <path d="M 8.203125 72.90625 
L 55.078125 72.90625 
L 55.078125 68.703125 
L 28.609375 0 
L 18.3125 0 
L 43.21875 64.59375 
L 8.203125 64.59375 
z
" id="DejaVuSans-55"/>
     </defs>
     <use xlink:href="#DejaVuSans-55"/>
     <use x="63.623047" xlink:href="#DejaVuSans-46"/>
     <use x="95.410156" xlink:href="#DejaVuSans-48"/>
     <use x="159.033203" xlink:href="#DejaVuSans-37"/>
    </g>
   </g>
   <g id="text_9">
    <!-- san mateo -->
    <g transform="translate(335.663456 339.832142)scale(0.1 -0.1)">
     <defs>
      <path d="M 52 44.1875 
Q 55.375 50.25 60.0625 53.125 
Q 64.75 56 71.09375 56 
Q 79.640625 56 84.28125 50.015625 
Q 88.921875 44.046875 88.921875 33.015625 
L 88.921875 0 
L 79.890625 0 
L 79.890625 32.71875 
Q 79.890625 40.578125 77.09375 44.375 
Q 74.3125 48.1875 68.609375 48.1875 
Q 61.625 48.1875 57.5625 43.546875 
Q 53.515625 38.921875 53.515625 30.90625 
L 53.515625 0 
L 44.484375 0 
L 44.484375 32.71875 
Q 44.484375 40.625 41.703125 44.40625 
Q 38.921875 48.1875 33.109375 48.1875 
Q 26.21875 48.1875 22.15625 43.53125 
Q 18.109375 38.875 18.109375 30.90625 
L 18.109375 0 
L 9.078125 0 
L 9.078125 54.6875 
L 18.109375 54.6875 
L 18.109375 46.1875 
Q 21.1875 51.21875 25.484375 53.609375 
Q 29.78125 56 35.6875 56 
Q 41.65625 56 45.828125 52.96875 
Q 50 49.953125 52 44.1875 
z
" id="DejaVuSans-109"/>
     </defs>
     <use xlink:href="#DejaVuSans-115"/>
     <use x="52.099609" xlink:href="#DejaVuSans-97"/>
     <use x="113.378906" xlink:href="#DejaVuSans-110"/>
     <use x="176.757812" xlink:href="#DejaVuSans-32"/>
     <use x="208.544922" xlink:href="#DejaVuSans-109"/>
     <use x="305.957031" xlink:href="#DejaVuSans-97"/>
     <use x="367.236328" xlink:href="#DejaVuSans-116"/>
     <use x="406.445312" xlink:href="#DejaVuSans-101"/>
     <use x="467.96875" xlink:href="#DejaVuSans-111"/>
    </g>
   </g>
   <g id="text_10">
    <!-- 2.2% -->
    <g transform="translate(285.294803 301.743039)scale(0.1 -0.1)">
     <use xlink:href="#DejaVuSans-50"/>
     <use x="63.623047" xlink:href="#DejaVuSans-46"/>
     <use x="95.410156" xlink:href="#DejaVuSans-50"/>
     <use x="159.033203" xlink:href="#DejaVuSans-37"/>
    </g>
   </g>
   <g id="text_11">
    <!-- palo alto -->
    <g transform="translate(350.566272 323.120241)scale(0.1 -0.1)">
     <defs>
      <path d="M 18.109375 8.203125 
L 18.109375 -20.796875 
L 9.078125 -20.796875 
L 9.078125 54.6875 
L 18.109375 54.6875 
L 18.109375 46.390625 
Q 20.953125 51.265625 25.265625 53.625 
Q 29.59375 56 35.59375 56 
Q 45.5625 56 51.78125 48.09375 
Q 58.015625 40.1875 58.015625 27.296875 
Q 58.015625 14.40625 51.78125 6.484375 
Q 45.5625 -1.421875 35.59375 -1.421875 
Q 29.59375 -1.421875 25.265625 0.953125 
Q 20.953125 3.328125 18.109375 8.203125 
z
M 48.6875 27.296875 
Q 48.6875 37.203125 44.609375 42.84375 
Q 40.53125 48.484375 33.40625 48.484375 
Q 26.265625 48.484375 22.1875 42.84375 
Q 18.109375 37.203125 18.109375 27.296875 
Q 18.109375 17.390625 22.1875 11.75 
Q 26.265625 6.109375 33.40625 6.109375 
Q 40.53125 6.109375 44.609375 11.75 
Q 48.6875 17.390625 48.6875 27.296875 
z
" id="DejaVuSans-112"/>
     </defs>
     <use xlink:href="#DejaVuSans-112"/>
     <use x="63.476562" xlink:href="#DejaVuSans-97"/>
     <use x="124.755859" xlink:href="#DejaVuSans-108"/>
     <use x="152.539062" xlink:href="#DejaVuSans-111"/>
     <use x="213.720703" xlink:href="#DejaVuSans-32"/>
     <use x="245.507812" xlink:href="#DejaVuSans-97"/>
     <use x="306.787109" xlink:href="#DejaVuSans-108"/>
     <use x="334.570312" xlink:href="#DejaVuSans-116"/>
     <use x="373.779297" xlink:href="#DejaVuSans-111"/>
    </g>
   </g>
   <g id="text_12">
    <!-- 1.8% -->
    <g transform="translate(295.726774 290.044709)scale(0.1 -0.1)">
     <use xlink:href="#DejaVuSans-49"/>
     <use x="63.623047" xlink:href="#DejaVuSans-46"/>
     <use x="95.410156" xlink:href="#DejaVuSans-56"/>
     <use x="159.033203" xlink:href="#DejaVuSans-37"/>
    </g>
   </g>
   <g id="text_13">
    <!-- alameda -->
    <g transform="translate(361.207943 308.014724)scale(0.1 -0.1)">
     <use xlink:href="#DejaVuSans-97"/>
     <use x="61.279297" xlink:href="#DejaVuSans-108"/>
     <use x="89.0625" xlink:href="#DejaVuSans-97"/>
     <use x="150.341797" xlink:href="#DejaVuSans-109"/>
     <use x="247.753906" xlink:href="#DejaVuSans-101"/>
     <use x="309.277344" xlink:href="#DejaVuSans-100"/>
     <use x="372.753906" xlink:href="#DejaVuSans-97"/>
    </g>
   </g>
   <g id="text_14">
    <!-- 1.5% -->
    <g transform="translate(303.175944 279.470846)scale(0.1 -0.1)">
     <use xlink:href="#DejaVuSans-49"/>
     <use x="63.623047" xlink:href="#DejaVuSans-46"/>
     <use x="95.410156" xlink:href="#DejaVuSans-53"/>
     <use x="159.033203" xlink:href="#DejaVuSans-37"/>
    </g>
   </g>
   <g id="text_15">
    <!-- san rafael -->
    <g transform="translate(368.923723 294.487007)scale(0.1 -0.1)">
     <use xlink:href="#DejaVuSans-115"/>
     <use x="52.099609" xlink:href="#DejaVuSans-97"/>
     <use x="113.378906" xlink:href="#DejaVuSans-110"/>
     <use x="176.757812" xlink:href="#DejaVuSans-32"/>
     <use x="208.544922" xlink:href="#DejaVuSans-114"/>
     <use x="249.658203" xlink:href="#DejaVuSans-97"/>
     <use x="310.9375" xlink:href="#DejaVuSans-102"/>
     <use x="346.142578" xlink:href="#DejaVuSans-97"/>
     <use x="407.421875" xlink:href="#DejaVuSans-101"/>
     <use x="468.945312" xlink:href="#DejaVuSans-108"/>
    </g>
   </g>
   <g id="text_16">
    <!-- 1.3% -->
    <g transform="translate(308.57699 270.001445)scale(0.1 -0.1)">
     <defs>
      <path d="M 40.578125 39.3125 
Q 47.65625 37.796875 51.625 33 
Q 55.609375 28.21875 55.609375 21.1875 
Q 55.609375 10.40625 48.1875 4.484375 
Q 40.765625 -1.421875 27.09375 -1.421875 
Q 22.515625 -1.421875 17.65625 -0.515625 
Q 12.796875 0.390625 7.625 2.203125 
L 7.625 11.71875 
Q 11.71875 9.328125 16.59375 8.109375 
Q 21.484375 6.890625 26.8125 6.890625 
Q 36.078125 6.890625 40.9375 10.546875 
Q 45.796875 14.203125 45.796875 21.1875 
Q 45.796875 27.640625 41.28125 31.265625 
Q 36.765625 34.90625 28.71875 34.90625 
L 20.21875 34.90625 
L 20.21875 43.015625 
L 29.109375 43.015625 
Q 36.375 43.015625 40.234375 45.921875 
Q 44.09375 48.828125 44.09375 54.296875 
Q 44.09375 59.90625 40.109375 62.90625 
Q 36.140625 65.921875 28.71875 65.921875 
Q 24.65625 65.921875 20.015625 65.03125 
Q 15.375 64.15625 9.8125 62.3125 
L 9.8125 71.09375 
Q 15.4375 72.65625 20.34375 73.4375 
Q 25.25 74.21875 29.59375 74.21875 
Q 40.828125 74.21875 47.359375 69.109375 
Q 53.90625 64.015625 53.90625 55.328125 
Q 53.90625 49.265625 50.4375 45.09375 
Q 46.96875 40.921875 40.578125 39.3125 
z
" id="DejaVuSans-51"/>
     </defs>
     <use xlink:href="#DejaVuSans-49"/>
     <use x="63.623047" xlink:href="#DejaVuSans-46"/>
     <use x="95.410156" xlink:href="#DejaVuSans-51"/>
     <use x="159.033203" xlink:href="#DejaVuSans-37"/>
    </g>
   </g>
   <g id="text_17">
    <!-- hayward -->
    <g transform="translate(374.84411 281.760026)scale(0.1 -0.1)">
     <defs>
      <path d="M 4.203125 54.6875 
L 13.1875 54.6875 
L 24.421875 12.015625 
L 35.59375 54.6875 
L 46.1875 54.6875 
L 57.421875 12.015625 
L 68.609375 54.6875 
L 77.59375 54.6875 
L 63.28125 0 
L 52.6875 0 
L 40.921875 44.828125 
L 29.109375 0 
L 18.5 0 
z
" id="DejaVuSans-119"/>
     </defs>
     <use xlink:href="#DejaVuSans-104"/>
     <use x="63.378906" xlink:href="#DejaVuSans-97"/>
     <use x="124.658203" xlink:href="#DejaVuSans-121"/>
     <use x="183.837891" xlink:href="#DejaVuSans-119"/>
     <use x="265.625" xlink:href="#DejaVuSans-97"/>
     <use x="326.904297" xlink:href="#DejaVuSans-114"/>
     <use x="366.267578" xlink:href="#DejaVuSans-100"/>
    </g>
   </g>
   <g id="text_18">
    <!-- 1.2% -->
    <g transform="translate(312.721261 261.092558)scale(0.1 -0.1)">
     <use xlink:href="#DejaVuSans-49"/>
     <use x="63.623047" xlink:href="#DejaVuSans-46"/>
     <use x="95.410156" xlink:href="#DejaVuSans-50"/>
     <use x="159.033203" xlink:href="#DejaVuSans-37"/>
    </g>
   </g>
   <g id="text_19">
    <!-- emeryville -->
    <g transform="translate(379.699604 268.74987)scale(0.1 -0.1)">
     <defs>
      <path d="M 2.984375 54.6875 
L 12.5 54.6875 
L 29.59375 8.796875 
L 46.6875 54.6875 
L 56.203125 54.6875 
L 35.6875 0 
L 23.484375 0 
z
" id="DejaVuSans-118"/>
     </defs>
     <use xlink:href="#DejaVuSans-101"/>
     <use x="61.523438" xlink:href="#DejaVuSans-109"/>
     <use x="158.935547" xlink:href="#DejaVuSans-101"/>
     <use x="220.458984" xlink:href="#DejaVuSans-114"/>
     <use x="261.572266" xlink:href="#DejaVuSans-121"/>
     <use x="320.751953" xlink:href="#DejaVuSans-118"/>
     <use x="379.931641" xlink:href="#DejaVuSans-105"/>
     <use x="407.714844" xlink:href="#DejaVuSans-108"/>
     <use x="435.498047" xlink:href="#DejaVuSans-108"/>
     <use x="463.28125" xlink:href="#DejaVuSans-101"/>
    </g>
   </g>
   <g id="text_20">
    <!-- 1.2% -->
    <g transform="translate(316.120107 251.985449)scale(0.1 -0.1)">
     <use xlink:href="#DejaVuSans-49"/>
     <use x="63.623047" xlink:href="#DejaVuSans-46"/>
     <use x="95.410156" xlink:href="#DejaVuSans-50"/>
     <use x="159.033203" xlink:href="#DejaVuSans-37"/>
    </g>
   </g>
   <g id="text_21">
    <!-- redwood city -->
    <g transform="translate(383.410298 255.884339)scale(0.1 -0.1)">
     <use xlink:href="#DejaVuSans-114"/>
     <use x="38.863281" xlink:href="#DejaVuSans-101"/>
     <use x="100.386719" xlink:href="#DejaVuSans-100"/>
     <use x="163.863281" xlink:href="#DejaVuSans-119"/>
     <use x="245.650391" xlink:href="#DejaVuSans-111"/>
     <use x="306.832031" xlink:href="#DejaVuSans-111"/>
     <use x="368.013672" xlink:href="#DejaVuSans-100"/>
     <use x="431.490234" xlink:href="#DejaVuSans-32"/>
     <use x="463.277344" xlink:href="#DejaVuSans-99"/>
     <use x="518.257812" xlink:href="#DejaVuSans-105"/>
     <use x="546.041016" xlink:href="#DejaVuSans-116"/>
     <use x="585.25" xlink:href="#DejaVuSans-121"/>
    </g>
   </g>
   <g id="text_22">
    <!-- 1.2% -->
    <g transform="translate(318.717592 242.979577)scale(0.1 -0.1)">
     <use xlink:href="#DejaVuSans-49"/>
     <use x="63.623047" xlink:href="#DejaVuSans-46"/>
     <use x="95.410156" xlink:href="#DejaVuSans-50"/>
     <use x="159.033203" xlink:href="#DejaVuSans-37"/>
    </g>
   </g>
   <g id="text_23">
    <!-- daly city -->
    <g transform="translate(386.057733 243.294587)scale(0.1 -0.1)">
     <use xlink:href="#DejaVuSans-100"/>
     <use x="63.476562" xlink:href="#DejaVuSans-97"/>
     <use x="124.755859" xlink:href="#DejaVuSans-108"/>
     <use x="152.539062" xlink:href="#DejaVuSans-121"/>
     <use x="211.71875" xlink:href="#DejaVuSans-32"/>
     <use x="243.505859" xlink:href="#DejaVuSans-99"/>
     <use x="298.486328" xlink:href="#DejaVuSans-105"/>
     <use x="326.269531" xlink:href="#DejaVuSans-116"/>
     <use x="365.478516" xlink:href="#DejaVuSans-121"/>
    </g>
   </g>
   <g id="text_24">
    <!-- 1.1% -->
    <g transform="translate(320.570797 234.166751)scale(0.1 -0.1)">
     <use xlink:href="#DejaVuSans-49"/>
     <use x="63.623047" xlink:href="#DejaVuSans-46"/>
     <use x="95.410156" xlink:href="#DejaVuSans-49"/>
     <use x="159.033203" xlink:href="#DejaVuSans-37"/>
    </g>
   </g>
   <g id="text_25">
    <!-- san leandro -->
    <g transform="translate(387.748572 230.97615)scale(0.1 -0.1)">
     <use xlink:href="#DejaVuSans-115"/>
     <use x="52.099609" xlink:href="#DejaVuSans-97"/>
     <use x="113.378906" xlink:href="#DejaVuSans-110"/>
     <use x="176.757812" xlink:href="#DejaVuSans-32"/>
     <use x="208.544922" xlink:href="#DejaVuSans-108"/>
     <use x="236.328125" xlink:href="#DejaVuSans-101"/>
     <use x="297.851562" xlink:href="#DejaVuSans-97"/>
     <use x="359.130859" xlink:href="#DejaVuSans-110"/>
     <use x="422.509766" xlink:href="#DejaVuSans-100"/>
     <use x="485.986328" xlink:href="#DejaVuSans-114"/>
     <use x="524.849609" xlink:href="#DejaVuSans-111"/>
    </g>
   </g>
   <g id="text_26">
    <!-- 1.1% -->
    <g transform="translate(321.754384 225.543845)scale(0.1 -0.1)">
     <use xlink:href="#DejaVuSans-49"/>
     <use x="63.623047" xlink:href="#DejaVuSans-46"/>
     <use x="95.410156" xlink:href="#DejaVuSans-49"/>
     <use x="159.033203" xlink:href="#DejaVuSans-37"/>
    </g>
   </g>
   <g id="text_27">
    <!-- walnut creek -->
    <g transform="translate(388.566944 218.907368)scale(0.1 -0.1)">
     <defs>
      <path d="M 8.5 21.578125 
L 8.5 54.6875 
L 17.484375 54.6875 
L 17.484375 21.921875 
Q 17.484375 14.15625 20.5 10.265625 
Q 23.53125 6.390625 29.59375 6.390625 
Q 36.859375 6.390625 41.078125 11.03125 
Q 45.3125 15.671875 45.3125 23.6875 
L 45.3125 54.6875 
L 54.296875 54.6875 
L 54.296875 0 
L 45.3125 0 
L 45.3125 8.40625 
Q 42.046875 3.421875 37.71875 1 
Q 33.40625 -1.421875 27.6875 -1.421875 
Q 18.265625 -1.421875 13.375 4.4375 
Q 8.5 10.296875 8.5 21.578125 
z
M 31.109375 56 
z
" id="DejaVuSans-117"/>
     </defs>
     <use xlink:href="#DejaVuSans-119"/>
     <use x="81.787109" xlink:href="#DejaVuSans-97"/>
     <use x="143.066406" xlink:href="#DejaVuSans-108"/>
     <use x="170.849609" xlink:href="#DejaVuSans-110"/>
     <use x="234.228516" xlink:href="#DejaVuSans-117"/>
     <use x="297.607422" xlink:href="#DejaVuSans-116"/>
     <use x="336.816406" xlink:href="#DejaVuSans-32"/>
     <use x="368.603516" xlink:href="#DejaVuSans-99"/>
     <use x="423.583984" xlink:href="#DejaVuSans-114"/>
     <use x="462.447266" xlink:href="#DejaVuSans-101"/>
     <use x="523.970703" xlink:href="#DejaVuSans-101"/>
     <use x="585.494141" xlink:href="#DejaVuSans-107"/>
    </g>
   </g>
   <g id="text_28">
    <!-- 1.1% -->
    <g transform="translate(322.327244 217.095697)scale(0.1 -0.1)">
     <use xlink:href="#DejaVuSans-49"/>
     <use x="63.623047" xlink:href="#DejaVuSans-46"/>
     <use x="95.410156" xlink:href="#DejaVuSans-49"/>
     <use x="159.033203" xlink:href="#DejaVuSans-37"/>
    </g>
   </g>
   <g id="text_29">
    <!-- city* -->
    <g transform="translate(186.993466 215.627841)scale(0.2 -0.2)">
     <defs>
      <path d="M 47.015625 60.890625 
L 29.5 51.421875 
L 47.015625 41.890625 
L 44.1875 37.109375 
L 27.78125 47.015625 
L 27.78125 28.609375 
L 22.21875 28.609375 
L 22.21875 47.015625 
L 5.8125 37.109375 
L 2.984375 41.890625 
L 20.515625 51.421875 
L 2.984375 60.890625 
L 5.8125 65.71875 
L 22.21875 55.8125 
L 22.21875 74.21875 
L 27.78125 74.21875 
L 27.78125 55.8125 
L 44.1875 65.71875 
z
" id="DejaVuSans-42"/>
     </defs>
     <use xlink:href="#DejaVuSans-99"/>
     <use x="54.980469" xlink:href="#DejaVuSans-105"/>
     <use x="82.763672" xlink:href="#DejaVuSans-116"/>
     <use x="121.972656" xlink:href="#DejaVuSans-121"/>
     <use x="181.152344" xlink:href="#DejaVuSans-42"/>
    </g>
   </g>
  </g>
  <g id="axes_2">
   <g id="patch_16">
    <path d="M 859.418182 210.109091 
C 859.418182 188.824748 855.231979 167.74674 847.098435 148.077762 
C 838.96489 128.408783 827.041701 110.530186 812.009195 95.462106 
C 796.976689 80.394027 779.126322 68.428613 759.476623 60.248602 
C 739.826924 52.068591 718.75887 47.832579 697.474587 47.782272 
C 676.190303 47.731964 655.10246 51.868335 635.414312 59.955367 
C 615.726164 68.042399 597.819434 79.923297 582.715866 94.920146 
C 567.612298 109.916995 555.604727 127.73903 547.378294 147.36934 
C 539.151861 166.99965 534.866065 188.057633 534.76545 209.341738 
C 534.664835 230.625843 538.751351 251.723404 546.791825 271.430612 
C 554.8323 291.137819 566.67084 309.072581 581.631948 324.211553 
C 596.593057 339.350526 614.386661 351.400188 633.997472 359.672996 
C 653.608283 367.945804 674.656077 372.281361 695.939885 372.432283 
C 717.223693 372.583205 738.330854 368.546567 758.057011 360.552695 
C 777.783168 352.558823 795.745861 340.762706 810.920153 325.837422 
C 826.094446 310.912138 838.186131 293.147065 846.505268 273.555862 
C 854.824405 253.96466 859.209699 232.927172 859.410927 211.64378 
L 843.178925 211.490311 
C 842.99782 230.645364 839.051056 249.579103 831.563832 267.211185 
C 824.076609 284.843267 813.194092 300.831833 799.537229 314.264589 
C 785.880366 327.697345 769.713942 338.31385 751.960401 345.508334 
C 734.206859 352.702819 715.210414 356.335794 696.054987 356.199964 
C 676.89956 356.064134 657.956545 352.162132 640.306815 344.716605 
C 622.657086 337.271078 606.642842 326.426382 593.177844 312.801307 
C 579.712847 299.176232 569.058161 283.034946 561.821734 265.29846 
C 554.585307 247.561973 550.907442 228.574168 550.997996 209.418473 
C 551.08855 190.262778 554.945766 171.310594 562.349556 153.643315 
C 569.753345 135.976036 580.560159 119.936205 594.153371 106.43904 
C 607.746582 92.941876 623.862638 82.249068 641.581972 74.970739 
C 659.301305 67.69241 678.280364 63.969677 697.436219 64.014954 
C 716.592074 64.060231 735.553323 67.872641 753.238052 75.234651 
C 770.922781 82.596661 786.988111 93.365533 800.517366 106.926805 
C 814.046622 120.488076 824.777492 136.578814 832.097682 154.280895 
C 839.417872 171.982975 843.185455 190.953182 843.185455 210.109091 
L 859.418182 210.109091 
z
" style="fill:#1f77b4;stroke:#000000;stroke-linejoin:miter;stroke-width:0.7;"/>
   </g>
   <g id="patch_17">
    <path d="M 859.410927 211.64378 
C 859.413345 211.388002 859.415159 211.132219 859.416368 210.876433 
C 859.417577 210.620647 859.418182 210.364859 859.418182 210.10907 
L 843.185455 210.109072 
C 843.185455 210.339282 843.18491 210.569492 843.183822 210.799699 
C 843.182734 211.029907 843.181102 211.260111 843.178925 211.490311 
L 859.410927 211.64378 
z
" style="fill:#ff7f0e;stroke:#000000;stroke-linejoin:miter;stroke-width:0.7;"/>
   </g>
   <g id="matplotlib.axis_3"/>
   <g id="matplotlib.axis_4"/>
   <g id="text_30">
    <!--  california -->
    <g transform="translate(469.353217 212.024378)scale(0.1 -0.1)">
     <use xlink:href="#DejaVuSans-32"/>
     <use x="31.787109" xlink:href="#DejaVuSans-99"/>
     <use x="86.767578" xlink:href="#DejaVuSans-97"/>
     <use x="148.046875" xlink:href="#DejaVuSans-108"/>
     <use x="175.830078" xlink:href="#DejaVuSans-105"/>
     <use x="203.613281" xlink:href="#DejaVuSans-102"/>
     <use x="238.818359" xlink:href="#DejaVuSans-111"/>
     <use x="300" xlink:href="#DejaVuSans-114"/>
     <use x="339.363281" xlink:href="#DejaVuSans-110"/>
     <use x="402.742188" xlink:href="#DejaVuSans-105"/>
     <use x="430.525391" xlink:href="#DejaVuSans-97"/>
    </g>
   </g>
   <g id="text_31">
    <!-- 99.8% -->
    <g transform="translate(556.216712 212.277604)scale(0.1 -0.1)">
     <defs>
      <path d="M 10.984375 1.515625 
L 10.984375 10.5 
Q 14.703125 8.734375 18.5 7.8125 
Q 22.3125 6.890625 25.984375 6.890625 
Q 35.75 6.890625 40.890625 13.453125 
Q 46.046875 20.015625 46.78125 33.40625 
Q 43.953125 29.203125 39.59375 26.953125 
Q 35.25 24.703125 29.984375 24.703125 
Q 19.046875 24.703125 12.671875 31.3125 
Q 6.296875 37.9375 6.296875 49.421875 
Q 6.296875 60.640625 12.9375 67.421875 
Q 19.578125 74.21875 30.609375 74.21875 
Q 43.265625 74.21875 49.921875 64.515625 
Q 56.59375 54.828125 56.59375 36.375 
Q 56.59375 19.140625 48.40625 8.859375 
Q 40.234375 -1.421875 26.421875 -1.421875 
Q 22.703125 -1.421875 18.890625 -0.6875 
Q 15.09375 0.046875 10.984375 1.515625 
z
M 30.609375 32.421875 
Q 37.25 32.421875 41.125 36.953125 
Q 45.015625 41.5 45.015625 49.421875 
Q 45.015625 57.28125 41.125 61.84375 
Q 37.25 66.40625 30.609375 66.40625 
Q 23.96875 66.40625 20.09375 61.84375 
Q 16.21875 57.28125 16.21875 49.421875 
Q 16.21875 41.5 20.09375 36.953125 
Q 23.96875 32.421875 30.609375 32.421875 
z
" id="DejaVuSans-57"/>
     </defs>
     <use xlink:href="#DejaVuSans-57"/>
     <use x="63.623047" xlink:href="#DejaVuSans-57"/>
     <use x="127.246094" xlink:href="#DejaVuSans-46"/>
     <use x="159.033203" xlink:href="#DejaVuSans-56"/>
     <use x="222.65625" xlink:href="#DejaVuSans-37"/>
    </g>
   </g>
   <g id="text_32">
    <!-- other -->
    <g transform="translate(875.648914 213.712543)scale(0.1 -0.1)">
     <use xlink:href="#DejaVuSans-111"/>
     <use x="61.181641" xlink:href="#DejaVuSans-116"/>
     <use x="100.390625" xlink:href="#DejaVuSans-104"/>
     <use x="163.769531" xlink:href="#DejaVuSans-101"/>
     <use x="225.292969" xlink:href="#DejaVuSans-114"/>
    </g>
   </g>
   <g id="text_33">
    <!-- 0.2% -->
    <g transform="translate(809.379169 213.45932)scale(0.1 -0.1)">
     <use xlink:href="#DejaVuSans-48"/>
     <use x="63.623047" xlink:href="#DejaVuSans-46"/>
     <use x="95.410156" xlink:href="#DejaVuSans-50"/>
     <use x="159.033203" xlink:href="#DejaVuSans-37"/>
    </g>
   </g>
   <g id="text_34">
    <!-- state/country* -->
    <g transform="translate(625.148722 215.627841)scale(0.2 -0.2)">
     <defs>
      <path d="M 25.390625 72.90625 
L 33.6875 72.90625 
L 8.296875 -9.28125 
L 0 -9.28125 
z
" id="DejaVuSans-47"/>
     </defs>
     <use xlink:href="#DejaVuSans-115"/>
     <use x="52.099609" xlink:href="#DejaVuSans-116"/>
     <use x="91.308594" xlink:href="#DejaVuSans-97"/>
     <use x="152.587891" xlink:href="#DejaVuSans-116"/>
     <use x="191.796875" xlink:href="#DejaVuSans-101"/>
     <use x="253.320312" xlink:href="#DejaVuSans-47"/>
     <use x="287.011719" xlink:href="#DejaVuSans-99"/>
     <use x="341.992188" xlink:href="#DejaVuSans-111"/>
     <use x="403.173828" xlink:href="#DejaVuSans-117"/>
     <use x="466.552734" xlink:href="#DejaVuSans-110"/>
     <use x="529.931641" xlink:href="#DejaVuSans-116"/>
     <use x="569.140625" xlink:href="#DejaVuSans-114"/>
     <use x="610.253906" xlink:href="#DejaVuSans-121"/>
     <use x="669.433594" xlink:href="#DejaVuSans-42"/>
    </g>
   </g>
  </g>
 </g>
</svg>
